<svg width="368" height="268" viewBox="0 0 368 268" fill="none" xmlns="http://www.w3.org/2000/svg">
<g clip-path="url(#clip0)">
<path fill-rule="evenodd" clip-rule="evenodd" d="M101.441 298.56L213.983 284.742C268.9 277.999 296.229 243.883 290.267 195.319C286.736 166.569 268.972 144.299 240.708 137.911C257.787 126.743 269.664 105.172 266.134 76.4221C261.125 35.6285 226.226 7.18092 175.176 13.4491L124.136 19.716L130.242 69.4454L169.68 64.603C190.177 62.0863 205.049 71.3026 207.339 89.9511C209.724 109.377 197.619 122.694 177.122 125.211L137.684 130.053L130.242 69.4454L74.1548 76.3321L101.441 298.56ZM143.208 175.122L151.269 240.78L196.518 235.224C218.176 232.565 232.167 218.622 229.591 197.642C227.11 177.439 211.661 166.717 188.456 169.566L143.208 175.122Z" fill="white" fill-opacity="0.1"/>
<path d="M137.656 129.89L197.705 122.517" stroke="#9B9B9B" stroke-width="0.5"/>
<path d="M143.201 175.051L211.687 166.642" stroke="#9B9B9B" stroke-width="0.5"/>
<path d="M151.289 240.921L218.286 232.695" stroke="#9B9B9B" stroke-width="0.5"/>
<path d="M130.221 69.3444L190.27 61.9713" stroke="#9B9B9B" stroke-width="0.5"/>
<path d="M124.129 19.717L226.361 7.16449" stroke="#9B9B9B" stroke-width="0.5"/>
<path d="M205.072 71.7403L209.764 109.953" stroke="#9B9B9B" stroke-width="0.5"/>
<path d="M227.723 178.274L232.719 218.968" stroke="#9B9B9B" stroke-width="0.5"/>
<path d="M269.41 144.441L240.957 138.363L258.223 127.176" stroke="#9B9B9B" stroke-width="0.5"/>
<path d="M296.295 244.41L286.789 166.991" stroke="#9B9B9B" stroke-width="0.5"/>
<path d="M285.304 167.001L286.588 165.357L288.232 166.641L286.948 168.285L285.304 167.001Z" fill="white" stroke="#20A3FB" stroke-width="0.5"/>
<path d="M268.314 144.907L269.598 143.263L271.242 144.548L269.958 146.191L268.314 144.907Z" fill="white" stroke="#20A3FB" stroke-width="0.5"/>
<path d="M257.064 127.145L258.348 125.502L259.992 126.786L258.708 128.43L257.064 127.145Z" fill="white" stroke="#20A3FB" stroke-width="0.5"/>
<path d="M208.279 109.963L209.563 108.319L211.207 109.603L209.922 111.247L208.279 109.963Z" fill="white" stroke="#20A3FB" stroke-width="0.5"/>
<path d="M203.527 71.2536L204.811 69.6098L206.455 70.8941L205.17 72.5379L203.527 71.2536Z" fill="white" stroke="#20A3FB" stroke-width="0.5"/>
<path d="M188.636 62.1719L189.92 60.5281L191.564 61.8124L190.28 63.4562L188.636 62.1719Z" fill="white" stroke="#20A3FB" stroke-width="0.5"/>
<path d="M225.052 7.3252L226.336 5.68141L227.98 6.96568L226.696 8.60947L225.052 7.3252Z" fill="white" stroke="#20A3FB" stroke-width="0.5"/>
<path d="M196.07 122.717L197.354 121.073L198.998 122.358L197.713 124.001L196.07 122.717Z" fill="white" stroke="#20A3FB" stroke-width="0.5"/>
<path d="M210.548 166.781L211.832 165.137L213.476 166.422L212.192 168.066L210.548 166.781Z" fill="white" stroke="#20A3FB" stroke-width="0.5"/>
<path d="M226.199 177.957L227.483 176.313L229.127 177.598L227.842 179.242L226.199 177.957Z" fill="white" stroke="#20A3FB" stroke-width="0.5"/>
<path d="M231.236 218.978L232.52 217.334L234.164 218.618L232.879 220.262L231.236 218.978Z" fill="white" stroke="#20A3FB" stroke-width="0.5"/>
<path d="M216.646 232.859L217.93 231.215L219.574 232.5L218.29 234.143L216.646 232.859Z" fill="white" stroke="#20A3FB" stroke-width="0.5"/>
<path d="M294.81 244.42L296.094 242.776L297.738 244.06L296.454 245.704L294.81 244.42Z" fill="white" stroke="#20A3FB" stroke-width="0.5"/>
<circle cx="290.323" cy="195.775" r="1.75" transform="rotate(-7 290.323 195.775)" fill="white" stroke="#20A3FB" stroke-width="0.5"/>
<path d="M269.682 105.619L261.151 36.1406" stroke="#9B9B9B" stroke-width="0.5"/>
<path d="M259.667 36.1501L260.952 34.5064L262.595 35.7906L261.311 37.4344L259.667 36.1501Z" fill="white" stroke="#20A3FB" stroke-width="0.5"/>
<path d="M268.218 105.799L269.502 104.155L271.146 105.439L269.862 107.083L268.218 105.799Z" fill="white" stroke="#20A3FB" stroke-width="0.5"/>
<path d="M267.884 76.6217C268.002 77.581 267.319 78.4542 266.36 78.5719C265.401 78.6897 264.528 78.0075 264.41 77.0483C264.292 76.089 264.974 75.2158 265.934 75.098C266.893 74.9802 267.766 75.6624 267.884 76.6217Z" fill="white" stroke="#20A3FB" stroke-width="0.5"/>
<path d="M125.864 19.5038C125.982 20.4631 125.3 21.3362 124.341 21.454C123.381 21.5718 122.508 20.8896 122.39 19.9303C122.273 18.971 122.955 18.0979 123.914 17.9801C124.873 17.8623 125.746 18.5445 125.864 19.5038Z" fill="white" stroke="#20A3FB" stroke-width="0.5"/>
<path d="M176.981 13.2275C177.099 14.1868 176.417 15.06 175.458 15.1778C174.498 15.2956 173.625 14.6134 173.508 13.6541C173.39 12.6948 174.072 11.8216 175.031 11.7039C175.99 11.5861 176.864 12.2683 176.981 13.2275Z" fill="white" stroke="#20A3FB" stroke-width="0.5"/>
<path d="M75.8798 76.0167C75.9976 76.976 75.3155 77.8492 74.3562 77.967C73.3969 78.0847 72.5237 77.4026 72.4059 76.4433C72.2882 75.484 72.9703 74.6108 73.9296 74.493C74.8889 74.3753 75.7621 75.0574 75.8798 76.0167Z" fill="white" stroke="#20A3FB" stroke-width="0.5"/>
<path d="M131.958 69.1311C132.076 70.0904 131.394 70.9636 130.434 71.0813C129.475 71.1991 128.602 70.5169 128.484 69.5577C128.366 68.5984 129.048 67.7252 130.008 67.6074C130.967 67.4896 131.84 68.1718 131.958 69.1311Z" fill="white" stroke="#20A3FB" stroke-width="0.5"/>
<path d="M171.661 64.2564C171.779 65.2156 171.097 66.0888 170.137 66.2066C169.178 66.3244 168.305 65.6422 168.187 64.6829C168.069 63.7236 168.752 62.8505 169.711 62.7327C170.67 62.6149 171.543 63.2971 171.661 64.2564Z" fill="white" stroke="#20A3FB" stroke-width="0.5"/>
<path d="M144.938 174.837C145.056 175.797 144.374 176.67 143.415 176.788C142.455 176.905 141.582 176.223 141.465 175.264C141.347 174.305 142.029 173.431 142.988 173.314C143.948 173.196 144.821 173.878 144.938 174.837Z" fill="white" stroke="#20A3FB" stroke-width="0.5"/>
<path d="M190.099 169.292C190.216 170.251 189.534 171.125 188.575 171.242C187.616 171.36 186.742 170.678 186.625 169.719C186.507 168.759 187.189 167.886 188.148 167.768C189.108 167.651 189.981 168.333 190.099 169.292Z" fill="white" stroke="#20A3FB" stroke-width="0.5"/>
<path d="M152.999 240.602C153.117 241.561 152.435 242.434 151.475 242.552C150.516 242.67 149.643 241.988 149.525 241.028C149.407 240.069 150.089 239.196 151.049 239.078C152.008 238.96 152.881 239.642 152.999 240.602Z" fill="white" stroke="#20A3FB" stroke-width="0.5"/>
<path d="M198.167 235.047C198.285 236.006 197.603 236.879 196.643 236.997C195.684 237.115 194.811 236.433 194.693 235.473C194.575 234.514 195.257 233.641 196.217 233.523C197.176 233.405 198.049 234.087 198.167 235.047Z" fill="white" stroke="#20A3FB" stroke-width="0.5"/>
<path d="M231.897 197.911C232.015 198.871 231.333 199.744 230.374 199.862C229.414 199.979 228.541 199.297 228.424 198.338C228.306 197.379 228.988 196.506 229.947 196.388C230.906 196.27 231.78 196.952 231.897 197.911Z" fill="white" stroke="#20A3FB" stroke-width="0.5"/>
<path d="M139.405 129.849C139.523 130.809 138.841 131.682 137.882 131.8C136.922 131.918 136.049 131.235 135.931 130.276C135.814 129.317 136.496 128.444 137.455 128.326C138.414 128.208 139.287 128.89 139.405 129.849Z" fill="white" stroke="#20A3FB" stroke-width="0.5"/>
<path d="M179.116 124.974C179.234 125.933 178.552 126.806 177.592 126.924C176.633 127.042 175.76 126.36 175.642 125.4C175.524 124.441 176.207 123.568 177.166 123.45C178.125 123.332 178.998 124.014 179.116 124.974Z" fill="white" stroke="#20A3FB" stroke-width="0.5"/>
<path d="M209.063 89.8892C209.181 90.8485 208.499 91.7216 207.54 91.8394C206.58 91.9572 205.707 91.275 205.59 90.3157C205.472 89.3564 206.154 88.4833 207.113 88.3655C208.073 88.2477 208.946 88.9299 209.063 89.8892Z" fill="white" stroke="#20A3FB" stroke-width="0.5"/>
<path d="M242.694 138.15C242.812 139.109 242.13 139.983 241.171 140.1C240.211 140.218 239.338 139.536 239.22 138.577C239.103 137.617 239.785 136.744 240.744 136.626C241.703 136.509 242.577 137.191 242.694 138.15Z" fill="white" stroke="#20A3FB" stroke-width="0.5"/>
</g>
<defs>
<clipPath id="clip0">
<path d="M0 0H368V264C368 266.209 366.209 268 364 268H0V0Z" fill="white"/>
</clipPath>
</defs>
</svg>
