<svg width="528" height="319" viewBox="0 0 528 319" fill="none" xmlns="http://www.w3.org/2000/svg">
<g filter="url(#filter0_d)">
<rect x="24" width="480" height="960" rx="6" fill="#1B1C1E"/>
<path d="M46.4169 30L42.2921 34.1248L41.4673 33.2999L44.7672 30L41.4673 26.7001L42.2921 25.8759L46.4169 30ZM46.4169 34.0834H52.2502V35.25H46.4169V34.0834Z" fill="white"/>
<path d="M72.6719 27.4929H74.1534C74.1087 25.8622 72.6669 24.679 70.5987 24.679C68.5554 24.679 66.9893 25.8473 66.9893 27.6023C66.9893 29.0192 68.0036 29.8494 69.6392 30.2919L70.8423 30.62C71.9311 30.9084 72.7713 31.2663 72.7713 32.1712C72.7713 33.1655 71.8217 33.8217 70.5142 33.8217C69.331 33.8217 68.3466 33.2947 68.2571 32.1861H66.7159C66.8153 34.0305 68.2422 35.169 70.5241 35.169C72.9155 35.169 74.2926 33.9112 74.2926 32.1861C74.2926 30.3516 72.657 29.6406 71.3643 29.3224L70.37 29.0639C69.5746 28.8601 68.5156 28.4872 68.5206 27.5128C68.5206 26.6477 69.3111 26.0064 70.5639 26.0064C71.7322 26.0064 72.5625 26.5533 72.6719 27.4929ZM79.3002 35.1541C80.9657 35.1541 82.144 34.3338 82.4821 33.0909L81.0751 32.8374C80.8066 33.5582 80.1603 33.9261 79.3152 33.9261C78.0424 33.9261 77.1873 33.1009 77.1475 31.6293H82.5765V31.1023C82.5765 28.343 80.926 27.2642 79.1958 27.2642C77.068 27.2642 75.666 28.8849 75.666 31.2315C75.666 33.603 77.0481 35.1541 79.3002 35.1541ZM77.1525 30.5156C77.2122 29.4318 77.9977 28.4922 79.2058 28.4922C80.3592 28.4922 81.1149 29.3473 81.1199 30.5156H77.1525ZM86.4482 35.169C87.7109 35.169 88.4219 34.5277 88.7053 33.956H88.7649V35H90.2166V29.929C90.2166 27.7067 88.4666 27.2642 87.2536 27.2642C85.8714 27.2642 84.5987 27.821 84.1016 29.2131L85.4986 29.5312C85.7173 28.9893 86.2741 28.4673 87.2734 28.4673C88.233 28.4673 88.7251 28.9695 88.7251 29.8345V29.8693C88.7251 30.4112 88.1683 30.4013 86.7962 30.5604C85.3494 30.7294 83.8679 31.1072 83.8679 32.8423C83.8679 34.3438 84.9964 35.169 86.4482 35.169ZM86.7713 33.9759C85.9311 33.9759 85.3246 33.598 85.3246 32.8622C85.3246 32.0668 86.0305 31.7834 86.8906 31.669C87.3729 31.6044 88.5163 31.4751 88.7301 31.2614V32.2457C88.7301 33.1506 88.0092 33.9759 86.7713 33.9759ZM92.1966 35H93.6831V30.3366C93.6831 29.3374 94.4537 28.6165 95.5076 28.6165C95.8159 28.6165 96.1639 28.6712 96.2832 28.706V27.2841C96.1341 27.2642 95.8407 27.2493 95.6518 27.2493C94.7569 27.2493 93.9913 27.7564 93.7129 28.5767H93.6333V27.3636H92.1966V35ZM100.513 35.1541C102.317 35.1541 103.486 34.0703 103.65 32.5838H102.203C102.014 33.4091 101.373 33.8963 100.523 33.8963C99.2649 33.8963 98.4545 32.8473 98.4545 31.1818C98.4545 29.5462 99.2798 28.517 100.523 28.517C101.467 28.517 102.044 29.1136 102.203 29.8295H103.65C103.491 28.2884 102.233 27.2642 100.498 27.2642C98.3452 27.2642 96.9531 28.8849 96.9531 31.2166C96.9531 33.5185 98.2955 35.1541 100.513 35.1541ZM106.726 30.4659C106.726 29.2479 107.497 28.5518 108.556 28.5518C109.58 28.5518 110.191 29.2031 110.191 30.3217V35H111.678V30.1428C111.678 28.2386 110.634 27.2642 109.063 27.2642C107.874 27.2642 107.159 27.7812 106.801 28.6065H106.706V24.8182H105.24V35H106.726V30.4659ZM121.001 27.3636H119.355V26.6776C119.355 26.0014 119.634 25.6335 120.359 25.6335C120.668 25.6335 120.886 25.7031 121.026 25.7479L121.374 24.5447C121.165 24.4652 120.732 24.3409 120.131 24.3409C118.923 24.3409 117.864 25.0469 117.864 26.4787V27.3636H116.685V28.5568H117.864V35H119.355V28.5568H121.001V27.3636ZM125.45 35.1541C127.603 35.1541 129.01 33.5781 129.01 31.2166C129.01 28.8402 127.603 27.2642 125.45 27.2642C123.298 27.2642 121.891 28.8402 121.891 31.2166C121.891 33.5781 123.298 35.1541 125.45 35.1541ZM125.455 33.9062C124.048 33.9062 123.392 32.6783 123.392 31.2116C123.392 29.75 124.048 28.5071 125.455 28.5071C126.852 28.5071 127.509 29.75 127.509 31.2116C127.509 32.6783 126.852 33.9062 125.455 33.9062ZM130.669 35H132.156V30.3366C132.156 29.3374 132.926 28.6165 133.98 28.6165C134.289 28.6165 134.637 28.6712 134.756 28.706V27.2841C134.607 27.2642 134.313 27.2493 134.124 27.2493C133.23 27.2493 132.464 27.7564 132.186 28.5767H132.106V27.3636H130.669V35ZM141.97 35.169C143.232 35.169 143.943 34.5277 144.227 33.956H144.286V35H145.738V29.929C145.738 27.7067 143.988 27.2642 142.775 27.2642C141.393 27.2642 140.12 27.821 139.623 29.2131L141.02 29.5312C141.239 28.9893 141.796 28.4673 142.795 28.4673C143.754 28.4673 144.247 28.9695 144.247 29.8345V29.8693C144.247 30.4112 143.69 30.4013 142.318 30.5604C140.871 30.7294 139.389 31.1072 139.389 32.8423C139.389 34.3438 140.518 35.169 141.97 35.169ZM142.293 33.9759C141.453 33.9759 140.846 33.598 140.846 32.8622C140.846 32.0668 141.552 31.7834 142.412 31.669C142.894 31.6044 144.038 31.4751 144.252 31.2614V32.2457C144.252 33.1506 143.531 33.9759 142.293 33.9759ZM154.64 35.1541C156.444 35.1541 157.613 34.0703 157.777 32.5838H156.33C156.141 33.4091 155.5 33.8963 154.65 33.8963C153.392 33.8963 152.581 32.8473 152.581 31.1818C152.581 29.5462 153.407 28.517 154.65 28.517C155.594 28.517 156.171 29.1136 156.33 29.8295H157.777C157.618 28.2884 156.36 27.2642 154.625 27.2642C152.472 27.2642 151.08 28.8849 151.08 31.2166C151.08 33.5185 152.422 35.1541 154.64 35.1541ZM162.583 35.1541C164.736 35.1541 166.143 33.5781 166.143 31.2166C166.143 28.8402 164.736 27.2642 162.583 27.2642C160.43 27.2642 159.023 28.8402 159.023 31.2166C159.023 33.5781 160.43 35.1541 162.583 35.1541ZM162.588 33.9062C161.181 33.9062 160.525 32.6783 160.525 31.2116C160.525 29.75 161.181 28.5071 162.588 28.5071C163.985 28.5071 164.641 29.75 164.641 31.2116C164.641 32.6783 163.985 33.9062 162.588 33.9062ZM167.802 35H169.289V30.2919C169.289 29.2628 170.009 28.5469 170.855 28.5469C171.68 28.5469 172.252 29.0938 172.252 29.924V35H173.733V30.1328C173.733 29.2131 174.295 28.5469 175.264 28.5469C176.05 28.5469 176.696 28.9844 176.696 30.0185V35H178.183V29.8793C178.183 28.1342 177.208 27.2642 175.826 27.2642C174.727 27.2642 173.902 27.7912 173.534 28.6065H173.455C173.122 27.7713 172.421 27.2642 171.401 27.2642C170.392 27.2642 169.642 27.7663 169.323 28.6065H169.229V27.3636H167.802V35ZM180.175 35H181.662V30.2919C181.662 29.2628 182.382 28.5469 183.228 28.5469C184.053 28.5469 184.625 29.0938 184.625 29.924V35H186.106V30.1328C186.106 29.2131 186.668 28.5469 187.637 28.5469C188.423 28.5469 189.069 28.9844 189.069 30.0185V35H190.556V29.8793C190.556 28.1342 189.581 27.2642 188.199 27.2642C187.1 27.2642 186.275 27.7912 185.907 28.6065H185.828C185.495 27.7713 184.794 27.2642 183.775 27.2642C182.765 27.2642 182.015 27.7663 181.696 28.6065H181.602V27.3636H180.175V35ZM194.77 35.169C196.033 35.169 196.744 34.5277 197.028 33.956H197.087V35H198.539V29.929C198.539 27.7067 196.789 27.2642 195.576 27.2642C194.194 27.2642 192.921 27.821 192.424 29.2131L193.821 29.5312C194.04 28.9893 194.596 28.4673 195.596 28.4673C196.555 28.4673 197.047 28.9695 197.047 29.8345V29.8693C197.047 30.4112 196.491 30.4013 195.118 30.5604C193.672 30.7294 192.19 31.1072 192.19 32.8423C192.19 34.3438 193.319 35.169 194.77 35.169ZM195.094 33.9759C194.253 33.9759 193.647 33.598 193.647 32.8622C193.647 32.0668 194.353 31.7834 195.213 31.669C195.695 31.6044 196.839 31.4751 197.052 31.2614V32.2457C197.052 33.1506 196.331 33.9759 195.094 33.9759ZM202.005 30.4659C202.005 29.2479 202.751 28.5518 203.785 28.5518C204.794 28.5518 205.406 29.2131 205.406 30.3217V35H206.892V30.1428C206.892 28.2536 205.853 27.2642 204.292 27.2642C203.144 27.2642 202.393 27.7962 202.04 28.6065H201.946V27.3636H200.519V35H202.005V30.4659ZM211.745 35.1491C213.137 35.1491 213.684 34.299 213.952 33.8118H214.076V35H215.528V24.8182H214.042V28.6016H213.952C213.684 28.1293 213.176 27.2642 211.755 27.2642C209.91 27.2642 208.553 28.7209 208.553 31.1967C208.553 33.6676 209.89 35.1491 211.745 35.1491ZM212.073 33.8814C210.745 33.8814 210.054 32.7131 210.054 31.1818C210.054 29.6655 210.73 28.527 212.073 28.527C213.37 28.527 214.066 29.5859 214.066 31.1818C214.066 32.7876 213.355 33.8814 212.073 33.8814Z" fill="#87888B"/>
<g filter="url(#filter1_d)">
<rect x="454" y="20" width="34" height="20" rx="4" fill="white" fill-opacity="0.07"/>
<path d="M463 28H465V27.25C465 26.9039 465.103 26.5655 465.295 26.2778C465.487 25.99 465.761 25.7657 466.08 25.6332C466.4 25.5008 466.752 25.4661 467.091 25.5336C467.431 25.6012 467.743 25.7678 467.987 26.0126C468.232 26.2573 468.399 26.5691 468.466 26.9086C468.534 27.2481 468.499 27.5999 468.367 27.9197C468.234 28.2395 468.01 28.5128 467.722 28.7051C467.434 28.8974 467.096 29 466.75 29H466V31H466.75C467.096 31 467.434 31.1026 467.722 31.2949C468.01 31.4872 468.234 31.7605 468.367 32.0803C468.499 32.4001 468.534 32.7519 468.466 33.0914C468.399 33.4309 468.232 33.7427 467.987 33.9874C467.743 34.2322 467.431 34.3989 467.091 34.4664C466.752 34.5339 466.4 34.4992 466.08 34.3668C465.761 34.2343 465.487 34.01 465.295 33.7222C465.103 33.4345 465 33.0961 465 32.75V32H463V32.75C463 33.0961 462.897 33.4345 462.705 33.7222C462.513 34.01 462.239 34.2343 461.92 34.3668C461.6 34.4992 461.248 34.5339 460.909 34.4664C460.569 34.3989 460.257 34.2322 460.013 33.9874C459.768 33.7427 459.601 33.4309 459.534 33.0914C459.466 32.7519 459.501 32.4001 459.633 32.0803C459.766 31.7605 459.99 31.4872 460.278 31.2949C460.566 31.1026 460.904 31 461.25 31H462V29H461.25C460.904 29 460.566 28.8974 460.278 28.7051C459.99 28.5128 459.766 28.2395 459.633 27.9197C459.501 27.5999 459.466 27.2481 459.534 26.9086C459.601 26.5691 459.768 26.2573 460.013 26.0126C460.257 25.7678 460.569 25.6012 460.909 25.5336C461.248 25.4661 461.6 25.5008 461.92 25.6332C462.239 25.7657 462.513 25.99 462.705 26.2778C462.897 26.5655 463 26.9039 463 27.25V28ZM462 28V27.25C462 27.1017 461.956 26.9567 461.874 26.8333C461.791 26.71 461.674 26.6139 461.537 26.5571C461.4 26.5003 461.249 26.4855 461.104 26.5144C460.958 26.5434 460.825 26.6148 460.72 26.7197C460.615 26.8246 460.543 26.9582 460.514 27.1037C460.485 27.2492 460.5 27.4 460.557 27.537C460.614 27.6741 460.71 27.7912 460.833 27.8736C460.957 27.956 461.102 28 461.25 28H462ZM462 32H461.25C461.102 32 460.957 32.044 460.833 32.1264C460.71 32.2088 460.614 32.3259 460.557 32.463C460.5 32.6 460.485 32.7508 460.514 32.8963C460.543 33.0418 460.615 33.1754 460.72 33.2803C460.825 33.3852 460.958 33.4567 461.104 33.4856C461.249 33.5145 461.4 33.4997 461.537 33.4429C461.674 33.3861 461.791 33.29 461.874 33.1667C461.956 33.0433 462 32.8983 462 32.75V32ZM466 28H466.75C466.898 28 467.043 27.956 467.167 27.8736C467.29 27.7912 467.386 27.6741 467.443 27.537C467.5 27.4 467.515 27.2492 467.486 27.1037C467.457 26.9582 467.385 26.8246 467.28 26.7197C467.175 26.6148 467.042 26.5434 466.896 26.5144C466.751 26.4855 466.6 26.5003 466.463 26.5571C466.326 26.6139 466.209 26.71 466.126 26.8333C466.044 26.9567 466 27.1017 466 27.25V28ZM466 32V32.75C466 32.8983 466.044 33.0433 466.126 33.1667C466.209 33.29 466.326 33.3861 466.463 33.4429C466.6 33.4997 466.751 33.5145 466.896 33.4856C467.042 33.4567 467.175 33.3852 467.28 33.2803C467.385 33.1754 467.457 33.0418 467.486 32.8963C467.515 32.7508 467.5 32.6 467.443 32.463C467.386 32.3259 467.29 32.2088 467.167 32.1264C467.043 32.044 466.898 32 466.75 32H466ZM463 29V31H465V29H463Z" fill="white"/>
<path d="M474.974 34.5H476.291V31.7855L477.322 30.6009L480.143 34.5H481.729L478.196 29.7017L481.716 25.7727H480.058L476.398 29.9403H476.291V25.7727H474.974V34.5Z" fill="white"/>
</g>
<line x1="24" y1="59.5" x2="504" y2="59.5" stroke="#262729"/>
<rect x="24" y="68.0001" width="480" height="44" fill="#262729"/>
<path d="M67.1186 95.0001H68.6548V91.4205H70.7429C73.1044 91.4205 74.2727 89.9937 74.2727 88.1144C74.2727 86.2401 73.1143 84.8182 70.7479 84.8182H67.1186V95.0001ZM68.6548 90.118V86.1357H70.5838C72.1051 86.1357 72.7266 86.961 72.7266 88.1144C72.7266 89.2678 72.1051 90.118 70.6037 90.118H68.6548ZM75.9544 95.0001H77.4409V87.3637H75.9544V95.0001ZM76.7051 86.1854C77.2172 86.1854 77.6447 85.7877 77.6447 85.3005C77.6447 84.8133 77.2172 84.4106 76.7051 84.4106C76.188 84.4106 75.7654 84.8133 75.7654 85.3005C75.7654 85.7877 76.188 86.1854 76.7051 86.1854ZM80.9272 90.466C80.9272 89.2479 81.6729 88.5519 82.707 88.5519C83.7163 88.5519 84.3278 89.2131 84.3278 90.3218V95.0001H85.8143V90.1428C85.8143 88.2536 84.7752 87.2643 83.2141 87.2643C82.0657 87.2643 81.315 87.7962 80.962 88.6066H80.8675V87.3637H79.4407V95.0001H80.9272V90.466ZM97.1855 87.493H98.6671C98.6223 85.8623 97.1806 84.679 95.1124 84.679C93.0691 84.679 91.503 85.8474 91.503 87.6023C91.503 89.0192 92.5172 89.8495 94.1529 90.292L95.356 90.6201C96.4448 90.9084 97.285 91.2664 97.285 92.1712C97.285 93.1655 96.3354 93.8218 95.0279 93.8218C93.8446 93.8218 92.8603 93.2948 92.7708 92.1861H91.2296C91.329 94.0306 92.7559 95.1691 95.0378 95.1691C97.4292 95.1691 98.8063 93.9113 98.8063 92.1861C98.8063 90.3516 97.1706 89.6407 95.878 89.3225L94.8837 89.064C94.0882 88.8601 93.0293 88.4873 93.0343 87.5128C93.0343 86.6478 93.8248 86.0065 95.0776 86.0065C96.2459 86.0065 97.0762 86.5533 97.1855 87.493ZM102.009 90.466C102.009 89.2479 102.755 88.5519 103.789 88.5519C104.798 88.5519 105.41 89.2131 105.41 90.3218V95.0001H106.896V90.1428C106.896 88.2536 105.857 87.2643 104.296 87.2643C103.148 87.2643 102.397 87.7962 102.044 88.6066H101.95V87.3637H100.523V95.0001H102.009V90.466ZM108.89 95.0001H110.376V87.3637H108.89V95.0001ZM109.641 86.1854C110.153 86.1854 110.58 85.7877 110.58 85.3005C110.58 84.8133 110.153 84.4106 109.641 84.4106C109.124 84.4106 108.701 84.8133 108.701 85.3005C108.701 85.7877 109.124 86.1854 109.641 86.1854ZM112.376 97.8637H113.863V93.8119H113.952C114.221 94.2991 114.768 95.1492 116.16 95.1492C118.009 95.1492 119.351 93.6677 119.351 91.1968C119.351 88.7209 117.989 87.2643 116.145 87.2643C114.728 87.2643 114.216 88.1293 113.952 88.6016H113.828V87.3637H112.376V97.8637ZM113.833 91.1819C113.833 89.586 114.529 88.527 115.827 88.527C117.174 88.527 117.85 89.6655 117.85 91.1819C117.85 92.7131 117.154 93.8815 115.827 93.8815C114.549 93.8815 113.833 92.7877 113.833 91.1819ZM121.017 97.8637H122.503V93.8119H122.593C122.861 94.2991 123.408 95.1492 124.8 95.1492C126.65 95.1492 127.992 93.6677 127.992 91.1968C127.992 88.7209 126.63 87.2643 124.785 87.2643C123.368 87.2643 122.856 88.1293 122.593 88.6016H122.469V87.3637H121.017V97.8637ZM122.474 91.1819C122.474 89.586 123.17 88.527 124.467 88.527C125.814 88.527 126.491 89.6655 126.491 91.1819C126.491 92.7131 125.795 93.8815 124.467 93.8815C123.189 93.8815 122.474 92.7877 122.474 91.1819ZM132.949 95.1542C134.614 95.1542 135.792 94.3339 136.131 93.091L134.724 92.8374C134.455 93.5583 133.809 93.9262 132.964 93.9262C131.691 93.9262 130.836 93.1009 130.796 91.6293H136.225V91.1023C136.225 88.3431 134.574 87.2643 132.844 87.2643C130.716 87.2643 129.314 88.885 129.314 91.2316C129.314 93.603 130.697 95.1542 132.949 95.1542ZM130.801 90.5157C130.861 89.4319 131.646 88.4922 132.854 88.4922C134.008 88.4922 134.763 89.3474 134.768 90.5157H130.801ZM141.439 87.3637H139.873V85.5342H138.386V87.3637H137.268V88.5569H138.386V93.0661C138.381 94.4532 139.44 95.1244 140.614 95.0995C141.086 95.0945 141.404 95.005 141.578 94.9404L141.31 93.7124C141.21 93.7323 141.026 93.777 140.788 93.777C140.305 93.777 139.873 93.618 139.873 92.7579V88.5569H141.439V87.3637Z" fill="white"/>
<g clip-path="url(#clip0)">
<path d="M53.0166 88.9337L52.1912 89.7586L51.7788 89.3462L49.3043 91.8207L48.8919 93.8833L48.0665 94.7082L45.592 92.2331L42.7045 95.1206L41.8796 94.2957L44.7671 91.4082L42.2921 88.9337L43.1169 88.1083L45.1801 87.6959L47.6546 85.2214L47.2422 84.809L48.0671 83.9836L53.0166 88.9337Z" fill="#87888B"/>
</g>
<path d="M67.9787 139L68.9134 136.305H72.8906L73.8203 139H75.451L71.7869 128.818H70.0121L66.348 139H67.9787ZM69.3608 135.013L70.8622 130.668H70.9418L72.4432 135.013H69.3608ZM79.5376 139.149C80.9297 139.149 81.4766 138.299 81.745 137.812H81.8693V139H83.321V128.818H81.8345V132.602H81.745C81.4766 132.129 80.9695 131.264 79.5476 131.264C77.7031 131.264 76.3459 132.721 76.3459 135.197C76.3459 137.668 77.6832 139.149 79.5376 139.149ZM79.8658 137.881C78.5384 137.881 77.8473 136.713 77.8473 135.182C77.8473 133.666 78.5234 132.527 79.8658 132.527C81.1634 132.527 81.8594 133.586 81.8594 135.182C81.8594 136.788 81.1484 137.881 79.8658 137.881ZM88.3013 139.149C89.6934 139.149 90.2402 138.299 90.5087 137.812H90.633V139H92.0847V128.818H90.5982V132.602H90.5087C90.2402 132.129 89.7331 131.264 88.3113 131.264C86.4668 131.264 85.1096 132.721 85.1096 135.197C85.1096 137.668 86.4469 139.149 88.3013 139.149ZM88.6294 137.881C87.302 137.881 86.611 136.713 86.611 135.182C86.611 133.666 87.2871 132.527 88.6294 132.527C89.927 132.527 90.623 133.586 90.623 135.182C90.623 136.788 89.9121 137.881 88.6294 137.881ZM103.584 131.493H105.066C105.021 129.862 103.579 128.679 101.511 128.679C99.4675 128.679 97.9015 129.847 97.9015 131.602C97.9015 133.019 98.9157 133.849 100.551 134.292L101.754 134.62C102.843 134.908 103.683 135.266 103.683 136.171C103.683 137.166 102.734 137.822 101.426 137.822C100.243 137.822 99.2587 137.295 99.1692 136.186H97.628C97.7275 138.031 99.1543 139.169 101.436 139.169C103.828 139.169 105.205 137.911 105.205 136.186C105.205 134.352 103.569 133.641 102.276 133.323L101.282 133.064C100.487 132.86 99.4277 132.487 99.4327 131.513C99.4327 130.648 100.223 130.006 101.476 130.006C102.644 130.006 103.475 130.553 103.584 131.493ZM108.408 134.466C108.408 133.248 109.153 132.552 110.188 132.552C111.197 132.552 111.808 133.213 111.808 134.322V139H113.295V134.143C113.295 132.254 112.256 131.264 110.695 131.264C109.546 131.264 108.795 131.796 108.442 132.607H108.348V131.364H106.921V139H108.408V134.466ZM115.288 139H116.775V131.364H115.288V139ZM116.039 130.185C116.551 130.185 116.979 129.788 116.979 129.3C116.979 128.813 116.551 128.411 116.039 128.411C115.522 128.411 115.099 128.813 115.099 129.3C115.099 129.788 115.522 130.185 116.039 130.185ZM118.775 141.864H120.261V137.812H120.351C120.619 138.299 121.166 139.149 122.558 139.149C124.407 139.149 125.75 137.668 125.75 135.197C125.75 132.721 124.388 131.264 122.543 131.264C121.126 131.264 120.614 132.129 120.351 132.602H120.226V131.364H118.775V141.864ZM120.231 135.182C120.231 133.586 120.927 132.527 122.225 132.527C123.572 132.527 124.248 133.666 124.248 135.182C124.248 136.713 123.552 137.881 122.225 137.881C120.947 137.881 120.231 136.788 120.231 135.182ZM127.415 141.864H128.902V137.812H128.991C129.26 138.299 129.807 139.149 131.199 139.149C133.048 139.149 134.39 137.668 134.39 135.197C134.39 132.721 133.028 131.264 131.184 131.264C129.767 131.264 129.255 132.129 128.991 132.602H128.867V131.364H127.415V141.864ZM128.872 135.182C128.872 133.586 129.568 132.527 130.866 132.527C132.213 132.527 132.889 133.666 132.889 135.182C132.889 136.713 132.193 137.881 130.866 137.881C129.588 137.881 128.872 136.788 128.872 135.182ZM139.347 139.154C141.013 139.154 142.191 138.334 142.529 137.091L141.122 136.837C140.854 137.558 140.207 137.926 139.362 137.926C138.089 137.926 137.234 137.101 137.194 135.629H142.623V135.102C142.623 132.343 140.973 131.264 139.243 131.264C137.115 131.264 135.713 132.885 135.713 135.232C135.713 137.603 137.095 139.154 139.347 139.154ZM137.199 134.516C137.259 133.432 138.045 132.492 139.253 132.492C140.406 132.492 141.162 133.347 141.167 134.516H137.199ZM147.837 131.364H146.271V129.534H144.785V131.364H143.666V132.557H144.785V137.066C144.78 138.453 145.839 139.124 147.012 139.099C147.484 139.095 147.803 139.005 147.977 138.94L147.708 137.712C147.609 137.732 147.425 137.777 147.186 137.777C146.704 137.777 146.271 137.618 146.271 136.758V132.557H147.837V131.364ZM156.602 139C159.705 139 161.499 137.076 161.499 133.894C161.499 130.727 159.705 128.818 156.707 128.818H153.306V139H156.602ZM154.842 137.658V130.161H156.612C158.839 130.161 159.988 131.493 159.988 133.894C159.988 136.305 158.839 137.658 156.518 137.658H154.842ZM166.581 139.154C168.247 139.154 169.425 138.334 169.763 137.091L168.356 136.837C168.088 137.558 167.442 137.926 166.596 137.926C165.324 137.926 164.469 137.101 164.429 135.629H169.858V135.102C169.858 132.343 168.207 131.264 166.477 131.264C164.349 131.264 162.947 132.885 162.947 135.232C162.947 137.603 164.329 139.154 166.581 139.154ZM164.434 134.516C164.493 133.432 165.279 132.492 166.487 132.492C167.64 132.492 168.396 133.347 168.401 134.516H164.434ZM177.229 133.228C176.921 132.04 175.991 131.264 174.341 131.264C172.616 131.264 171.393 132.174 171.393 133.526C171.393 134.61 172.049 135.331 173.481 135.649L174.773 135.933C175.509 136.097 175.852 136.425 175.852 136.902C175.852 137.494 175.221 137.956 174.246 137.956C173.357 137.956 172.785 137.573 172.606 136.823L171.169 137.041C171.418 138.394 172.541 139.154 174.256 139.154C176.101 139.154 177.379 138.175 177.379 136.793C177.379 135.714 176.692 135.048 175.29 134.724L174.077 134.446C173.237 134.247 172.874 133.964 172.879 133.447C172.874 132.86 173.511 132.443 174.356 132.443C175.281 132.443 175.708 132.955 175.882 133.467L177.229 133.228ZM182.23 139.154C184.034 139.154 185.203 138.07 185.367 136.584H183.92C183.731 137.409 183.09 137.896 182.24 137.896C180.982 137.896 180.171 136.847 180.171 135.182C180.171 133.546 180.997 132.517 182.24 132.517C183.184 132.517 183.761 133.114 183.92 133.83H185.367C185.208 132.288 183.95 131.264 182.215 131.264C180.062 131.264 178.67 132.885 178.67 135.217C178.67 137.519 180.012 139.154 182.23 139.154ZM186.956 139H188.443V134.337C188.443 133.337 189.213 132.617 190.267 132.617C190.576 132.617 190.924 132.671 191.043 132.706V131.284C190.894 131.264 190.6 131.249 190.412 131.249C189.517 131.249 188.751 131.756 188.473 132.577H188.393V131.364H186.956V139ZM192.329 139H193.816V131.364H192.329V139ZM193.08 130.185C193.592 130.185 194.02 129.788 194.02 129.3C194.02 128.813 193.592 128.411 193.08 128.411C192.563 128.411 192.14 128.813 192.14 129.3C192.14 129.788 192.563 130.185 193.08 130.185ZM195.816 141.864H197.302V137.812H197.392C197.66 138.299 198.207 139.149 199.599 139.149C201.449 139.149 202.791 137.668 202.791 135.197C202.791 132.721 201.429 131.264 199.584 131.264C198.167 131.264 197.655 132.129 197.392 132.602H197.267V131.364H195.816V141.864ZM197.272 135.182C197.272 133.586 197.968 132.527 199.266 132.527C200.613 132.527 201.289 133.666 201.289 135.182C201.289 136.713 200.593 137.881 199.266 137.881C197.988 137.881 197.272 136.788 197.272 135.182ZM208.021 131.364H206.455V129.534H204.968V131.364H203.85V132.557H204.968V137.066C204.963 138.453 206.022 139.124 207.196 139.099C207.668 139.095 207.986 139.005 208.16 138.94L207.892 137.712C207.792 137.732 207.608 137.777 207.37 137.777C206.887 137.777 206.455 137.618 206.455 136.758V132.557H208.021V131.364ZM209.665 139H211.152V131.364H209.665V139ZM210.416 130.185C210.928 130.185 211.356 129.788 211.356 129.3C211.356 128.813 210.928 128.411 210.416 128.411C209.899 128.411 209.476 128.813 209.476 129.3C209.476 129.788 209.899 130.185 210.416 130.185ZM216.368 139.154C218.521 139.154 219.928 137.578 219.928 135.217C219.928 132.84 218.521 131.264 216.368 131.264C214.216 131.264 212.809 132.84 212.809 135.217C212.809 137.578 214.216 139.154 216.368 139.154ZM216.373 137.906C214.966 137.906 214.31 136.678 214.31 135.212C214.31 133.75 214.966 132.507 216.373 132.507C217.77 132.507 218.426 133.75 218.426 135.212C218.426 136.678 217.77 137.906 216.373 137.906ZM223.074 134.466C223.074 133.248 223.819 132.552 224.854 132.552C225.863 132.552 226.474 133.213 226.474 134.322V139H227.961V134.143C227.961 132.254 226.922 131.264 225.361 131.264C224.212 131.264 223.461 131.796 223.108 132.607H223.014V131.364H221.587V139H223.074V134.466Z" fill="white"/>
<path d="M41.75 129.333H52.25V130.5H41.75V129.333ZM41.75 138.083H49.9167V139.25H41.75V138.083ZM41.75 135.167H52.25V136.333H41.75V135.167ZM41.75 132.25H49.9167V133.417H41.75V132.25Z" fill="#87888B"/>
<path d="M75.5753 176.129C75.2273 173.952 73.522 172.679 71.3693 172.679C68.7344 172.679 66.7905 174.653 66.7905 177.909C66.7905 181.166 68.7244 183.139 71.3693 183.139C73.6065 183.139 75.2422 181.737 75.5753 179.724L74.0241 179.719C73.7607 181.021 72.6669 181.737 71.3793 181.737C69.6342 181.737 68.3168 180.4 68.3168 177.909C68.3168 175.438 69.6293 174.081 71.3842 174.081C72.6818 174.081 73.7706 174.812 74.0241 176.129H75.5753ZM80.5108 183.154C82.6635 183.154 84.0705 181.578 84.0705 179.217C84.0705 176.84 82.6635 175.264 80.5108 175.264C78.3581 175.264 76.9512 176.84 76.9512 179.217C76.9512 181.578 78.3581 183.154 80.5108 183.154ZM80.5158 181.906C79.1088 181.906 78.4526 180.678 78.4526 179.212C78.4526 177.75 79.1088 176.507 80.5158 176.507C81.9128 176.507 82.5691 177.75 82.5691 179.212C82.5691 180.678 81.9128 181.906 80.5158 181.906ZM85.7298 185.864H87.2163V181.812H87.3058C87.5742 182.299 88.1211 183.149 89.5131 183.149C91.3626 183.149 92.7049 181.668 92.7049 179.197C92.7049 176.721 91.3427 175.264 89.4982 175.264C88.0813 175.264 87.5692 176.129 87.3058 176.602H87.1815V175.364H85.7298V185.864ZM87.1864 179.182C87.1864 177.586 87.8825 176.527 89.18 176.527C90.5273 176.527 91.2035 177.666 91.2035 179.182C91.2035 180.713 90.5075 181.881 89.18 181.881C87.9023 181.881 87.1864 180.788 87.1864 179.182ZM95.0366 185.844C96.2646 185.844 97.0451 185.202 97.4826 184.019L100.64 175.379L99.0337 175.364L97.0998 181.29H97.0202L95.0863 175.364H93.4954L96.2894 183.099L96.1055 183.607C95.7276 184.596 95.1957 184.685 94.3803 184.462L94.0224 185.68C94.2013 185.764 94.5891 185.844 95.0366 185.844ZM114.321 176.129C113.973 173.952 112.268 172.679 110.115 172.679C107.48 172.679 105.537 174.653 105.537 177.909C105.537 181.166 107.471 183.139 110.115 183.139C112.353 183.139 113.988 181.737 114.321 179.724L112.77 179.719C112.507 181.021 111.413 181.737 110.125 181.737C108.38 181.737 107.063 180.4 107.063 177.909C107.063 175.438 108.375 174.081 110.13 174.081C111.428 174.081 112.517 174.812 112.77 176.129H114.321ZM119.257 183.154C121.41 183.154 122.817 181.578 122.817 179.217C122.817 176.84 121.41 175.264 119.257 175.264C117.104 175.264 115.697 176.84 115.697 179.217C115.697 181.578 117.104 183.154 119.257 183.154ZM119.262 181.906C117.855 181.906 117.199 180.678 117.199 179.212C117.199 177.75 117.855 176.507 119.262 176.507C120.659 176.507 121.315 177.75 121.315 179.212C121.315 180.678 120.659 181.906 119.262 181.906ZM127.335 183.149C128.727 183.149 129.273 182.299 129.542 181.812H129.666V183H131.118V172.818H129.631V176.602H129.542C129.273 176.129 128.766 175.264 127.344 175.264C125.5 175.264 124.143 176.721 124.143 179.197C124.143 181.668 125.48 183.149 127.335 183.149ZM127.663 181.881C126.335 181.881 125.644 180.713 125.644 179.182C125.644 177.666 126.32 176.527 127.663 176.527C128.96 176.527 129.656 177.586 129.656 179.182C129.656 180.788 128.945 181.881 127.663 181.881ZM136.531 183.154C138.196 183.154 139.374 182.334 139.713 181.091L138.306 180.837C138.037 181.558 137.391 181.926 136.546 181.926C135.273 181.926 134.418 181.101 134.378 179.629H139.807V179.102C139.807 176.343 138.156 175.264 136.426 175.264C134.298 175.264 132.896 176.885 132.896 179.232C132.896 181.603 134.279 183.154 136.531 183.154ZM134.383 178.516C134.443 177.432 135.228 176.492 136.436 176.492C137.59 176.492 138.345 177.347 138.35 178.516H134.383Z" fill="white"/>
<path d="M43.5 173.333V175.667H50.5V173.333H51.6707C51.9904 173.333 52.25 173.593 52.25 173.913V183.254C52.2498 183.408 52.1888 183.555 52.0802 183.664C51.9716 183.772 51.8243 183.833 51.6707 183.833H42.3292C42.1757 183.833 42.0284 183.772 41.9198 183.664C41.8112 183.555 41.7502 183.408 41.75 183.254V173.913C41.75 173.593 42.0096 173.333 42.3292 173.333H43.5ZM44.6667 172.167H49.3333V174.5H44.6667V172.167Z" fill="#87888B"/>
<g filter="url(#filter2_d)">
<rect x="454" y="168" width="34" height="20" rx="4" fill="white" fill-opacity="0.07"/>
<path d="M463 176H465V175.25C465 174.904 465.103 174.566 465.295 174.278C465.487 173.99 465.761 173.766 466.08 173.633C466.4 173.501 466.752 173.466 467.091 173.534C467.431 173.601 467.743 173.768 467.987 174.013C468.232 174.257 468.399 174.569 468.466 174.909C468.534 175.248 468.499 175.6 468.367 175.92C468.234 176.24 468.01 176.513 467.722 176.705C467.434 176.897 467.096 177 466.75 177H466V179H466.75C467.096 179 467.434 179.103 467.722 179.295C468.01 179.487 468.234 179.761 468.367 180.08C468.499 180.4 468.534 180.752 468.466 181.091C468.399 181.431 468.232 181.743 467.987 181.987C467.743 182.232 467.431 182.399 467.091 182.466C466.752 182.534 466.4 182.499 466.08 182.367C465.761 182.234 465.487 182.01 465.295 181.722C465.103 181.435 465 181.096 465 180.75V180H463V180.75C463 181.096 462.897 181.435 462.705 181.722C462.513 182.01 462.239 182.234 461.92 182.367C461.6 182.499 461.248 182.534 460.909 182.466C460.569 182.399 460.257 182.232 460.013 181.987C459.768 181.743 459.601 181.431 459.534 181.091C459.466 180.752 459.501 180.4 459.633 180.08C459.766 179.761 459.99 179.487 460.278 179.295C460.566 179.103 460.904 179 461.25 179H462V177H461.25C460.904 177 460.566 176.897 460.278 176.705C459.99 176.513 459.766 176.24 459.633 175.92C459.501 175.6 459.466 175.248 459.534 174.909C459.601 174.569 459.768 174.257 460.013 174.013C460.257 173.768 460.569 173.601 460.909 173.534C461.248 173.466 461.6 173.501 461.92 173.633C462.239 173.766 462.513 173.99 462.705 174.278C462.897 174.566 463 174.904 463 175.25V176ZM462 176V175.25C462 175.102 461.956 174.957 461.874 174.833C461.791 174.71 461.674 174.614 461.537 174.557C461.4 174.5 461.249 174.486 461.104 174.514C460.958 174.543 460.825 174.615 460.72 174.72C460.615 174.825 460.543 174.958 460.514 175.104C460.485 175.249 460.5 175.4 460.557 175.537C460.614 175.674 460.71 175.791 460.833 175.874C460.957 175.956 461.102 176 461.25 176H462ZM462 180H461.25C461.102 180 460.957 180.044 460.833 180.126C460.71 180.209 460.614 180.326 460.557 180.463C460.5 180.6 460.485 180.751 460.514 180.896C460.543 181.042 460.615 181.176 460.72 181.28C460.825 181.385 460.958 181.457 461.104 181.486C461.249 181.515 461.4 181.5 461.537 181.443C461.674 181.386 461.791 181.29 461.874 181.167C461.956 181.043 462 180.898 462 180.75V180ZM466 176H466.75C466.898 176 467.043 175.956 467.167 175.874C467.29 175.791 467.386 175.674 467.443 175.537C467.5 175.4 467.515 175.249 467.486 175.104C467.457 174.958 467.385 174.825 467.28 174.72C467.175 174.615 467.042 174.543 466.896 174.514C466.751 174.486 466.6 174.5 466.463 174.557C466.326 174.614 466.209 174.71 466.126 174.833C466.044 174.957 466 175.102 466 175.25V176ZM466 180V180.75C466 180.898 466.044 181.043 466.126 181.167C466.209 181.29 466.326 181.386 466.463 181.443C466.6 181.5 466.751 181.515 466.896 181.486C467.042 181.457 467.175 181.385 467.28 181.28C467.385 181.176 467.457 181.042 467.486 180.896C467.515 180.751 467.5 180.6 467.443 180.463C467.386 180.326 467.29 180.209 467.167 180.126C467.043 180.044 466.898 180 466.75 180H466ZM463 177V179H465V177H463Z" fill="white"/>
<path d="M481.795 176.611C481.497 174.744 480.035 173.653 478.19 173.653C475.932 173.653 474.265 175.345 474.265 178.136C474.265 180.928 475.923 182.619 478.19 182.619C480.108 182.619 481.51 181.418 481.795 179.692L480.466 179.688C480.24 180.804 479.302 181.418 478.199 181.418C476.703 181.418 475.574 180.271 475.574 178.136C475.574 176.019 476.699 174.855 478.203 174.855C479.315 174.855 480.248 175.482 480.466 176.611H481.795Z" fill="white"/>
</g>
<path d="M75.5753 220.129C75.2273 217.952 73.522 216.679 71.3693 216.679C68.7344 216.679 66.7905 218.653 66.7905 221.909C66.7905 225.166 68.7244 227.139 71.3693 227.139C73.6065 227.139 75.2422 225.737 75.5753 223.724L74.0241 223.719C73.7607 225.021 72.6669 225.737 71.3793 225.737C69.6342 225.737 68.3168 224.4 68.3168 221.909C68.3168 219.438 69.6293 218.081 71.3842 218.081C72.6818 218.081 73.7706 218.812 74.0241 220.129H75.5753ZM80.5108 227.154C82.6635 227.154 84.0705 225.578 84.0705 223.217C84.0705 220.84 82.6635 219.264 80.5108 219.264C78.3581 219.264 76.9512 220.84 76.9512 223.217C76.9512 225.578 78.3581 227.154 80.5108 227.154ZM80.5158 225.906C79.1088 225.906 78.4526 224.678 78.4526 223.212C78.4526 221.75 79.1088 220.507 80.5158 220.507C81.9128 220.507 82.5691 221.75 82.5691 223.212C82.5691 224.678 81.9128 225.906 80.5158 225.906ZM85.7298 229.864H87.2163V225.812H87.3058C87.5742 226.299 88.1211 227.149 89.5131 227.149C91.3626 227.149 92.7049 225.668 92.7049 223.197C92.7049 220.721 91.3427 219.264 89.4982 219.264C88.0813 219.264 87.5692 220.129 87.3058 220.602H87.1815V219.364H85.7298V229.864ZM87.1864 223.182C87.1864 221.586 87.8825 220.527 89.18 220.527C90.5273 220.527 91.2035 221.666 91.2035 223.182C91.2035 224.713 90.5075 225.881 89.18 225.881C87.9023 225.881 87.1864 224.788 87.1864 223.182ZM95.0366 229.844C96.2646 229.844 97.0451 229.202 97.4826 228.019L100.64 219.379L99.0337 219.364L97.0998 225.29H97.0202L95.0863 219.364H93.4954L96.2894 227.099L96.1055 227.607C95.7276 228.596 95.1957 228.685 94.3803 228.462L94.0224 229.68C94.2013 229.764 94.5891 229.844 95.0366 229.844ZM105.865 227H112.015V225.678H107.401V216.818H105.865V227ZM113.648 227H115.134V219.364H113.648V227ZM114.398 218.185C114.911 218.185 115.338 217.788 115.338 217.3C115.338 216.813 114.911 216.411 114.398 216.411C113.881 216.411 113.459 216.813 113.459 217.3C113.459 217.788 113.881 218.185 114.398 218.185ZM118.621 222.466C118.621 221.248 119.366 220.552 120.4 220.552C121.41 220.552 122.021 221.213 122.021 222.322V227H123.508V222.143C123.508 220.254 122.469 219.264 120.907 219.264C119.759 219.264 119.008 219.796 118.655 220.607H118.561V219.364H117.134V227H118.621V222.466ZM125.501 227H126.988V224.291L127.729 223.55L130.324 227H132.148L128.847 222.64L131.939 219.364H130.16L127.117 222.595H126.988V216.818H125.501V227Z" fill="white"/>
<path d="M47.5833 223.167H46.4167C45.4598 223.166 44.521 223.428 43.7018 223.922C42.8826 224.417 42.2141 225.126 41.7687 225.973C41.7561 225.815 41.7499 225.658 41.75 225.5C41.75 222.278 44.3616 219.667 47.5833 219.667V216.75L53.4167 221.417L47.5833 226.083V223.167Z" fill="#87888B"/>
<g filter="url(#filter3_d)">
<rect x="440" y="212" width="48" height="20" rx="4" fill="white" fill-opacity="0.07"/>
<path d="M450 221.414L447.525 223.889L446.818 223.182L450 220L453.182 223.182L452.475 223.889L450 221.414Z" fill="white"/>
<path d="M463 220H465V219.25C465 218.904 465.103 218.566 465.295 218.278C465.487 217.99 465.761 217.766 466.08 217.633C466.4 217.501 466.752 217.466 467.091 217.534C467.431 217.601 467.743 217.768 467.987 218.013C468.232 218.257 468.399 218.569 468.466 218.909C468.534 219.248 468.499 219.6 468.367 219.92C468.234 220.24 468.01 220.513 467.722 220.705C467.434 220.897 467.096 221 466.75 221H466V223H466.75C467.096 223 467.434 223.103 467.722 223.295C468.01 223.487 468.234 223.761 468.367 224.08C468.499 224.4 468.534 224.752 468.466 225.091C468.399 225.431 468.232 225.743 467.987 225.987C467.743 226.232 467.431 226.399 467.091 226.466C466.752 226.534 466.4 226.499 466.08 226.367C465.761 226.234 465.487 226.01 465.295 225.722C465.103 225.435 465 225.096 465 224.75V224H463V224.75C463 225.096 462.897 225.435 462.705 225.722C462.513 226.01 462.239 226.234 461.92 226.367C461.6 226.499 461.248 226.534 460.909 226.466C460.569 226.399 460.257 226.232 460.013 225.987C459.768 225.743 459.601 225.431 459.534 225.091C459.466 224.752 459.501 224.4 459.633 224.08C459.766 223.761 459.99 223.487 460.278 223.295C460.566 223.103 460.904 223 461.25 223H462V221H461.25C460.904 221 460.566 220.897 460.278 220.705C459.99 220.513 459.766 220.24 459.633 219.92C459.501 219.6 459.466 219.248 459.534 218.909C459.601 218.569 459.768 218.257 460.013 218.013C460.257 217.768 460.569 217.601 460.909 217.534C461.248 217.466 461.6 217.501 461.92 217.633C462.239 217.766 462.513 217.99 462.705 218.278C462.897 218.566 463 218.904 463 219.25V220ZM462 220V219.25C462 219.102 461.956 218.957 461.874 218.833C461.791 218.71 461.674 218.614 461.537 218.557C461.4 218.5 461.249 218.486 461.104 218.514C460.958 218.543 460.825 218.615 460.72 218.72C460.615 218.825 460.543 218.958 460.514 219.104C460.485 219.249 460.5 219.4 460.557 219.537C460.614 219.674 460.71 219.791 460.833 219.874C460.957 219.956 461.102 220 461.25 220H462ZM462 224H461.25C461.102 224 460.957 224.044 460.833 224.126C460.71 224.209 460.614 224.326 460.557 224.463C460.5 224.6 460.485 224.751 460.514 224.896C460.543 225.042 460.615 225.176 460.72 225.28C460.825 225.385 460.958 225.457 461.104 225.486C461.249 225.515 461.4 225.5 461.537 225.443C461.674 225.386 461.791 225.29 461.874 225.167C461.956 225.043 462 224.898 462 224.75V224ZM466 220H466.75C466.898 220 467.043 219.956 467.167 219.874C467.29 219.791 467.386 219.674 467.443 219.537C467.5 219.4 467.515 219.249 467.486 219.104C467.457 218.958 467.385 218.825 467.28 218.72C467.175 218.615 467.042 218.543 466.896 218.514C466.751 218.486 466.6 218.5 466.463 218.557C466.326 218.614 466.209 218.71 466.126 218.833C466.044 218.957 466 219.102 466 219.25V220ZM466 224V224.75C466 224.898 466.044 225.043 466.126 225.167C466.209 225.29 466.326 225.386 466.463 225.443C466.6 225.5 466.751 225.515 466.896 225.486C467.042 225.457 467.175 225.385 467.28 225.28C467.385 225.176 467.457 225.042 467.486 224.896C467.515 224.751 467.5 224.6 467.443 224.463C467.386 224.326 467.29 224.209 467.167 224.126C467.043 224.044 466.898 224 466.75 224H466ZM463 221V223H465V221H463Z" fill="white"/>
<path d="M481.795 220.611C481.497 218.744 480.035 217.653 478.19 217.653C475.932 217.653 474.265 219.345 474.265 222.136C474.265 224.928 475.923 226.619 478.19 226.619C480.108 226.619 481.51 225.418 481.795 223.692L480.466 223.688C480.24 224.804 479.302 225.418 478.199 225.418C476.703 225.418 475.574 224.271 475.574 222.136C475.574 220.019 476.699 218.855 478.203 218.855C479.315 218.855 480.248 219.482 480.466 220.611H481.795Z" fill="white"/>
</g>
<path d="M67.1186 260.818V271H68.5803V263.627H68.6747L71.6776 270.985H72.8906L75.8935 263.632H75.9879V271H77.4496V260.818H75.5852L72.3438 268.733H72.2244L68.983 260.818H67.1186ZM82.7804 271.154C84.9331 271.154 86.34 269.578 86.34 267.217C86.34 264.84 84.9331 263.264 82.7804 263.264C80.6277 263.264 79.2207 264.84 79.2207 267.217C79.2207 269.578 80.6277 271.154 82.7804 271.154ZM82.7853 269.906C81.3784 269.906 80.7221 268.678 80.7221 267.212C80.7221 265.75 81.3784 264.507 82.7853 264.507C84.1824 264.507 84.8386 265.75 84.8386 267.212C84.8386 268.678 84.1824 269.906 82.7853 269.906ZM94.2585 263.364H92.6626L90.7337 269.24H90.6541L88.7202 263.364H87.1243L89.8984 271H91.4893L94.2585 263.364ZM98.6733 271.154C100.339 271.154 101.517 270.334 101.855 269.091L100.448 268.837C100.18 269.558 99.5334 269.926 98.6882 269.926C97.4155 269.926 96.5604 269.101 96.5206 267.629H101.95V267.102C101.95 264.343 100.299 263.264 98.5689 263.264C96.4411 263.264 95.0391 264.885 95.0391 267.232C95.0391 269.603 96.4212 271.154 98.6733 271.154ZM96.5256 266.516C96.5852 265.432 97.3707 264.492 98.5788 264.492C99.7322 264.492 100.488 265.347 100.493 266.516H96.5256ZM112.977 263.493H114.458C114.413 261.862 112.972 260.679 110.903 260.679C108.86 260.679 107.294 261.847 107.294 263.602C107.294 265.019 108.308 265.849 109.944 266.292L111.147 266.62C112.236 266.908 113.076 267.266 113.076 268.171C113.076 269.166 112.126 269.822 110.819 269.822C109.636 269.822 108.651 269.295 108.562 268.186H107.021C107.12 270.031 108.547 271.169 110.829 271.169C113.22 271.169 114.597 269.911 114.597 268.186C114.597 266.352 112.962 265.641 111.669 265.323L110.675 265.064C109.879 264.86 108.82 264.487 108.825 263.513C108.825 262.648 109.616 262.006 110.869 262.006C112.037 262.006 112.867 262.553 112.977 263.493ZM117.8 266.466C117.8 265.248 118.546 264.552 119.58 264.552C120.589 264.552 121.201 265.213 121.201 266.322V271H122.687V266.143C122.687 264.254 121.648 263.264 120.087 263.264C118.939 263.264 118.188 263.796 117.835 264.607H117.741V263.364H116.314V271H117.8V266.466ZM124.681 271H126.167V263.364H124.681V271ZM125.432 262.185C125.944 262.185 126.371 261.788 126.371 261.3C126.371 260.813 125.944 260.411 125.432 260.411C124.915 260.411 124.492 260.813 124.492 261.3C124.492 261.788 124.915 262.185 125.432 262.185ZM128.167 273.864H129.654V269.812H129.743C130.012 270.299 130.559 271.149 131.951 271.149C133.8 271.149 135.142 269.668 135.142 267.197C135.142 264.721 133.78 263.264 131.936 263.264C130.519 263.264 130.007 264.129 129.743 264.602H129.619V263.364H128.167V273.864ZM129.624 267.182C129.624 265.586 130.32 264.527 131.618 264.527C132.965 264.527 133.641 265.666 133.641 267.182C133.641 268.713 132.945 269.881 131.618 269.881C130.34 269.881 129.624 268.788 129.624 267.182ZM136.808 273.864H138.294V269.812H138.384C138.652 270.299 139.199 271.149 140.591 271.149C142.441 271.149 143.783 269.668 143.783 267.197C143.783 264.721 142.421 263.264 140.576 263.264C139.159 263.264 138.647 264.129 138.384 264.602H138.26V263.364H136.808V273.864ZM138.265 267.182C138.265 265.586 138.961 264.527 140.258 264.527C141.605 264.527 142.282 265.666 142.282 267.182C142.282 268.713 141.586 269.881 140.258 269.881C138.98 269.881 138.265 268.788 138.265 267.182ZM148.74 271.154C150.405 271.154 151.583 270.334 151.922 269.091L150.515 268.837C150.246 269.558 149.6 269.926 148.755 269.926C147.482 269.926 146.627 269.101 146.587 267.629H152.016V267.102C152.016 264.343 150.365 263.264 148.635 263.264C146.507 263.264 145.105 264.885 145.105 267.232C145.105 269.603 146.488 271.154 148.74 271.154ZM146.592 266.516C146.652 265.432 147.437 264.492 148.645 264.492C149.799 264.492 150.554 265.347 150.559 266.516H146.592ZM157.23 263.364H155.664V261.534H154.177V263.364H153.059V264.557H154.177V269.066C154.172 270.453 155.231 271.124 156.405 271.099C156.877 271.095 157.195 271.005 157.369 270.94L157.101 269.712C157.001 269.732 156.817 269.777 156.579 269.777C156.096 269.777 155.664 269.618 155.664 268.758V264.557H157.23V263.364ZM163.559 271.095C164.101 271.095 164.553 270.652 164.553 270.1C164.553 269.558 164.101 269.111 163.559 269.111C163.012 269.111 162.564 269.558 162.564 270.1C162.564 270.652 163.012 271.095 163.559 271.095ZM167.524 271.095C168.066 271.095 168.518 270.652 168.518 270.1C168.518 269.558 168.066 269.111 167.524 269.111C166.977 269.111 166.529 269.558 166.529 270.1C166.529 270.652 166.977 271.095 167.524 271.095ZM171.488 271.095C172.03 271.095 172.483 270.652 172.483 270.1C172.483 269.558 172.03 269.111 171.488 269.111C170.942 269.111 170.494 269.558 170.494 270.1C170.494 270.652 170.942 271.095 171.488 271.095Z" fill="white"/>
<path d="M483.434 265.417L480.305 262.288L481.129 261.463L485.667 266L481.129 270.537L480.305 269.712L483.434 266.583H476.333V265.417H483.434Z" fill="white"/>
<path d="M46.4167 265.417V262.4L45.3504 263.467L44.525 262.642L47.0001 260.167L49.4752 262.642L48.6497 263.467L47.5834 262.4V265.417H50.6004L49.5335 264.35L50.3583 263.525L52.8334 266L50.3583 268.475L49.5335 267.65L50.6004 266.583H47.5834V269.6L48.6497 268.533L49.4752 269.358L47.0001 271.833L44.525 269.358L45.3504 268.533L46.4167 269.6V266.583H43.3997L44.4667 267.65L43.6418 268.475L41.1667 266L43.6418 263.525L44.4667 264.35L43.3997 265.417H46.4167Z" fill="#87888B"/>
<path d="M70.4148 315C73.517 315 75.3118 313.076 75.3118 309.894C75.3118 306.727 73.517 304.818 70.5192 304.818H67.1186V315H70.4148ZM68.6548 313.658V306.161H70.4247C72.652 306.161 73.8004 307.493 73.8004 309.894C73.8004 312.305 72.652 313.658 70.3303 313.658H68.6548ZM80.394 315.154C82.0595 315.154 83.2377 314.334 83.5758 313.091L82.1689 312.837C81.9004 313.558 81.2541 313.926 80.4089 313.926C79.1362 313.926 78.2811 313.101 78.2413 311.629H83.6703V311.102C83.6703 308.343 82.0197 307.264 80.2896 307.264C78.1618 307.264 76.7598 308.885 76.7598 311.232C76.7598 313.603 78.1419 315.154 80.394 315.154ZM78.2463 310.516C78.3059 309.432 79.0914 308.492 80.2995 308.492C81.4529 308.492 82.2086 309.347 82.2136 310.516H78.2463ZM86.8061 304.818H85.3196V315H86.8061V304.818ZM92.0971 315.154C93.7626 315.154 94.9409 314.334 95.2789 313.091L93.872 312.837C93.6035 313.558 92.9572 313.926 92.112 313.926C90.8393 313.926 89.9842 313.101 89.9444 311.629H95.3734V311.102C95.3734 308.343 93.7228 307.264 91.9927 307.264C89.8649 307.264 88.4629 308.885 88.4629 311.232C88.4629 313.603 89.845 315.154 92.0971 315.154ZM89.9494 310.516C90.0091 309.432 90.7946 308.492 92.0027 308.492C93.1561 308.492 93.9118 309.347 93.9167 310.516H89.9494ZM100.587 307.364H99.0213V305.534H97.5348V307.364H96.4162V308.557H97.5348V313.066C97.5298 314.453 98.5888 315.124 99.7621 315.099C100.234 315.095 100.553 315.005 100.727 314.94L100.458 313.712C100.359 313.732 100.175 313.777 99.9361 313.777C99.4538 313.777 99.0213 313.618 99.0213 312.758V308.557H100.587V307.364ZM105.441 315.154C107.106 315.154 108.285 314.334 108.623 313.091L107.216 312.837C106.947 313.558 106.301 313.926 105.456 313.926C104.183 313.926 103.328 313.101 103.288 311.629H108.717V311.102C108.717 308.343 107.067 307.264 105.336 307.264C103.209 307.264 101.807 308.885 101.807 311.232C101.807 313.603 103.189 315.154 105.441 315.154ZM103.293 310.516C103.353 309.432 104.138 308.492 105.346 308.492C106.5 308.492 107.256 309.347 107.26 310.516H103.293ZM119.744 307.493H121.226C121.181 305.862 119.739 304.679 117.671 304.679C115.628 304.679 114.062 305.847 114.062 307.602C114.062 309.019 115.076 309.849 116.711 310.292L117.915 310.62C119.003 310.908 119.844 311.266 119.844 312.171C119.844 313.166 118.894 313.822 117.586 313.822C116.403 313.822 115.419 313.295 115.329 312.186H113.788C113.888 314.031 115.314 315.169 117.596 315.169C119.988 315.169 121.365 313.911 121.365 312.186C121.365 310.352 119.729 309.641 118.437 309.323L117.442 309.064C116.647 308.86 115.588 308.487 115.593 307.513C115.593 306.648 116.383 306.006 117.636 306.006C118.805 306.006 119.635 306.553 119.744 307.493ZM124.568 310.466C124.568 309.248 125.314 308.552 126.348 308.552C127.357 308.552 127.968 309.213 127.968 310.322V315H129.455V310.143C129.455 308.254 128.416 307.264 126.855 307.264C125.706 307.264 124.956 307.796 124.603 308.607H124.508V307.364H123.081V315H124.568V310.466ZM131.449 315H132.935V307.364H131.449V315ZM132.199 306.185C132.711 306.185 133.139 305.788 133.139 305.3C133.139 304.813 132.711 304.411 132.199 304.411C131.682 304.411 131.26 304.813 131.26 305.3C131.26 305.788 131.682 306.185 132.199 306.185ZM134.935 317.864H136.421V313.812H136.511C136.779 314.299 137.326 315.149 138.718 315.149C140.568 315.149 141.91 313.668 141.91 311.197C141.91 308.721 140.548 307.264 138.703 307.264C137.286 307.264 136.774 308.129 136.511 308.602H136.387V307.364H134.935V317.864ZM136.392 311.182C136.392 309.586 137.088 308.527 138.385 308.527C139.732 308.527 140.409 309.666 140.409 311.182C140.409 312.713 139.713 313.881 138.385 313.881C137.107 313.881 136.392 312.788 136.392 311.182ZM143.575 317.864H145.062V313.812H145.151C145.42 314.299 145.967 315.149 147.359 315.149C149.208 315.149 150.551 313.668 150.551 311.197C150.551 308.721 149.188 307.264 147.344 307.264C145.927 307.264 145.415 308.129 145.151 308.602H145.027V307.364H143.575V317.864ZM145.032 311.182C145.032 309.586 145.728 308.527 147.026 308.527C148.373 308.527 149.049 309.666 149.049 311.182C149.049 312.713 148.353 313.881 147.026 313.881C145.748 313.881 145.032 312.788 145.032 311.182ZM155.507 315.154C157.173 315.154 158.351 314.334 158.689 313.091L157.282 312.837C157.014 313.558 156.367 313.926 155.522 313.926C154.249 313.926 153.394 313.101 153.355 311.629H158.784V311.102C158.784 308.343 157.133 307.264 155.403 307.264C153.275 307.264 151.873 308.885 151.873 311.232C151.873 313.603 153.255 315.154 155.507 315.154ZM153.36 310.516C153.419 309.432 154.205 308.492 155.413 308.492C156.566 308.492 157.322 309.347 157.327 310.516H153.36ZM163.998 307.364H162.431V305.534H160.945V307.364H159.826V308.557H160.945V313.066C160.94 314.453 161.999 315.124 163.172 315.099C163.645 315.095 163.963 315.005 164.137 314.94L163.868 313.712C163.769 313.732 163.585 313.777 163.346 313.777C162.864 313.777 162.431 313.618 162.431 312.758V308.557H163.998V307.364Z" fill="white"/>
<path d="M42.3334 307.667H51.6667V315.25C51.6667 315.405 51.6053 315.553 51.4959 315.663C51.3865 315.772 51.2381 315.833 51.0834 315.833H42.9167C42.762 315.833 42.6137 315.772 42.5043 315.663C42.3949 315.553 42.3334 315.405 42.3334 315.25V307.667ZM44.0834 305.917V304.75C44.0834 304.595 44.1449 304.447 44.2543 304.338C44.3637 304.228 44.512 304.167 44.6667 304.167H49.3334C49.4881 304.167 49.6365 304.228 49.7459 304.338C49.8553 304.447 49.9167 304.595 49.9167 304.75V305.917H52.8334V307.083H41.1667V305.917H44.0834ZM45.2501 305.333V305.917H48.7501V305.333H45.2501ZM45.2501 310V313.5H46.4167V310H45.2501ZM47.5834 310V313.5H48.7501V310H47.5834Z" fill="#87888B"/>
<rect x="24.5" y="0.5" width="479" height="959" rx="5.5" stroke="#262729" stroke-opacity="0.7"/>
</g>
<defs>
<filter id="filter0_d" x="0" y="-22" width="528" height="1008" filterUnits="userSpaceOnUse" color-interpolation-filters="sRGB">
<feFlood flood-opacity="0" result="BackgroundImageFix"/>
<feColorMatrix in="SourceAlpha" type="matrix" values="0 0 0 0 0 0 0 0 0 0 0 0 0 0 0 0 0 0 127 0"/>
<feOffset dy="2"/>
<feGaussianBlur stdDeviation="12"/>
<feColorMatrix type="matrix" values="0 0 0 0 0.0745098 0 0 0 0 0.0784314 0 0 0 0 0.0823529 0 0 0 0.5 0"/>
<feBlend mode="normal" in2="BackgroundImageFix" result="effect1_dropShadow"/>
<feBlend mode="normal" in="SourceGraphic" in2="effect1_dropShadow" result="shape"/>
</filter>
<filter id="filter1_d" x="438" y="8" width="66" height="52" filterUnits="userSpaceOnUse" color-interpolation-filters="sRGB">
<feFlood flood-opacity="0" result="BackgroundImageFix"/>
<feColorMatrix in="SourceAlpha" type="matrix" values="0 0 0 0 0 0 0 0 0 0 0 0 0 0 0 0 0 0 127 0"/>
<feOffset dy="4"/>
<feGaussianBlur stdDeviation="8"/>
<feColorMatrix type="matrix" values="0 0 0 0 0.415686 0 0 0 0 0.45098 0 0 0 0 0.490196 0 0 0 0.02 0"/>
<feBlend mode="normal" in2="BackgroundImageFix" result="effect1_dropShadow"/>
<feBlend mode="normal" in="SourceGraphic" in2="effect1_dropShadow" result="shape"/>
</filter>
<filter id="filter2_d" x="438" y="156" width="66" height="52" filterUnits="userSpaceOnUse" color-interpolation-filters="sRGB">
<feFlood flood-opacity="0" result="BackgroundImageFix"/>
<feColorMatrix in="SourceAlpha" type="matrix" values="0 0 0 0 0 0 0 0 0 0 0 0 0 0 0 0 0 0 127 0"/>
<feOffset dy="4"/>
<feGaussianBlur stdDeviation="8"/>
<feColorMatrix type="matrix" values="0 0 0 0 0.415686 0 0 0 0 0.45098 0 0 0 0 0.490196 0 0 0 0.02 0"/>
<feBlend mode="normal" in2="BackgroundImageFix" result="effect1_dropShadow"/>
<feBlend mode="normal" in="SourceGraphic" in2="effect1_dropShadow" result="shape"/>
</filter>
<filter id="filter3_d" x="424" y="200" width="80" height="52" filterUnits="userSpaceOnUse" color-interpolation-filters="sRGB">
<feFlood flood-opacity="0" result="BackgroundImageFix"/>
<feColorMatrix in="SourceAlpha" type="matrix" values="0 0 0 0 0 0 0 0 0 0 0 0 0 0 0 0 0 0 127 0"/>
<feOffset dy="4"/>
<feGaussianBlur stdDeviation="8"/>
<feColorMatrix type="matrix" values="0 0 0 0 0.415686 0 0 0 0 0.45098 0 0 0 0 0.490196 0 0 0 0.02 0"/>
<feBlend mode="normal" in2="BackgroundImageFix" result="effect1_dropShadow"/>
<feBlend mode="normal" in="SourceGraphic" in2="effect1_dropShadow" result="shape"/>
</filter>
<clipPath id="clip0">
<rect width="14" height="14" fill="white" transform="translate(40 83.0001)"/>
</clipPath>
</defs>
</svg>
