<svg width="146" height="114" viewBox="0 0 146 114" fill="none" xmlns="http://www.w3.org/2000/svg">
<path d="M5 99.5996H12.2V105L12.1268 106.2C11.55 110.851 7.75378 114 2.86179 114C1.86511 114 0.903882 113.848 0 113.566C3.12217 111.981 5 108.74 5 105V99.5996Z" fill="#1C8EFD"/>
<rect x="5" y="78" width="160" height="36" rx="14" fill="#1C8EFD"/>
<rect opacity="0.4" x="17" y="90" width="136" height="12" rx="4" fill="url(#paint0_linear_1409_958)"/>
<rect x="5" y="16" width="160" height="54" rx="14" fill="#1C8EFD"/>
<rect opacity="0.4" x="17" y="28" width="136" height="12" rx="4" fill="url(#paint1_linear_1409_958)"/>
<rect opacity="0.4" x="17" y="46" width="80" height="12" rx="4" fill="url(#paint2_linear_1409_958)"/>
<rect opacity="0.4" x="17" width="40" height="8" rx="3" fill="url(#paint3_linear_1409_958)"/>
<defs>
<linearGradient id="paint0_linear_1409_958" x1="17" y1="96" x2="153" y2="96" gradientUnits="userSpaceOnUse">
<stop stop-color="white"/>
<stop offset="1" stop-color="white" stop-opacity="0"/>
</linearGradient>
<linearGradient id="paint1_linear_1409_958" x1="17" y1="34" x2="153" y2="34" gradientUnits="userSpaceOnUse">
<stop stop-color="white"/>
<stop offset="1" stop-color="white" stop-opacity="0"/>
</linearGradient>
<linearGradient id="paint2_linear_1409_958" x1="17" y1="52" x2="97" y2="52" gradientUnits="userSpaceOnUse">
<stop stop-color="white"/>
<stop offset="1" stop-color="white" stop-opacity="0"/>
</linearGradient>
<linearGradient id="paint3_linear_1409_958" x1="17" y1="4" x2="57" y2="4" gradientUnits="userSpaceOnUse">
<stop stop-color="#9BA1A6"/>
<stop offset="1" stop-color="#9BA1A6" stop-opacity="0"/>
</linearGradient>
</defs>
</svg>
