<svg width="28" height="28" viewBox="0 0 28 28" fill="none" xmlns="http://www.w3.org/2000/svg">
<path fill-rule="evenodd" clip-rule="evenodd" d="M3.88672 28H15.3514C20.9459 28 24.1089 24.88 24.1089 19.88C24.1089 16.92 22.6005 14.44 19.8428 13.44C21.6944 12.52 23.1521 10.48 23.1521 7.52C23.1521 3.32 20.0003 0 14.7999 0H9.60035V5.12H13.6179C15.706 5.12 17.0849 6.24 17.0849 8.15998C17.0849 10.16 15.706 11.36 13.6179 11.36H9.60035V5.12H3.88672V28ZM9.59934 16V22.76H14.2088C16.4152 22.76 17.991 21.52 17.991 19.36C17.991 17.28 16.5727 16 14.2088 16H9.59934Z" fill="white"/>
</svg>
