<svg width="704" height="400" viewBox="0 0 704 400" fill="none" xmlns="http://www.w3.org/2000/svg">
<rect width="704" height="400" fill="#1B1F23"/>
<g clip-path="url(#clip0)">
<path d="M247.416 262.058C281.69 256.014 304.575 223.331 298.531 189.058C292.488 154.784 259.805 131.899 225.531 137.942C191.258 143.986 168.373 176.669 174.416 210.942C180.459 245.216 213.143 268.101 247.416 262.058Z" fill="#2F363D"/>
<path d="M230.593 235.773C236.792 234.68 240.935 228.762 239.842 222.563L237.862 211.334L226.633 213.314C220.434 214.407 216.29 220.325 217.383 226.523C218.476 232.722 224.394 236.866 230.593 235.773Z" fill="#0ACF83"/>
<path d="M213.423 204.064C212.33 197.866 216.474 191.948 222.673 190.855L233.902 188.875L237.862 211.334L226.633 213.314C220.434 214.407 214.516 210.263 213.423 204.064Z" fill="#A259FF"/>
<path d="M209.463 181.605C208.37 175.407 212.514 169.489 218.713 168.396L229.942 166.416L233.902 188.875L222.673 190.855C216.474 191.948 210.556 187.804 209.463 181.605Z" fill="#F24E1E"/>
<path d="M229.942 166.416L241.172 164.436C247.371 163.343 253.288 167.487 254.381 173.685C255.474 179.884 251.331 185.802 245.132 186.895L233.902 188.875L229.942 166.416Z" fill="#FF7262"/>
<path d="M258.341 196.144C259.434 202.343 255.291 208.261 249.092 209.354C242.893 210.447 236.975 206.303 235.882 200.104C234.789 193.906 238.933 187.988 245.132 186.895C251.33 185.802 257.248 189.946 258.341 196.144Z" fill="#1ABCFE"/>
</g>
<path d="M456.585 262.058C490.858 268.101 523.541 245.216 529.585 210.942C535.628 176.669 512.743 143.986 478.47 137.942C444.196 131.899 411.513 154.784 405.47 189.058C399.426 223.331 422.311 256.014 456.585 262.058Z" fill="white"/>
<path d="M464.328 167.901C454.375 166.909 445.905 166.117 445.499 166.127C444.363 166.133 443.228 166.716 442.58 167.632L442.013 168.439L434.717 210.389L435.117 211.799C435.344 212.581 437.148 216.361 439.152 220.279C443.117 228.005 443.422 228.451 445.351 228.997C445.911 229.157 450.229 229.713 454.915 230.251C459.624 230.772 467.169 231.628 471.695 232.159C491.037 234.351 490.036 234.278 491.305 233.512C492.885 232.596 492.452 234.477 497.003 209.005C500.853 187.407 501.083 185.985 500.885 185.27C500.643 184.465 500.066 183.827 492.443 176.053C487.342 170.867 486.968 170.575 484.361 170.073C483.288 169.844 474.264 168.87 464.328 167.901ZM485.925 174.533C486.684 175.057 491.961 180.398 492.7 181.374C492.893 181.656 492.936 181.869 492.797 181.968C492.48 182.16 454.755 177.837 453.704 177.486C453.227 177.32 452.553 176.892 452.19 176.539C450.689 175.058 447.07 170.772 447.116 170.513C447.236 169.833 447.098 169.809 463.953 171.525C467.174 171.866 472.47 172.388 475.699 172.689C482.692 173.345 484.752 173.729 485.925 174.533ZM495.863 187.558C496.089 187.885 496.23 188.467 496.216 189C496.19 189.491 494.651 198.451 492.772 208.877C489.556 226.774 489.338 227.89 488.913 228.351C488.66 228.636 488.207 228.907 487.894 228.954C487.011 229.149 447.499 224.511 446.736 224.129C446.381 223.963 445.926 223.553 445.7 223.226L445.32 222.623L448.666 203.306C451.015 189.749 452.112 183.759 452.365 183.248C452.554 182.869 452.933 182.441 453.217 182.326C453.613 182.149 455.967 182.358 464.027 183.285C469.683 183.953 478.441 184.941 483.465 185.517C495.419 186.862 495.38 186.855 495.863 187.558Z" fill="black"/>
<path d="M484.185 192.32C482.039 192.086 480.118 191.953 479.88 192.035C479.172 192.261 478.68 192.751 478.489 193.377C478.315 194.026 478.497 194.141 480.572 194.775L481.474 195.058L479.969 203.592C479.074 208.668 478.403 212.012 478.323 211.895C478.246 211.758 476.218 206.95 473.806 201.207C471.399 195.446 469.4 190.703 469.367 190.657C469.334 190.609 467.153 190.348 464.528 190.072C461.306 189.731 459.523 189.622 459.134 189.759C458.511 189.958 457.695 190.907 457.572 191.607C457.498 192.027 458.206 192.378 459.777 192.655L460.602 192.801L456.275 217.344L454.865 217.528C453.768 217.664 453.378 217.801 453.131 218.17C452.697 218.794 452.608 219.417 452.922 219.473C453.04 219.493 455.285 219.745 457.866 220.035C462.968 220.626 463.562 220.586 464.279 219.621C464.493 219.329 464.69 219.013 464.707 218.913C464.721 218.833 464.077 218.472 463.286 218.127C462.476 217.778 461.667 217.429 461.497 217.358C461.181 217.199 461.27 216.576 462.785 207.981L464.41 198.767L468.701 209.354C473.206 220.452 473.791 221.73 474.666 222.399C475.752 223.25 478.874 223.348 480.586 222.599L481.111 222.383L483.554 208.759L486.019 195.119L487.096 195.103C488.375 195.081 489.048 194.603 489.224 193.603C489.337 192.963 489.304 192.916 488.712 192.832C488.357 192.787 486.312 192.55 484.185 192.32Z" fill="black"/>
<path d="M335.646 208.354C335.451 208.158 335.451 207.842 335.646 207.646L338.828 204.464C339.024 204.269 339.34 204.269 339.536 204.464C339.731 204.66 339.731 204.976 339.536 205.172L336.707 208L339.536 210.828C339.731 211.024 339.731 211.34 339.536 211.536C339.34 211.731 339.024 211.731 338.828 211.536L335.646 208.354ZM368 208.5H336V207.5H368V208.5Z" fill="url(#paint0_linear)"/>
<path d="M368.354 192.354C368.549 192.158 368.549 191.842 368.354 191.646L365.172 188.464C364.976 188.269 364.66 188.269 364.464 188.464C364.269 188.66 364.269 188.976 364.464 189.172L367.293 192L364.464 194.828C364.269 195.024 364.269 195.34 364.464 195.536C364.66 195.731 364.976 195.731 365.172 195.536L368.354 192.354ZM336 192.5H368V191.5H336V192.5Z" fill="url(#paint1_linear)"/>
<defs>
<linearGradient id="paint0_linear" x1="336" y1="208" x2="368" y2="208" gradientUnits="userSpaceOnUse">
<stop stop-color="#6A737D"/>
<stop offset="1" stop-color="#6A737D" stop-opacity="0"/>
</linearGradient>
<linearGradient id="paint1_linear" x1="368" y1="192" x2="336" y2="192" gradientUnits="userSpaceOnUse">
<stop stop-color="#6A737D"/>
<stop offset="1" stop-color="#6A737D" stop-opacity="0"/>
</linearGradient>
<clipPath id="clip0">
<rect width="126.03" height="126.03" fill="white" transform="translate(163.474 148.885) rotate(-10)"/>
</clipPath>
</defs>
</svg>
