<svg width="1280" height="720" viewBox="0 0 1280 720" fill="none" xmlns="http://www.w3.org/2000/svg">
<rect width="1280" height="720" fill="#1B1F23"/>
<rect x="475.5" y="234.5" width="329" height="251" rx="3.5" fill="white" stroke="#E1E4E8"/>
<path d="M500.244 271H502.088V267.271H503.967L505.966 271H508.024L505.822 266.963C507.02 266.481 507.651 265.457 507.651 264.075C507.651 262.131 506.398 260.818 504.062 260.818H500.244V271ZM502.088 265.74V262.359H503.778C505.155 262.359 505.772 262.991 505.772 264.075C505.772 265.158 505.155 265.74 503.788 265.74H502.088ZM512.541 271.149C514.321 271.149 515.544 270.279 515.862 268.952L514.181 268.763C513.938 269.409 513.341 269.747 512.566 269.747C511.402 269.747 510.632 268.982 510.617 267.674H515.936V267.122C515.936 264.442 514.326 263.264 512.446 263.264C510.259 263.264 508.832 264.87 508.832 267.227C508.832 269.623 510.239 271.149 512.541 271.149ZM510.622 266.461C510.676 265.487 511.397 264.666 512.471 264.666C513.505 264.666 514.201 265.422 514.211 266.461H510.622ZM519.656 271.154C520.854 271.154 521.57 270.592 521.899 269.951H521.958V271H523.688V265.889C523.688 263.871 522.043 263.264 520.586 263.264C518.98 263.264 517.747 263.98 517.35 265.372L519.03 265.611C519.209 265.089 519.716 264.641 520.596 264.641C521.431 264.641 521.889 265.069 521.889 265.82V265.849C521.889 266.366 521.347 266.391 519.999 266.536C518.518 266.695 517.101 267.137 517.101 268.857C517.101 270.359 518.2 271.154 519.656 271.154ZM520.124 269.832C519.373 269.832 518.836 269.489 518.836 268.827C518.836 268.136 519.438 267.848 520.243 267.734C520.715 267.669 521.66 267.55 521.894 267.361V268.261C521.894 269.111 521.207 269.832 520.124 269.832ZM527.298 260.818H525.498V271H527.298V260.818ZM529.148 271H530.948V263.364H529.148V271ZM530.053 262.28C530.625 262.28 531.092 261.842 531.092 261.305C531.092 260.763 530.625 260.326 530.053 260.326C529.476 260.326 529.009 260.763 529.009 261.305C529.009 261.842 529.476 262.28 530.053 262.28ZM532.699 271H538.968V269.509H535.091V269.444L538.839 264.592V263.364H532.829V264.855H536.637V264.92L532.699 269.857V271ZM543.822 271.149C545.602 271.149 546.825 270.279 547.143 268.952L545.463 268.763C545.219 269.409 544.622 269.747 543.847 269.747C542.684 269.747 541.913 268.982 541.898 267.674H547.218V267.122C547.218 264.442 545.607 263.264 543.728 263.264C541.54 263.264 540.113 264.87 540.113 267.227C540.113 269.623 541.52 271.149 543.822 271.149ZM541.903 266.461C541.958 265.487 542.679 264.666 543.752 264.666C544.786 264.666 545.483 265.422 545.492 266.461H541.903ZM551.574 271.134C552.886 271.134 553.478 270.354 553.761 269.797H553.871V271H555.641V260.818H553.836V264.626H553.761C553.488 264.075 552.926 263.264 551.579 263.264C549.814 263.264 548.427 264.646 548.427 267.192C548.427 269.707 549.774 271.134 551.574 271.134ZM552.076 269.658C550.888 269.658 550.261 268.614 550.261 267.182C550.261 265.76 550.878 264.741 552.076 264.741C553.234 264.741 553.871 265.7 553.871 267.182C553.871 268.663 553.225 269.658 552.076 269.658ZM564.352 273.993C566.415 273.993 567.937 273.048 567.937 271.124V263.364H566.162V264.626H566.062C565.789 264.075 565.217 263.264 563.87 263.264C562.105 263.264 560.718 264.646 560.718 267.157C560.718 269.648 562.105 270.891 563.865 270.891C565.172 270.891 565.784 270.19 566.062 269.628H566.152V271.075C566.152 272.168 565.406 272.631 564.382 272.631C563.298 272.631 562.821 272.119 562.602 271.701L560.981 272.094C561.31 273.133 562.408 273.993 564.352 273.993ZM564.367 269.479C563.179 269.479 562.552 268.554 562.552 267.147C562.552 265.76 563.169 264.741 564.367 264.741C565.525 264.741 566.162 265.7 566.162 267.147C566.162 268.604 565.516 269.479 564.367 269.479ZM571.979 271.154C573.177 271.154 573.893 270.592 574.221 269.951H574.28V271H576.011V265.889C576.011 263.871 574.365 263.264 572.908 263.264C571.302 263.264 570.07 263.98 569.672 265.372L571.352 265.611C571.531 265.089 572.038 264.641 572.918 264.641C573.753 264.641 574.211 265.069 574.211 265.82V265.849C574.211 266.366 573.669 266.391 572.322 266.536C570.84 266.695 569.423 267.137 569.423 268.857C569.423 270.359 570.522 271.154 571.979 271.154ZM572.446 269.832C571.695 269.832 571.158 269.489 571.158 268.827C571.158 268.136 571.76 267.848 572.565 267.734C573.038 267.669 573.982 267.55 574.216 267.361V268.261C574.216 269.111 573.53 269.832 572.446 269.832ZM577.82 271H579.62V263.364H577.82V271ZM578.725 262.28C579.297 262.28 579.764 261.842 579.764 261.305C579.764 260.763 579.297 260.326 578.725 260.326C578.148 260.326 577.681 260.763 577.681 261.305C577.681 261.842 578.148 262.28 578.725 262.28ZM583.27 266.526C583.27 265.422 583.937 264.786 584.886 264.786C585.816 264.786 586.373 265.397 586.373 266.416V271H588.172V266.138C588.177 264.308 587.133 263.264 585.557 263.264C584.414 263.264 583.628 263.811 583.28 264.661H583.191V263.364H581.471V271H583.27V266.526ZM596.037 265.382C595.789 264.089 594.755 263.264 592.965 263.264C591.125 263.264 589.873 264.169 589.878 265.581C589.873 266.695 590.559 267.43 592.025 267.734L593.328 268.007C594.029 268.161 594.357 268.445 594.357 268.877C594.357 269.399 593.79 269.792 592.935 269.792C592.11 269.792 591.573 269.434 591.419 268.748L589.664 268.917C589.888 270.319 591.066 271.149 592.94 271.149C594.849 271.149 596.196 270.16 596.201 268.713C596.196 267.624 595.495 266.958 594.054 266.645L592.751 266.366C591.976 266.192 591.667 265.924 591.672 265.482C591.667 264.964 592.239 264.607 592.99 264.607C593.82 264.607 594.258 265.059 594.397 265.561L596.037 265.382Z" fill="#1B1F23"/>
<path d="M531.333 324.818L535.027 331.003V335H536.558V331.003L540.252 324.818H538.507L535.847 329.447H535.738L533.078 324.818H531.333ZM543.556 335.154C545.708 335.154 547.115 333.578 547.115 331.217C547.115 328.84 545.708 327.264 543.556 327.264C541.403 327.264 539.996 328.84 539.996 331.217C539.996 333.578 541.403 335.154 543.556 335.154ZM543.561 333.906C542.154 333.906 541.498 332.678 541.498 331.212C541.498 329.75 542.154 328.507 543.561 328.507C544.958 328.507 545.614 329.75 545.614 331.212C545.614 332.678 544.958 333.906 543.561 333.906ZM553.612 331.833C553.617 333.131 552.653 333.747 551.817 333.747C550.898 333.747 550.261 333.081 550.261 332.042V327.364H548.775V332.221C548.775 334.115 549.814 335.099 551.28 335.099C552.429 335.099 553.209 334.493 553.562 333.678H553.642V335H555.104V327.364H553.612V331.833ZM564.023 335.154C565.827 335.154 566.996 334.07 567.16 332.584H565.713C565.524 333.409 564.883 333.896 564.032 333.896C562.775 333.896 561.964 332.847 561.964 331.182C561.964 329.546 562.79 328.517 564.032 328.517C564.977 328.517 565.554 329.114 565.713 329.83H567.16C567.001 328.288 565.743 327.264 564.008 327.264C561.855 327.264 560.463 328.885 560.463 331.217C560.463 333.518 561.805 335.154 564.023 335.154ZM573.587 331.833C573.592 333.131 572.627 333.747 571.792 333.747C570.872 333.747 570.236 333.081 570.236 332.042V327.364H568.749V332.221C568.749 334.115 569.788 335.099 571.255 335.099C572.403 335.099 573.184 334.493 573.537 333.678H573.616V335H575.078V327.364H573.587V331.833ZM577.075 335H578.562V330.337C578.562 329.337 579.333 328.616 580.387 328.616C580.695 328.616 581.043 328.671 581.162 328.706V327.284C581.013 327.264 580.72 327.249 580.531 327.249C579.636 327.249 578.87 327.756 578.592 328.577H578.512V327.364H577.075V335ZM582.449 335H583.935V330.337C583.935 329.337 584.706 328.616 585.76 328.616C586.068 328.616 586.416 328.671 586.535 328.706V327.284C586.386 327.264 586.093 327.249 585.904 327.249C585.009 327.249 584.243 327.756 583.965 328.577H583.885V327.364H582.449V335ZM590.839 335.154C592.505 335.154 593.683 334.334 594.021 333.091L592.614 332.837C592.346 333.558 591.699 333.926 590.854 333.926C589.581 333.926 588.726 333.101 588.687 331.629H594.116V331.102C594.116 328.343 592.465 327.264 590.735 327.264C588.607 327.264 587.205 328.885 587.205 331.232C587.205 333.603 588.587 335.154 590.839 335.154ZM588.692 330.516C588.751 329.432 589.537 328.492 590.745 328.492C591.898 328.492 592.654 329.347 592.659 330.516H588.692ZM597.251 330.466C597.251 329.248 597.997 328.552 599.031 328.552C600.04 328.552 600.652 329.213 600.652 330.322V335H602.138V330.143C602.138 328.254 601.099 327.264 599.538 327.264C598.39 327.264 597.639 327.796 597.286 328.607H597.192V327.364H595.765V335H597.251V330.466ZM607.697 327.364H606.131V325.534H604.644V327.364H603.526V328.557H604.644V333.066C604.639 334.453 605.698 335.124 606.871 335.099C607.344 335.094 607.662 335.005 607.836 334.94L607.567 333.712C607.468 333.732 607.284 333.777 607.045 333.777C606.563 333.777 606.131 333.618 606.131 332.758V328.557H607.697V327.364ZM610.992 324.818H609.505V335H610.992V324.818ZM613.931 337.844C615.159 337.844 615.94 337.202 616.377 336.019L619.534 327.379L617.928 327.364L615.994 333.29H615.915L613.981 327.364H612.39L615.184 335.099L615 335.607C614.622 336.596 614.09 336.685 613.275 336.462L612.917 337.68C613.096 337.764 613.484 337.844 613.931 337.844ZM626.126 330.466C626.126 329.248 626.897 328.552 627.956 328.552C628.98 328.552 629.592 329.203 629.592 330.322V335H631.078V330.143C631.078 328.239 630.034 327.264 628.463 327.264C627.275 327.264 626.559 327.781 626.201 328.607H626.107V324.818H624.64V335H626.126V330.466ZM635.284 335.169C636.547 335.169 637.258 334.528 637.541 333.956H637.601V335H639.053V329.929C639.053 327.707 637.303 327.264 636.089 327.264C634.707 327.264 633.435 327.821 632.938 329.213L634.335 329.531C634.553 328.989 635.11 328.467 636.109 328.467C637.069 328.467 637.561 328.969 637.561 329.835V329.869C637.561 330.411 637.004 330.401 635.632 330.56C634.185 330.729 632.704 331.107 632.704 332.842C632.704 334.344 633.832 335.169 635.284 335.169ZM635.607 333.976C634.767 333.976 634.161 333.598 634.161 332.862C634.161 332.067 634.866 331.783 635.727 331.669C636.209 331.604 637.352 331.475 637.566 331.261V332.246C637.566 333.151 636.845 333.976 635.607 333.976ZM647.292 327.364H645.696L643.767 333.24H643.687L641.753 327.364H640.157L642.932 335H644.523L647.292 327.364ZM651.706 335.154C653.372 335.154 654.55 334.334 654.888 333.091L653.481 332.837C653.213 333.558 652.567 333.926 651.721 333.926C650.449 333.926 649.594 333.101 649.554 331.629H654.983V331.102C654.983 328.343 653.332 327.264 651.602 327.264C649.474 327.264 648.072 328.885 648.072 331.232C648.072 333.603 649.454 335.154 651.706 335.154ZM649.559 330.516C649.618 329.432 650.404 328.492 651.612 328.492C652.765 328.492 653.521 329.347 653.526 330.516H649.559ZM532.119 359H533.655V355.147H535.743C535.778 355.147 535.808 355.147 535.842 355.147L537.911 359H539.661L537.403 354.879C538.651 354.416 539.273 353.377 539.273 352.01C539.273 350.136 538.109 348.818 535.748 348.818H532.119V359ZM533.655 353.825V350.136H535.584C537.1 350.136 537.727 350.857 537.727 352.01C537.727 353.158 537.1 353.825 535.604 353.825H533.655ZM544.218 359.154C545.884 359.154 547.062 358.334 547.4 357.091L545.993 356.837C545.725 357.558 545.078 357.926 544.233 357.926C542.96 357.926 542.105 357.101 542.066 355.629H547.494V355.102C547.494 352.343 545.844 351.264 544.114 351.264C541.986 351.264 540.584 352.885 540.584 355.232C540.584 357.603 541.966 359.154 544.218 359.154ZM542.07 354.516C542.13 353.432 542.916 352.492 544.124 352.492C545.277 352.492 546.033 353.347 546.038 354.516H542.07ZM551.366 359.169C552.629 359.169 553.34 358.528 553.623 357.956H553.683V359H555.135V353.929C555.135 351.707 553.385 351.264 552.172 351.264C550.789 351.264 549.517 351.821 549.02 353.213L550.417 353.531C550.635 352.989 551.192 352.467 552.191 352.467C553.151 352.467 553.643 352.969 553.643 353.835V353.869C553.643 354.411 553.086 354.401 551.714 354.56C550.267 354.729 548.786 355.107 548.786 356.842C548.786 358.344 549.914 359.169 551.366 359.169ZM551.689 357.976C550.849 357.976 550.243 357.598 550.243 356.862C550.243 356.067 550.949 355.783 551.809 355.669C552.291 355.604 553.434 355.475 553.648 355.261V356.246C553.648 357.151 552.927 357.976 551.689 357.976ZM558.601 348.818H557.115V359H558.601V348.818ZM560.601 359H562.087V351.364H560.601V359ZM561.352 350.185C561.864 350.185 562.291 349.788 562.291 349.3C562.291 348.813 561.864 348.411 561.352 348.411C560.835 348.411 560.412 348.813 560.412 349.3C560.412 349.788 560.835 350.185 561.352 350.185ZM563.928 359H570.058V357.707H565.942V357.638L569.919 352.447V351.364H564.062V352.656H568.064V352.726L563.928 357.981V359ZM574.884 359.154C576.55 359.154 577.728 358.334 578.066 357.091L576.659 356.837C576.391 357.558 575.744 357.926 574.899 357.926C573.626 357.926 572.771 357.101 572.732 355.629H578.161V355.102C578.161 352.343 576.51 351.264 574.78 351.264C572.652 351.264 571.25 352.885 571.25 355.232C571.25 357.603 572.632 359.154 574.884 359.154ZM572.737 354.516C572.796 353.432 573.582 352.492 574.79 352.492C575.943 352.492 576.699 353.347 576.704 354.516H572.737ZM582.669 359.149C584.061 359.149 584.607 358.299 584.876 357.812H585V359H586.452V348.818H584.965V352.602H584.876C584.607 352.129 584.1 351.264 582.678 351.264C580.834 351.264 579.477 352.721 579.477 355.197C579.477 357.668 580.814 359.149 582.669 359.149ZM582.997 357.881C581.669 357.881 580.978 356.713 580.978 355.182C580.978 353.665 581.654 352.527 582.997 352.527C584.294 352.527 584.99 353.586 584.99 355.182C584.99 356.788 584.279 357.881 582.997 357.881ZM599.289 352.035H600.865C600.521 350.051 598.826 348.679 596.629 348.679C593.994 348.679 592.07 350.663 592.07 353.914C592.07 357.136 593.939 359.139 596.698 359.139C599.169 359.139 600.934 357.518 600.934 354.948V353.79H596.932V355.058H599.448C599.413 356.698 598.329 357.737 596.698 357.737C594.904 357.737 593.596 356.38 593.596 353.904C593.596 351.438 594.914 350.081 596.639 350.081C597.991 350.081 598.906 350.827 599.289 352.035ZM604.987 359.169C606.25 359.169 606.961 358.528 607.244 357.956H607.304V359H608.756V353.929C608.756 351.707 607.006 351.264 605.793 351.264C604.411 351.264 603.138 351.821 602.641 353.213L604.038 353.531C604.256 352.989 604.813 352.467 605.812 352.467C606.772 352.467 607.264 352.969 607.264 353.835V353.869C607.264 354.411 606.707 354.401 605.335 354.56C603.888 354.729 602.407 355.107 602.407 356.842C602.407 358.344 603.536 359.169 604.987 359.169ZM605.31 357.976C604.47 357.976 603.864 357.598 603.864 356.862C603.864 356.067 604.57 355.783 605.43 355.669C605.912 355.604 607.055 355.475 607.269 355.261V356.246C607.269 357.151 606.548 357.976 605.31 357.976ZM610.736 359H612.222V351.364H610.736V359ZM611.486 350.185C611.998 350.185 612.426 349.788 612.426 349.3C612.426 348.813 611.998 348.411 611.486 348.411C610.969 348.411 610.547 348.813 610.547 349.3C610.547 349.788 610.969 350.185 611.486 350.185ZM615.708 354.466C615.708 353.248 616.454 352.552 617.488 352.552C618.498 352.552 619.109 353.213 619.109 354.322V359H620.596V354.143C620.596 352.254 619.556 351.264 617.995 351.264C616.847 351.264 616.096 351.796 615.743 352.607H615.649V351.364H614.222V359H615.708V354.466ZM628.311 353.228C628.003 352.04 627.074 351.264 625.423 351.264C623.698 351.264 622.475 352.174 622.475 353.526C622.475 354.61 623.131 355.331 624.563 355.649L625.855 355.933C626.591 356.097 626.934 356.425 626.934 356.902C626.934 357.494 626.303 357.956 625.328 357.956C624.439 357.956 623.867 357.573 623.688 356.822L622.251 357.041C622.5 358.393 623.623 359.154 625.338 359.154C627.183 359.154 628.461 358.175 628.461 356.793C628.461 355.714 627.775 355.048 626.373 354.724L625.159 354.446C624.319 354.247 623.956 353.964 623.961 353.447C623.956 352.86 624.593 352.442 625.438 352.442C626.363 352.442 626.79 352.955 626.964 353.467L628.311 353.228Z" fill="#586069"/>
<path d="M666.721 328.388H662.644C663.022 326.862 663.996 326.086 665.224 326.086C666.089 326.086 666.79 326.469 667.347 326.946L667.934 325.688C667.208 325.042 666.283 324.679 665.224 324.679C663.146 324.679 661.575 326.056 661.103 328.388H660.084L659.711 329.412H660.974C660.964 329.576 660.959 329.745 660.959 329.914C660.959 330.083 660.964 330.247 660.974 330.406H660.084L659.711 331.44H661.103C661.575 333.772 663.146 335.139 665.224 335.139C666.243 335.139 667.203 334.811 667.909 334.175L667.307 332.922C666.805 333.339 666.099 333.732 665.224 333.732C663.996 333.732 663.022 332.962 662.644 331.44H665.349L665.831 330.406H662.49C662.48 330.247 662.475 330.083 662.475 329.914C662.475 329.74 662.48 329.571 662.49 329.412H666.248L666.721 328.388ZM677.292 324.818H675.795L673.255 326.479V327.95L675.691 326.359H675.75V335H677.292V324.818ZM681.425 333.608H679.994L679.944 334.165C679.83 335.512 679.511 336.869 679.377 337.486H680.431C680.67 336.835 681.197 335.343 681.351 334.15L681.425 333.608ZM686.767 324.654C684.63 324.639 683.233 326.17 683.233 328.119C683.233 330.068 684.645 331.47 686.409 331.47C687.488 331.47 688.413 330.943 688.935 330.088H689.015C689.01 332.43 688.13 333.797 686.638 333.797C685.664 333.797 685.037 333.2 684.838 332.33H683.322C683.546 333.976 684.819 335.139 686.638 335.139C689.005 335.139 690.481 333.106 690.486 329.541C690.481 325.798 688.582 324.669 686.767 324.654ZM686.772 325.947C687.951 325.947 688.821 326.946 688.821 328.085C688.821 329.223 687.906 330.217 686.743 330.217C685.574 330.217 684.724 329.283 684.724 328.099C684.724 326.896 685.604 325.947 686.772 325.947ZM695.827 335.139C697.905 335.139 699.431 333.896 699.426 332.206C699.431 330.918 698.651 329.994 697.298 329.785V329.705C698.362 329.432 699.053 328.597 699.048 327.453C699.053 325.957 697.825 324.679 695.867 324.679C693.997 324.679 692.496 325.808 692.446 327.463H693.933C693.968 326.528 694.847 325.962 695.847 325.962C696.886 325.962 697.567 326.593 697.562 327.533C697.567 328.517 696.776 329.163 695.648 329.163H694.788V330.416H695.648C697.06 330.416 697.875 331.132 697.875 332.156C697.875 333.146 697.015 333.817 695.817 333.817C694.713 333.817 693.853 333.25 693.794 332.345H692.232C692.297 334.006 693.769 335.139 695.827 335.139ZM701.306 335H708.007V333.683H703.423V333.608L705.447 331.49C707.311 329.606 707.843 328.706 707.843 327.567C707.843 325.932 706.511 324.679 704.592 324.679C702.688 324.679 701.296 325.912 701.296 327.771H702.762C702.757 326.678 703.463 325.962 704.562 325.962C705.596 325.962 706.382 326.598 706.382 327.612C706.382 328.512 705.845 329.158 704.751 330.317L701.306 333.886V335ZM710.891 335.094C711.433 335.094 711.885 334.652 711.885 334.1C711.885 333.558 711.433 333.111 710.891 333.111C710.344 333.111 709.896 333.558 709.896 334.1C709.896 334.652 710.344 335.094 710.891 335.094ZM717.028 335.139C719.156 335.159 720.568 333.628 720.563 331.674C720.568 329.725 719.151 328.328 717.386 328.328C716.312 328.328 715.383 328.845 714.861 329.705H714.786C714.791 327.369 715.666 326.001 717.157 326.001C718.137 326.001 718.753 326.593 718.962 327.463H720.479C720.245 325.827 718.977 324.654 717.157 324.654C714.791 324.654 713.314 326.688 713.314 330.252C713.314 334.001 715.219 335.124 717.028 335.139ZM717.023 333.847C715.84 333.847 714.975 332.852 714.975 331.709C714.98 330.57 715.885 329.576 717.058 329.576C718.221 329.576 719.077 330.516 719.072 331.694C719.077 332.897 718.187 333.847 717.023 333.847ZM725.919 335.169C728.27 335.169 729.647 333.25 729.647 329.914C729.647 326.603 728.25 324.679 725.919 324.679C723.582 324.679 722.19 326.598 722.185 329.914C722.185 333.245 723.562 335.164 725.919 335.169ZM725.919 333.842C724.542 333.842 723.711 332.46 723.711 329.914C723.716 327.379 724.547 325.982 725.919 325.982C727.286 325.982 728.121 327.379 728.121 329.914C728.121 332.46 727.291 333.842 725.919 333.842Z" fill="#1B1F23"/>
<path fill-rule="evenodd" clip-rule="evenodd" d="M502.2 325.2C501.775 325.2 501.368 325.369 501.068 325.669C500.768 325.969 500.6 326.376 500.6 326.8V330C500.6 330.424 500.768 330.831 501.068 331.131C501.368 331.431 501.775 331.6 502.2 331.6V326.8H510.2C510.2 326.376 510.031 325.969 509.731 325.669C509.431 325.369 509.024 325.2 508.6 325.2H502.2ZM503.8 330C503.8 329.576 503.968 329.169 504.268 328.869C504.568 328.569 504.975 328.4 505.4 328.4H511.8C512.224 328.4 512.631 328.569 512.931 328.869C513.231 329.169 513.4 329.576 513.4 330V333.2C513.4 333.624 513.231 334.031 512.931 334.331C512.631 334.631 512.224 334.8 511.8 334.8H505.4C504.975 334.8 504.568 334.631 504.268 334.331C503.968 334.031 503.8 333.624 503.8 333.2V330ZM508.6 333.2C509.024 333.2 509.431 333.031 509.731 332.731C510.031 332.431 510.2 332.024 510.2 331.6C510.2 331.176 510.031 330.769 509.731 330.469C509.431 330.169 509.024 330 508.6 330C508.175 330 507.768 330.169 507.468 330.469C507.168 330.769 507 331.176 507 331.6C507 332.024 507.168 332.431 507.468 332.731C507.768 333.031 508.175 333.2 508.6 333.2Z" fill="#586069"/>
<rect x="499.5" y="390.5" width="281" height="71" rx="3.5" fill="#F6F8FA" stroke="#E1E4E8"/>
<path d="M522.383 412.388H518.306C518.684 410.862 519.658 410.086 520.886 410.086C521.751 410.086 522.452 410.469 523.009 410.946L523.596 409.688C522.87 409.042 521.945 408.679 520.886 408.679C518.808 408.679 517.237 410.056 516.765 412.388H515.746L515.373 413.412H516.636C516.626 413.576 516.621 413.745 516.621 413.914C516.621 414.083 516.626 414.247 516.636 414.406H515.746L515.373 415.44H516.765C517.237 417.772 518.808 419.139 520.886 419.139C521.906 419.139 522.865 418.811 523.571 418.175L522.969 416.922C522.467 417.339 521.761 417.732 520.886 417.732C519.658 417.732 518.684 416.962 518.306 415.44H521.011L521.493 414.406H518.152C518.142 414.247 518.137 414.083 518.137 413.914C518.137 413.74 518.142 413.571 518.152 413.412H521.911L522.383 412.388ZM529.091 419H535.792V417.683H531.209V417.608L533.232 415.49C535.096 413.606 535.628 412.706 535.628 411.567C535.628 409.932 534.296 408.679 532.377 408.679C530.473 408.679 529.081 409.912 529.081 411.771H530.547C530.542 410.678 531.248 409.962 532.347 409.962C533.381 409.962 534.167 410.598 534.167 411.612C534.167 412.512 533.63 413.158 532.536 414.317L529.091 417.886V419ZM541.221 419.139C543.3 419.139 544.826 417.896 544.821 416.206C544.826 414.918 544.045 413.994 542.693 413.785V413.705C543.757 413.432 544.448 412.597 544.443 411.453C544.448 409.957 543.22 408.679 541.261 408.679C539.392 408.679 537.89 409.808 537.841 411.463H539.327C539.362 410.528 540.242 409.962 541.241 409.962C542.28 409.962 542.961 410.593 542.956 411.533C542.961 412.517 542.171 413.163 541.042 413.163H540.182V414.416H541.042C542.454 414.416 543.27 415.132 543.27 416.156C543.27 417.146 542.41 417.817 541.211 417.817C540.108 417.817 539.248 417.25 539.188 416.345H537.627C537.692 418.006 539.163 419.139 541.221 419.139ZM546.7 419H553.402V417.683H548.818V417.608L550.841 415.49C552.706 413.606 553.238 412.706 553.238 411.567C553.238 409.932 551.905 408.679 549.986 408.679C548.082 408.679 546.69 409.912 546.69 411.771H548.157C548.152 410.678 548.858 409.962 549.956 409.962C550.991 409.962 551.776 410.598 551.776 411.612C551.776 412.512 551.239 413.158 550.145 414.317L546.7 417.886V419ZM556.285 419.094C556.827 419.094 557.28 418.652 557.28 418.1C557.28 417.558 556.827 417.111 556.285 417.111C555.738 417.111 555.291 417.558 555.291 418.1C555.291 418.652 555.738 419.094 556.285 419.094ZM559.037 417.011H563.865V419H565.331V417.011H566.678V415.709H565.331V408.818H563.437L559.037 415.768V417.011ZM563.874 415.709H560.648V415.629L563.795 410.648H563.874V415.709ZM571.956 419.139C574.034 419.139 575.56 417.896 575.555 416.206C575.56 414.918 574.78 413.994 573.427 413.785V413.705C574.491 413.432 575.182 412.597 575.177 411.453C575.182 409.957 573.954 408.679 571.996 408.679C570.126 408.679 568.625 409.808 568.575 411.463H570.062C570.096 410.528 570.976 409.962 571.976 409.962C573.015 409.962 573.696 410.593 573.691 411.533C573.696 412.517 572.905 413.163 571.777 413.163H570.917V414.416H571.777C573.189 414.416 574.004 415.132 574.004 416.156C574.004 417.146 573.144 417.817 571.946 417.817C570.842 417.817 569.982 417.25 569.922 416.345H568.361C568.426 418.006 569.898 419.139 571.956 419.139Z" fill="#1B1F23"/>
<path d="M584.376 419.154C586.529 419.154 587.936 417.578 587.936 415.217C587.936 412.84 586.529 411.264 584.376 411.264C582.223 411.264 580.816 412.84 580.816 415.217C580.816 417.578 582.223 419.154 584.376 419.154ZM584.381 417.906C582.974 417.906 582.318 416.678 582.318 415.212C582.318 413.75 582.974 412.507 584.381 412.507C585.778 412.507 586.434 413.75 586.434 415.212C586.434 416.678 585.778 417.906 584.381 417.906ZM593.229 411.364H591.584V410.678C591.584 410.001 591.862 409.634 592.588 409.634C592.896 409.634 593.115 409.703 593.254 409.748L593.602 408.545C593.393 408.465 592.961 408.341 592.359 408.341C591.151 408.341 590.092 409.047 590.092 410.479V411.364H588.914V412.557H590.092V419H591.584V412.557H593.229V411.364ZM599.408 421.844C600.636 421.844 601.416 421.202 601.854 420.019L605.011 411.379L603.405 411.364L601.471 417.29H601.391L599.457 411.364H597.866L600.661 419.099L600.477 419.607C600.099 420.596 599.567 420.685 598.751 420.462L598.393 421.68C598.572 421.764 598.96 421.844 599.408 421.844ZM609.355 419.154C611.507 419.154 612.914 417.578 612.914 415.217C612.914 412.84 611.507 411.264 609.355 411.264C607.202 411.264 605.795 412.84 605.795 415.217C605.795 417.578 607.202 419.154 609.355 419.154ZM609.36 417.906C607.953 417.906 607.296 416.678 607.296 415.212C607.296 413.75 607.953 412.507 609.36 412.507C610.757 412.507 611.413 413.75 611.413 415.212C611.413 416.678 610.757 417.906 609.36 417.906ZM619.411 415.833C619.416 417.131 618.451 417.747 617.616 417.747C616.696 417.747 616.06 417.081 616.06 416.042V411.364H614.574V416.221C614.574 418.115 615.613 419.099 617.079 419.099C618.228 419.099 619.008 418.493 619.361 417.678H619.441V419H620.902V411.364H619.411V415.833ZM622.9 419H624.386V414.337C624.386 413.337 625.157 412.616 626.211 412.616C626.519 412.616 626.867 412.671 626.986 412.706V411.284C626.837 411.264 626.544 411.249 626.355 411.249C625.46 411.249 624.694 411.756 624.416 412.577H624.336V411.364H622.9V419ZM632.097 419H633.633V415.147H635.721C635.756 415.147 635.786 415.147 635.821 415.147L637.889 419H639.639L637.382 414.879C638.63 414.416 639.251 413.377 639.251 412.01C639.251 410.136 638.088 408.818 635.726 408.818H632.097V419ZM633.633 413.825V410.136H635.562C637.079 410.136 637.705 410.857 637.705 412.01C637.705 413.158 637.079 413.825 635.582 413.825H633.633ZM644.197 419.154C645.862 419.154 647.04 418.334 647.379 417.091L645.972 416.837C645.703 417.558 645.057 417.926 644.212 417.926C642.939 417.926 642.084 417.101 642.044 415.629H647.473V415.102C647.473 412.343 645.822 411.264 644.092 411.264C641.964 411.264 640.562 412.885 640.562 415.232C640.562 417.603 641.945 419.154 644.197 419.154ZM642.049 414.516C642.109 413.432 642.894 412.492 644.102 412.492C645.256 412.492 646.011 413.347 646.016 414.516H642.049ZM651.345 419.169C652.607 419.169 653.318 418.528 653.602 417.956H653.661V419H655.113V413.929C655.113 411.707 653.363 411.264 652.15 411.264C650.768 411.264 649.495 411.821 648.998 413.213L650.395 413.531C650.614 412.989 651.171 412.467 652.17 412.467C653.129 412.467 653.622 412.969 653.622 413.835V413.869C653.622 414.411 653.065 414.401 651.693 414.56C650.246 414.729 648.764 415.107 648.764 416.842C648.764 418.344 649.893 419.169 651.345 419.169ZM651.668 417.976C650.828 417.976 650.221 417.598 650.221 416.862C650.221 416.067 650.927 415.783 651.787 415.669C652.269 415.604 653.413 415.475 653.627 415.261V416.246C653.627 417.151 652.906 417.976 651.668 417.976ZM658.58 408.818H657.093V419H658.58V408.818ZM660.579 419H662.066V411.364H660.579V419ZM661.33 410.185C661.842 410.185 662.27 409.788 662.27 409.3C662.27 408.813 661.842 408.411 661.33 408.411C660.813 408.411 660.39 408.813 660.39 409.3C660.39 409.788 660.813 410.185 661.33 410.185ZM663.907 419H670.037V417.707H665.92V417.638L669.897 412.447V411.364H664.041V412.656H668.043V412.726L663.907 417.981V419ZM674.863 419.154C676.528 419.154 677.706 418.334 678.045 417.091L676.638 416.837C676.369 417.558 675.723 417.926 674.878 417.926C673.605 417.926 672.75 417.101 672.71 415.629H678.139V415.102C678.139 412.343 676.488 411.264 674.758 411.264C672.631 411.264 671.229 412.885 671.229 415.232C671.229 417.603 672.611 419.154 674.863 419.154ZM672.715 414.516C672.775 413.432 673.56 412.492 674.768 412.492C675.922 412.492 676.677 413.347 676.682 414.516H672.715ZM682.647 419.149C684.039 419.149 684.586 418.299 684.854 417.812H684.979V419H686.43V408.818H684.944V412.602H684.854C684.586 412.129 684.079 411.264 682.657 411.264C680.812 411.264 679.455 412.721 679.455 415.197C679.455 417.668 680.793 419.149 682.647 419.149ZM682.975 417.881C681.648 417.881 680.957 416.713 680.957 415.182C680.957 413.665 681.633 412.527 682.975 412.527C684.273 412.527 684.969 413.586 684.969 415.182C684.969 416.788 684.258 417.881 682.975 417.881ZM699.267 412.035H700.843C700.5 410.051 698.805 408.679 696.607 408.679C693.972 408.679 692.048 410.663 692.048 413.914C692.048 417.136 693.918 419.139 696.677 419.139C699.148 419.139 700.913 417.518 700.913 414.948V413.79H696.911V415.058H699.426C699.391 416.698 698.308 417.737 696.677 417.737C694.882 417.737 693.575 416.38 693.575 413.904C693.575 411.438 694.892 410.081 696.617 410.081C697.969 410.081 698.884 410.827 699.267 412.035ZM704.966 419.169C706.229 419.169 706.939 418.528 707.223 417.956H707.282V419H708.734V413.929C708.734 411.707 706.984 411.264 705.771 411.264C704.389 411.264 703.116 411.821 702.619 413.213L704.016 413.531C704.235 412.989 704.792 412.467 705.791 412.467C706.751 412.467 707.243 412.969 707.243 413.835V413.869C707.243 414.411 706.686 414.401 705.314 414.56C703.867 414.729 702.385 415.107 702.385 416.842C702.385 418.344 703.514 419.169 704.966 419.169ZM705.289 417.976C704.449 417.976 703.842 417.598 703.842 416.862C703.842 416.067 704.548 415.783 705.408 415.669C705.89 415.604 707.034 415.475 707.248 415.261V416.246C707.248 417.151 706.527 417.976 705.289 417.976ZM710.714 419H712.201V411.364H710.714V419ZM711.465 410.185C711.977 410.185 712.404 409.788 712.404 409.3C712.404 408.813 711.977 408.411 711.465 408.411C710.948 408.411 710.525 408.813 710.525 409.3C710.525 409.788 710.948 410.185 711.465 410.185ZM715.687 414.466C715.687 413.248 716.433 412.552 717.467 412.552C718.476 412.552 719.088 413.213 719.088 414.322V419H720.574V414.143C720.574 412.254 719.535 411.264 717.974 411.264C716.825 411.264 716.075 411.796 715.722 412.607H715.627V411.364H714.2V419H715.687V414.466ZM728.29 413.228C727.982 412.04 727.052 411.264 725.401 411.264C723.676 411.264 722.453 412.174 722.453 413.526C722.453 414.61 723.11 415.331 724.541 415.649L725.834 415.933C726.57 416.097 726.913 416.425 726.913 416.902C726.913 417.494 726.281 417.956 725.307 417.956C724.417 417.956 723.845 417.573 723.666 416.822L722.23 417.041C722.478 418.393 723.602 419.154 725.317 419.154C727.161 419.154 728.439 418.175 728.439 416.793C728.439 415.714 727.753 415.048 726.351 414.724L725.138 414.446C724.298 414.247 723.935 413.964 723.94 413.447C723.935 412.86 724.571 412.442 725.416 412.442C726.341 412.442 726.769 412.955 726.943 413.467L728.29 413.228ZM515.999 443H517.486V438.292C517.486 437.263 518.207 436.547 519.052 436.547C519.877 436.547 520.449 437.094 520.449 437.924V443H521.93V438.133C521.93 437.213 522.492 436.547 523.462 436.547C524.247 436.547 524.893 436.984 524.893 438.018V443H526.38V437.879C526.38 436.134 525.406 435.264 524.023 435.264C522.925 435.264 522.099 435.791 521.732 436.607H521.652C521.319 435.771 520.618 435.264 519.599 435.264C518.589 435.264 517.839 435.766 517.521 436.607H517.426V435.364H515.999V443ZM533.21 439.833C533.215 441.131 532.25 441.747 531.415 441.747C530.495 441.747 529.859 441.081 529.859 440.042V435.364H528.372V440.221C528.372 442.115 529.411 443.099 530.878 443.099C532.026 443.099 532.807 442.493 533.16 441.678H533.24V443H534.701V435.364H533.21V439.833ZM542.421 437.228C542.113 436.04 541.183 435.264 539.532 435.264C537.807 435.264 536.584 436.174 536.584 437.526C536.584 438.61 537.24 439.331 538.672 439.649L539.965 439.933C540.701 440.097 541.044 440.425 541.044 440.902C541.044 441.494 540.412 441.956 539.438 441.956C538.548 441.956 537.976 441.573 537.797 440.822L536.36 441.041C536.609 442.393 537.733 443.154 539.448 443.154C541.292 443.154 542.57 442.175 542.57 440.793C542.57 439.714 541.884 439.048 540.482 438.724L539.269 438.446C538.429 438.247 538.066 437.964 538.071 437.447C538.066 436.86 538.702 436.442 539.547 436.442C540.472 436.442 540.9 436.955 541.074 437.467L542.421 437.228ZM547.769 435.364H546.203V433.534H544.716V435.364H543.598V436.557H544.716V441.066C544.711 442.453 545.77 443.124 546.944 443.099C547.416 443.094 547.734 443.005 547.908 442.94L547.64 441.712C547.54 441.732 547.356 441.777 547.118 441.777C546.635 441.777 546.203 441.618 546.203 440.758V436.557H547.769V435.364ZM553.238 443H554.689V441.812H554.814C555.082 442.299 555.629 443.149 557.021 443.149C558.871 443.149 560.213 441.668 560.213 439.197C560.213 436.721 558.851 435.264 557.006 435.264C555.589 435.264 555.077 436.129 554.814 436.602H554.724V432.818H553.238V443ZM554.694 439.182C554.694 437.586 555.39 436.527 556.688 436.527C558.035 436.527 558.711 437.665 558.711 439.182C558.711 440.713 558.015 441.881 556.688 441.881C555.41 441.881 554.694 440.788 554.694 439.182ZM565.173 443.154C566.839 443.154 568.017 442.334 568.355 441.091L566.948 440.837C566.68 441.558 566.033 441.926 565.188 441.926C563.915 441.926 563.06 441.101 563.021 439.629H568.45V439.102C568.45 436.343 566.799 435.264 565.069 435.264C562.941 435.264 561.539 436.885 561.539 439.232C561.539 441.603 562.921 443.154 565.173 443.154ZM563.026 438.516C563.085 437.432 563.871 436.492 565.079 436.492C566.232 436.492 566.988 437.347 566.993 438.516H563.026ZM577.369 435.364H575.803V433.534H574.316V435.364H573.197V436.557H574.316V441.066C574.311 442.453 575.37 443.124 576.543 443.099C577.016 443.094 577.334 443.005 577.508 442.94L577.239 441.712C577.14 441.732 576.956 441.777 576.717 441.777C576.235 441.777 575.803 441.618 575.803 440.758V436.557H577.369V435.364ZM581.235 443.169C582.498 443.169 583.209 442.528 583.492 441.956H583.552V443H585.004V437.929C585.004 435.707 583.254 435.264 582.041 435.264C580.659 435.264 579.386 435.821 578.889 437.213L580.286 437.531C580.504 436.989 581.061 436.467 582.061 436.467C583.02 436.467 583.512 436.969 583.512 437.835V437.869C583.512 438.411 582.955 438.401 581.583 438.56C580.137 438.729 578.655 439.107 578.655 440.842C578.655 442.344 579.784 443.169 581.235 443.169ZM581.558 441.976C580.718 441.976 580.112 441.598 580.112 440.862C580.112 440.067 580.818 439.783 581.678 439.669C582.16 439.604 583.303 439.475 583.517 439.261V440.246C583.517 441.151 582.796 441.976 581.558 441.976ZM588.157 435.364H586.526L588.873 439.182L586.496 443H588.127L589.842 440.146L591.562 443H593.188L590.787 439.182L593.168 435.364H591.543L589.842 438.337L588.157 435.364ZM597.671 443.154C599.337 443.154 600.515 442.334 600.853 441.091L599.446 440.837C599.178 441.558 598.531 441.926 597.686 441.926C596.414 441.926 595.558 441.101 595.519 439.629H600.948V439.102C600.948 436.343 599.297 435.264 597.567 435.264C595.439 435.264 594.037 436.885 594.037 439.232C594.037 441.603 595.419 443.154 597.671 443.154ZM595.524 438.516C595.583 437.432 596.369 436.492 597.577 436.492C598.73 436.492 599.486 437.347 599.491 438.516H595.524ZM605.456 443.149C606.848 443.149 607.395 442.299 607.663 441.812H607.787V443H609.239V432.818H607.752V436.602H607.663C607.395 436.129 606.887 435.264 605.466 435.264C603.621 435.264 602.264 436.721 602.264 439.197C602.264 441.668 603.601 443.149 605.456 443.149ZM605.784 441.881C604.456 441.881 603.765 440.713 603.765 439.182C603.765 437.665 604.441 436.527 605.784 436.527C607.081 436.527 607.777 437.586 607.777 439.182C607.777 440.788 607.066 441.881 605.784 441.881Z" fill="#586069"/>
<line x1="475" y1="297.5" x2="805" y2="297.5" stroke="#E1E4E8"/>
</svg>
