<svg width="254" height="268" viewBox="0 0 254 268" fill="none" xmlns="http://www.w3.org/2000/svg">
<rect width="576" height="268" rx="8" fill="#1B1F23"/>
<path d="M31.625 27.4205H33.3182C33.267 25.5568 31.6193 24.2045 29.2557 24.2045C26.9205 24.2045 25.1307 25.5398 25.1307 27.5455C25.1307 29.1648 26.2898 30.1136 28.1591 30.6193L29.5341 30.9943C30.7784 31.3239 31.7386 31.733 31.7386 32.767C31.7386 33.9034 30.6534 34.6534 29.1591 34.6534C27.8068 34.6534 26.6818 34.0511 26.5795 32.7841H24.8182C24.9318 34.892 26.5625 36.1932 29.1705 36.1932C31.9034 36.1932 33.4773 34.7557 33.4773 32.7841C33.4773 30.6875 31.608 29.875 30.1307 29.5114L28.9943 29.2159C28.0852 28.983 26.875 28.5568 26.8807 27.4432C26.8807 26.4545 27.7841 25.7216 29.2159 25.7216C30.5511 25.7216 31.5 26.3466 31.625 27.4205ZM39.2003 36.1761C41.1037 36.1761 42.4503 35.2386 42.8366 33.8182L41.2287 33.5284C40.9219 34.3523 40.1832 34.7727 39.2173 34.7727C37.7628 34.7727 36.7855 33.8295 36.7401 32.1477H42.9446V31.5455C42.9446 28.392 41.0582 27.1591 39.081 27.1591C36.6491 27.1591 35.0469 29.0114 35.0469 31.6932C35.0469 34.4034 36.6264 36.1761 39.2003 36.1761ZM36.7457 30.875C36.8139 29.6364 37.7116 28.5625 39.0923 28.5625C40.4105 28.5625 41.2741 29.5398 41.2798 30.875H36.7457ZM47.3693 36.1932C48.8125 36.1932 49.625 35.4602 49.9489 34.8068H50.017V36H51.6761V30.2045C51.6761 27.6648 49.6761 27.1591 48.2898 27.1591C46.7102 27.1591 45.2557 27.7955 44.6875 29.3864L46.2841 29.75C46.5341 29.1307 47.1705 28.5341 48.3125 28.5341C49.4091 28.5341 49.9716 29.108 49.9716 30.0966V30.1364C49.9716 30.7557 49.3352 30.7443 47.767 30.9261C46.1136 31.1193 44.4205 31.5511 44.4205 33.5341C44.4205 35.25 45.7102 36.1932 47.3693 36.1932ZM47.7386 34.8295C46.7784 34.8295 46.0852 34.3977 46.0852 33.5568C46.0852 32.6477 46.892 32.3239 47.875 32.1932C48.4261 32.1193 49.733 31.9716 49.9773 31.7273V32.8523C49.9773 33.8864 49.1534 34.8295 47.7386 34.8295ZM53.9389 36H55.6378V30.6705C55.6378 29.5284 56.5185 28.7045 57.723 28.7045C58.0753 28.7045 58.473 28.767 58.6094 28.8068V27.1818C58.4389 27.1591 58.1037 27.142 57.8878 27.142C56.8651 27.142 55.9901 27.7216 55.6719 28.6591H55.581V27.2727H53.9389V36ZM63.4432 36.1761C65.5057 36.1761 66.8409 34.9375 67.0284 33.2386H65.375C65.1591 34.1818 64.4261 34.7386 63.4545 34.7386C62.017 34.7386 61.0909 33.5398 61.0909 31.6364C61.0909 29.767 62.0341 28.5909 63.4545 28.5909C64.5341 28.5909 65.1932 29.2727 65.375 30.0909H67.0284C66.8466 28.3295 65.4091 27.1591 63.4261 27.1591C60.9659 27.1591 59.375 29.0114 59.375 31.6761C59.375 34.3068 60.9091 36.1761 63.4432 36.1761ZM70.544 30.8182C70.544 29.4261 71.4247 28.6307 72.6349 28.6307C73.8054 28.6307 74.5043 29.375 74.5043 30.6534V36H76.2031V30.4489C76.2031 28.2727 75.0099 27.1591 73.2145 27.1591C71.8565 27.1591 71.0384 27.75 70.6293 28.6932H70.5213V24.3636H68.8452V36H70.544V30.8182ZM86.858 27.2727H84.9773V26.4886C84.9773 25.7159 85.2955 25.2955 86.125 25.2955C86.4773 25.2955 86.7273 25.375 86.8864 25.4261L87.2841 24.0511C87.0455 23.9602 86.5511 23.8182 85.8636 23.8182C84.483 23.8182 83.2727 24.625 83.2727 26.2614V27.2727H81.9261V28.6364H83.2727V36H84.9773V28.6364H86.858V27.2727ZM91.9432 36.1761C94.4034 36.1761 96.0114 34.375 96.0114 31.6761C96.0114 28.9602 94.4034 27.1591 91.9432 27.1591C89.483 27.1591 87.875 28.9602 87.875 31.6761C87.875 34.375 89.483 36.1761 91.9432 36.1761ZM91.9489 34.75C90.3409 34.75 89.5909 33.3466 89.5909 31.6705C89.5909 30 90.3409 28.5795 91.9489 28.5795C93.5455 28.5795 94.2955 30 94.2955 31.6705C94.2955 33.3466 93.5455 34.75 91.9489 34.75ZM97.9077 36H99.6065V30.6705C99.6065 29.5284 100.487 28.7045 101.692 28.7045C102.044 28.7045 102.442 28.767 102.578 28.8068V27.1818C102.408 27.1591 102.072 27.142 101.857 27.142C100.834 27.142 99.9588 27.7216 99.6406 28.6591H99.5497V27.2727H97.9077V36ZM110.822 36.1932C112.266 36.1932 113.078 35.4602 113.402 34.8068H113.47V36H115.129V30.2045C115.129 27.6648 113.129 27.1591 111.743 27.1591C110.163 27.1591 108.709 27.7955 108.141 29.3864L109.737 29.75C109.987 29.1307 110.624 28.5341 111.766 28.5341C112.862 28.5341 113.425 29.108 113.425 30.0966V30.1364C113.425 30.7557 112.788 30.7443 111.22 30.9261C109.567 31.1193 107.874 31.5511 107.874 33.5341C107.874 35.25 109.163 36.1932 110.822 36.1932ZM111.192 34.8295C110.232 34.8295 109.538 34.3977 109.538 33.5568C109.538 32.6477 110.345 32.3239 111.328 32.1932C111.879 32.1193 113.186 31.9716 113.43 31.7273V32.8523C113.43 33.8864 112.607 34.8295 111.192 34.8295ZM131.428 28.1477C131.03 25.6591 129.081 24.2045 126.621 24.2045C123.609 24.2045 121.388 26.4602 121.388 30.1818C121.388 33.9034 123.598 36.1591 126.621 36.1591C129.178 36.1591 131.047 34.5568 131.428 32.2557L129.655 32.25C129.354 33.7386 128.104 34.5568 126.632 34.5568C124.638 34.5568 123.132 33.0284 123.132 30.1818C123.132 27.358 124.632 25.8068 126.638 25.8068C128.121 25.8068 129.365 26.642 129.655 28.1477H131.428ZM137.068 36.1761C139.528 36.1761 141.136 34.375 141.136 31.6761C141.136 28.9602 139.528 27.1591 137.068 27.1591C134.608 27.1591 133 28.9602 133 31.6761C133 34.375 134.608 36.1761 137.068 36.1761ZM137.074 34.75C135.466 34.75 134.716 33.3466 134.716 31.6705C134.716 30 135.466 28.5795 137.074 28.5795C138.67 28.5795 139.42 30 139.42 31.6705C139.42 33.3466 138.67 34.75 137.074 34.75ZM143.033 36H144.732V30.6193C144.732 29.4432 145.555 28.625 146.521 28.625C147.464 28.625 148.118 29.25 148.118 30.1989V36H149.811V30.4375C149.811 29.3864 150.453 28.625 151.561 28.625C152.459 28.625 153.197 29.125 153.197 30.3068V36H154.896V30.1477C154.896 28.1534 153.783 27.1591 152.203 27.1591C150.947 27.1591 150.004 27.7614 149.584 28.6932H149.493C149.112 27.7386 148.311 27.1591 147.146 27.1591C145.993 27.1591 145.135 27.733 144.771 28.6932H144.663V27.2727H143.033V36ZM157.173 36H158.872V30.6193C158.872 29.4432 159.696 28.625 160.662 28.625C161.605 28.625 162.259 29.25 162.259 30.1989V36H163.952V30.4375C163.952 29.3864 164.594 28.625 165.702 28.625C166.599 28.625 167.338 29.125 167.338 30.3068V36H169.037V30.1477C169.037 28.1534 167.923 27.1591 166.344 27.1591C165.088 27.1591 164.145 27.7614 163.724 28.6932H163.634C163.253 27.7386 162.452 27.1591 161.287 27.1591C160.134 27.1591 159.276 27.733 158.912 28.6932H158.804V27.2727H157.173V36ZM173.854 36.1932C175.297 36.1932 176.109 35.4602 176.433 34.8068H176.501V36H178.161V30.2045C178.161 27.6648 176.161 27.1591 174.774 27.1591C173.195 27.1591 171.74 27.7955 171.172 29.3864L172.768 29.75C173.018 29.1307 173.655 28.5341 174.797 28.5341C175.893 28.5341 176.456 29.108 176.456 30.0966V30.1364C176.456 30.7557 175.82 30.7443 174.251 30.9261C172.598 31.1193 170.905 31.5511 170.905 33.5341C170.905 35.25 172.195 36.1932 173.854 36.1932ZM174.223 34.8295C173.263 34.8295 172.57 34.3977 172.57 33.5568C172.57 32.6477 173.376 32.3239 174.359 32.1932C174.911 32.1193 176.217 31.9716 176.462 31.7273V32.8523C176.462 33.8864 175.638 34.8295 174.223 34.8295ZM182.122 30.8182C182.122 29.4261 182.974 28.6307 184.156 28.6307C185.31 28.6307 186.009 29.3864 186.009 30.6534V36H187.707V30.4489C187.707 28.2898 186.52 27.1591 184.736 27.1591C183.423 27.1591 182.565 27.767 182.162 28.6932H182.054V27.2727H180.423V36H182.122V30.8182ZM193.253 36.1705C194.844 36.1705 195.469 35.1989 195.776 34.642H195.918V36H197.577V24.3636H195.878V28.6875H195.776C195.469 28.1477 194.889 27.1591 193.264 27.1591C191.156 27.1591 189.605 28.8239 189.605 31.6534C189.605 34.4773 191.134 36.1705 193.253 36.1705ZM193.628 34.7216C192.111 34.7216 191.321 33.3864 191.321 31.6364C191.321 29.9034 192.094 28.6023 193.628 28.6023C195.111 28.6023 195.906 29.8125 195.906 31.6364C195.906 33.4716 195.094 34.7216 193.628 34.7216ZM205.355 36.108C205.974 36.108 206.491 35.6023 206.491 34.9716C206.491 34.3523 205.974 33.8409 205.355 33.8409C204.73 33.8409 204.219 34.3523 204.219 34.9716C204.219 35.6023 204.73 36.108 205.355 36.108ZM209.886 36.108C210.506 36.108 211.023 35.6023 211.023 34.9716C211.023 34.3523 210.506 33.8409 209.886 33.8409C209.261 33.8409 208.75 34.3523 208.75 34.9716C208.75 35.6023 209.261 36.108 209.886 36.108ZM214.418 36.108C215.037 36.108 215.554 35.6023 215.554 34.9716C215.554 34.3523 215.037 33.8409 214.418 33.8409C213.793 33.8409 213.281 34.3523 213.281 34.9716C213.281 35.6023 213.793 36.108 214.418 36.108Z" fill="#959DA5"/>
<line opacity="0.65" x1="576" y1="60.5" y2="60.5" stroke="#2F363D"/>
<rect x="8" y="68" width="560" height="48" rx="6" fill="#24292E"/>
<path fill-rule="evenodd" clip-rule="evenodd" d="M32.0016 85.6001C31.7894 85.6001 31.5859 85.6844 31.4359 85.8344C31.2858 85.9844 31.2016 86.1879 31.2016 86.4001V87.2001C31.2016 87.4123 31.2858 87.6158 31.4359 87.7658C31.5859 87.9158 31.7894 88.0001 32.0016 88.0001C32.2137 88.0001 32.4172 87.9158 32.5672 87.7658C32.7173 87.6158 32.8016 87.4123 32.8016 87.2001V86.4001C32.8016 86.1879 32.7173 85.9844 32.5672 85.8344C32.4172 85.6844 32.2137 85.6001 32.0016 85.6001ZM27.2016 87.2001H29.6016C29.6016 87.8366 29.8544 88.4471 30.3045 88.8972C30.7546 89.3472 31.365 89.6001 32.0016 89.6001C32.6381 89.6001 33.2485 89.3472 33.6986 88.8972C34.1487 88.4471 34.4016 87.8366 34.4016 87.2001H36.8016C37.2259 87.2001 37.6329 87.3687 37.9329 87.6687C38.233 87.9688 38.4016 88.3758 38.4016 88.8001V96.0001C38.4016 96.4244 38.233 96.8314 37.9329 97.1315C37.6329 97.4315 37.2259 97.6001 36.8016 97.6001H27.2016C26.7772 97.6001 26.3702 97.4315 26.0702 97.1315C25.7701 96.8314 25.6016 96.4244 25.6016 96.0001V88.8001C25.6016 88.3758 25.7701 87.9688 26.0702 87.6687C26.3702 87.3687 26.7772 87.2001 27.2016 87.2001ZM29.2016 92.8001C29.5198 92.8001 29.825 92.6737 30.0501 92.4486C30.2751 92.2236 30.4016 91.9184 30.4016 91.6001C30.4016 91.2818 30.2751 90.9766 30.0501 90.7516C29.825 90.5265 29.5198 90.4001 29.2016 90.4001C28.8833 90.4001 28.5781 90.5265 28.353 90.7516C28.128 90.9766 28.0016 91.2818 28.0016 91.6001C28.0016 91.9184 28.128 92.2236 28.353 92.4486C28.5781 92.6737 28.8833 92.8001 29.2016 92.8001ZM31.1616 96.0001C31.2205 95.7096 31.2142 95.4097 31.1431 95.1219C31.0719 94.8342 30.9377 94.5659 30.7501 94.3364C30.5625 94.1069 30.3263 93.922 30.0585 93.795C29.7907 93.668 29.498 93.6021 29.2016 93.6021C28.9052 93.6021 28.6125 93.668 28.3447 93.795C28.0768 93.922 27.8406 94.1069 27.653 94.3364C27.4654 94.5659 27.3312 94.8342 27.2601 95.1219C27.1889 95.4097 27.1826 95.7096 27.2416 96.0001H31.1616ZM33.6016 91.2001C33.3894 91.2001 33.1859 91.2844 33.0359 91.4344C32.8858 91.5844 32.8016 91.7879 32.8016 92.0001C32.8016 92.2123 32.8858 92.4158 33.0359 92.5658C33.1859 92.7158 33.3894 92.8001 33.6016 92.8001H36.0016C36.2137 92.8001 36.4172 92.7158 36.5672 92.5658C36.7173 92.4158 36.8016 92.2123 36.8016 92.0001C36.8016 91.7879 36.7173 91.5844 36.5672 91.4344C36.4172 91.2844 36.2137 91.2001 36.0016 91.2001H33.6016ZM32.8016 94.4001C32.8016 94.1879 32.8858 93.9844 33.0359 93.8344C33.1859 93.6844 33.3894 93.6001 33.6016 93.6001H35.2016C35.4137 93.6001 35.6172 93.6844 35.7672 93.8344C35.9173 93.9844 36.0016 94.1879 36.0016 94.4001C36.0016 94.6123 35.9173 94.8158 35.7672 94.9658C35.6172 95.1158 35.4137 95.2001 35.2016 95.2001H33.6016C33.3894 95.2001 33.1859 95.1158 33.0359 94.9658C32.8858 94.8158 32.8016 94.6123 32.8016 94.4001Z" fill="#959DA5"/>
<path d="M54.2614 98L55.3295 94.9205H59.875L60.9375 98H62.8011L58.6136 86.3636H56.5852L52.3977 98H54.2614ZM55.8409 93.4432L57.5568 88.4773H57.6477L59.3636 93.4432H55.8409ZM64.4815 98H66.1406V96.642H66.2827C66.5895 97.1989 67.2145 98.1705 68.8054 98.1705C70.919 98.1705 72.4531 96.4773 72.4531 93.6534C72.4531 90.8239 70.8963 89.1591 68.7884 89.1591C67.169 89.1591 66.5838 90.1477 66.2827 90.6875H66.1804V86.3636H64.4815V98ZM66.1463 93.6364C66.1463 91.8125 66.9418 90.6023 68.4247 90.6023C69.9645 90.6023 70.7372 91.9034 70.7372 93.6364C70.7372 95.3864 69.9418 96.7216 68.4247 96.7216C66.9645 96.7216 66.1463 95.4716 66.1463 93.6364ZM78.0369 98.1761C80.4972 98.1761 82.1051 96.375 82.1051 93.6761C82.1051 90.9602 80.4972 89.1591 78.0369 89.1591C75.5767 89.1591 73.9688 90.9602 73.9688 93.6761C73.9688 96.375 75.5767 98.1761 78.0369 98.1761ZM78.0426 96.75C76.4347 96.75 75.6847 95.3466 75.6847 93.6705C75.6847 92 76.4347 90.5795 78.0426 90.5795C79.6392 90.5795 80.3892 92 80.3892 93.6705C80.3892 95.3466 79.6392 96.75 78.0426 96.75ZM89.5298 94.3807C89.5355 95.8636 88.4332 96.5682 87.4787 96.5682C86.4276 96.5682 85.7003 95.8068 85.7003 94.6193V89.2727H84.0014V94.8239C84.0014 96.9886 85.1889 98.1136 86.8651 98.1136C88.1776 98.1136 89.0696 97.4205 89.473 96.4886H89.5639V98H91.2344V89.2727H89.5298V94.3807ZM97.5909 89.2727H95.8011V87.1818H94.1023V89.2727H92.8239V90.6364H94.1023V95.7898C94.0966 97.375 95.3068 98.142 96.6477 98.1136C97.1875 98.108 97.5511 98.0057 97.75 97.9318L97.4432 96.5284C97.3295 96.5511 97.1193 96.6023 96.8466 96.6023C96.2955 96.6023 95.8011 96.4205 95.8011 95.4375V90.6364H97.5909V89.2727Z" fill="white"/>
<path fill-rule="evenodd" clip-rule="evenodd" d="M27.2016 134.4C26.7772 134.4 26.3702 134.568 26.0702 134.869C25.7701 135.169 25.6016 135.576 25.6016 136V144C25.6016 144.424 25.7701 144.831 26.0702 145.131C26.3702 145.431 26.7772 145.6 27.2016 145.6H36.8016C37.2259 145.6 37.6329 145.431 37.9329 145.131C38.233 144.831 38.4016 144.424 38.4016 144V136C38.4016 135.576 38.233 135.169 37.9329 134.869C37.6329 134.568 37.2259 134.4 36.8016 134.4H27.2016ZM36.8016 144H27.2016L30.4016 137.6L32.8016 142.4L34.4016 139.2L36.8016 144Z" fill="#959DA5"/>
<path d="M61.1534 138.04H62.9545C62.5625 135.773 60.625 134.205 58.1136 134.205C55.1023 134.205 52.9034 136.472 52.9034 140.188C52.9034 143.869 55.0398 146.159 58.1932 146.159C61.017 146.159 63.0341 144.307 63.0341 141.369V140.045H58.4602V141.494H61.3352C61.2955 143.369 60.0568 144.557 58.1932 144.557C56.142 144.557 54.6477 143.006 54.6477 140.176C54.6477 137.358 56.1534 135.807 58.125 135.807C59.6705 135.807 60.7159 136.659 61.1534 138.04ZM67.6662 146.193C69.1094 146.193 69.9219 145.46 70.2457 144.807H70.3139V146H71.973V140.205C71.973 137.665 69.973 137.159 68.5866 137.159C67.0071 137.159 65.5526 137.795 64.9844 139.386L66.581 139.75C66.831 139.131 67.4673 138.534 68.6094 138.534C69.706 138.534 70.2685 139.108 70.2685 140.097V140.136C70.2685 140.756 69.6321 140.744 68.0639 140.926C66.4105 141.119 64.7173 141.551 64.7173 143.534C64.7173 145.25 66.0071 146.193 67.6662 146.193ZM68.0355 144.83C67.0753 144.83 66.3821 144.398 66.3821 143.557C66.3821 142.648 67.1889 142.324 68.1719 142.193C68.723 142.119 70.0298 141.972 70.2741 141.727V142.852C70.2741 143.886 69.4503 144.83 68.0355 144.83ZM75.9347 134.364H74.2358V146H75.9347V134.364ZM79.919 134.364H78.2202V146H79.919V134.364ZM85.9659 146.176C87.8693 146.176 89.2159 145.239 89.6023 143.818L87.9943 143.528C87.6875 144.352 86.9489 144.773 85.983 144.773C84.5284 144.773 83.5511 143.83 83.5057 142.148H89.7102V141.545C89.7102 138.392 87.8239 137.159 85.8466 137.159C83.4148 137.159 81.8125 139.011 81.8125 141.693C81.8125 144.403 83.392 146.176 85.9659 146.176ZM83.5114 140.875C83.5795 139.636 84.4773 138.562 85.858 138.562C87.1761 138.562 88.0398 139.54 88.0455 140.875H83.5114ZM91.5952 146H93.294V140.67C93.294 139.528 94.1747 138.705 95.3793 138.705C95.7315 138.705 96.1293 138.767 96.2656 138.807V137.182C96.0952 137.159 95.7599 137.142 95.544 137.142C94.5213 137.142 93.6463 137.722 93.3281 138.659H93.2372V137.273H91.5952V146ZM99.0753 149.273C100.479 149.273 101.365 148.54 101.871 147.165L105.479 137.29L103.643 137.273L101.433 144.045H101.342L99.1321 137.273H97.3139L100.507 146.114L100.297 146.693C99.8651 147.852 99.2571 147.949 98.3253 147.693L97.9162 149.085C98.1207 149.176 98.5639 149.273 99.0753 149.273Z" fill="white"/>
<path fill-rule="evenodd" clip-rule="evenodd" d="M33.8534 182.441C33.9531 182.474 34.0453 182.527 34.1247 182.595C34.2042 182.664 34.2692 182.748 34.3163 182.842C34.3633 182.936 34.3913 183.038 34.3988 183.143C34.4063 183.248 34.393 183.353 34.3598 183.453L31.1598 193.053C31.0928 193.254 30.9485 193.421 30.7587 193.516C30.5689 193.611 30.3492 193.626 30.1478 193.559C29.9465 193.492 29.78 193.348 29.685 193.158C29.59 192.968 29.5744 192.749 29.6414 192.547L32.8414 182.947C32.8746 182.848 32.9271 182.755 32.9959 182.676C33.0647 182.597 33.1485 182.532 33.2425 182.484C33.3365 182.437 33.4388 182.409 33.5436 182.402C33.6484 182.394 33.7537 182.408 33.8534 182.441ZM28.5662 185.035C28.7162 185.185 28.8004 185.388 28.8004 185.6C28.8004 185.812 28.7162 186.016 28.5662 186.166L26.7318 188L28.5662 189.835C28.6426 189.908 28.7036 189.997 28.7455 190.094C28.7874 190.192 28.8095 190.297 28.8104 190.403C28.8113 190.509 28.7911 190.615 28.7509 190.713C28.7106 190.811 28.6512 190.901 28.5761 190.976C28.501 191.051 28.4117 191.11 28.3134 191.15C28.2151 191.191 28.1097 191.211 28.0035 191.21C27.8973 191.209 27.7923 191.187 27.6947 191.145C27.5971 191.103 27.5088 191.042 27.435 190.966L25.035 188.566C24.885 188.416 24.8008 188.212 24.8008 188C24.8008 187.788 24.885 187.585 25.035 187.435L27.435 185.035C27.585 184.885 27.7885 184.8 28.0006 184.8C28.2127 184.8 28.4162 184.885 28.5662 185.035ZM35.435 185.035C35.585 184.885 35.7885 184.8 36.0006 184.8C36.2127 184.8 36.4162 184.885 36.5662 185.035L38.9662 187.435C39.1162 187.585 39.2004 187.788 39.2004 188C39.2004 188.212 39.1162 188.416 38.9662 188.566L36.5662 190.966C36.4924 191.042 36.4041 191.103 36.3065 191.145C36.2089 191.187 36.104 191.209 35.9977 191.21C35.8915 191.211 35.7862 191.191 35.6878 191.15C35.5895 191.11 35.5002 191.051 35.4251 190.976C35.35 190.901 35.2906 190.811 35.2504 190.713C35.2101 190.615 35.1899 190.509 35.1908 190.403C35.1917 190.297 35.2138 190.192 35.2557 190.094C35.2977 189.997 35.3586 189.908 35.435 189.835L37.2694 188L35.435 186.166C35.285 186.016 35.2008 185.812 35.2008 185.6C35.2008 185.388 35.285 185.185 35.435 185.035Z" fill="#959DA5"/>
<path d="M62.9432 186.148C62.5455 183.659 60.5966 182.205 58.1364 182.205C55.125 182.205 52.9034 184.46 52.9034 188.182C52.9034 191.903 55.1136 194.159 58.1364 194.159C60.6932 194.159 62.5625 192.557 62.9432 190.256L61.1705 190.25C60.8693 191.739 59.6193 192.557 58.1477 192.557C56.1534 192.557 54.6477 191.028 54.6477 188.182C54.6477 185.358 56.1477 183.807 58.1534 183.807C59.6364 183.807 60.8807 184.642 61.1705 186.148H62.9432ZM68.5838 194.176C71.044 194.176 72.652 192.375 72.652 189.676C72.652 186.96 71.044 185.159 68.5838 185.159C66.1236 185.159 64.5156 186.96 64.5156 189.676C64.5156 192.375 66.1236 194.176 68.5838 194.176ZM68.5895 192.75C66.9815 192.75 66.2315 191.347 66.2315 189.67C66.2315 188 66.9815 186.58 68.5895 186.58C70.1861 186.58 70.9361 188 70.9361 189.67C70.9361 191.347 70.1861 192.75 68.5895 192.75ZM77.8153 194.17C79.4062 194.17 80.0312 193.199 80.3381 192.642H80.4801V194H82.1392V182.364H80.4403V186.688H80.3381C80.0312 186.148 79.4517 185.159 77.8267 185.159C75.7188 185.159 74.1676 186.824 74.1676 189.653C74.1676 192.477 75.696 194.17 77.8153 194.17ZM78.1903 192.722C76.6733 192.722 75.8835 191.386 75.8835 189.636C75.8835 187.903 76.6562 186.602 78.1903 186.602C79.6733 186.602 80.4688 187.812 80.4688 189.636C80.4688 191.472 79.6562 192.722 78.1903 192.722ZM88.3253 194.176C90.2287 194.176 91.5753 193.239 91.9616 191.818L90.3537 191.528C90.0469 192.352 89.3082 192.773 88.3423 192.773C86.8878 192.773 85.9105 191.83 85.8651 190.148H92.0696V189.545C92.0696 186.392 90.1832 185.159 88.206 185.159C85.7741 185.159 84.1719 187.011 84.1719 189.693C84.1719 192.403 85.7514 194.176 88.3253 194.176ZM85.8707 188.875C85.9389 187.636 86.8366 186.562 88.2173 186.562C89.5355 186.562 90.3991 187.54 90.4048 188.875H85.8707ZM104.672 185.42H106.365C106.314 183.557 104.666 182.205 102.303 182.205C99.9673 182.205 98.1776 183.54 98.1776 185.545C98.1776 187.165 99.3366 188.114 101.206 188.619L102.581 188.994C103.825 189.324 104.786 189.733 104.786 190.767C104.786 191.903 103.7 192.653 102.206 192.653C100.854 192.653 99.7287 192.051 99.6264 190.784H97.8651C97.9787 192.892 99.6094 194.193 102.217 194.193C104.95 194.193 106.524 192.756 106.524 190.784C106.524 188.688 104.655 187.875 103.178 187.511L102.041 187.216C101.132 186.983 99.9219 186.557 99.9276 185.443C99.9276 184.455 100.831 183.722 102.263 183.722C103.598 183.722 104.547 184.347 104.672 185.42ZM110.185 188.818C110.185 187.426 111.037 186.631 112.219 186.631C113.372 186.631 114.071 187.386 114.071 188.653V194H115.77V188.449C115.77 186.29 114.582 185.159 112.798 185.159C111.486 185.159 110.628 185.767 110.224 186.693H110.116V185.273H108.486V194H110.185V188.818ZM118.048 194H119.747V185.273H118.048V194ZM118.906 183.926C119.491 183.926 119.98 183.472 119.98 182.915C119.98 182.358 119.491 181.898 118.906 181.898C118.315 181.898 117.832 182.358 117.832 182.915C117.832 183.472 118.315 183.926 118.906 183.926ZM122.033 197.273H123.732V192.642H123.834C124.141 193.199 124.766 194.17 126.357 194.17C128.47 194.17 130.004 192.477 130.004 189.653C130.004 186.824 128.447 185.159 126.339 185.159C124.72 185.159 124.135 186.148 123.834 186.688H123.692V185.273H122.033V197.273ZM123.697 189.636C123.697 187.812 124.493 186.602 125.976 186.602C127.516 186.602 128.288 187.903 128.288 189.636C128.288 191.386 127.493 192.722 125.976 192.722C124.516 192.722 123.697 191.472 123.697 189.636ZM131.908 197.273H133.607V192.642H133.709C134.016 193.199 134.641 194.17 136.232 194.17C138.345 194.17 139.879 192.477 139.879 189.653C139.879 186.824 138.322 185.159 136.214 185.159C134.595 185.159 134.01 186.148 133.709 186.688H133.567V185.273H131.908V197.273ZM133.572 189.636C133.572 187.812 134.368 186.602 135.851 186.602C137.391 186.602 138.163 187.903 138.163 189.636C138.163 191.386 137.368 192.722 135.851 192.722C134.391 192.722 133.572 191.472 133.572 189.636ZM145.544 194.176C147.447 194.176 148.794 193.239 149.18 191.818L147.572 191.528C147.266 192.352 146.527 192.773 145.561 192.773C144.107 192.773 143.129 191.83 143.084 190.148H149.288V189.545C149.288 186.392 147.402 185.159 145.425 185.159C142.993 185.159 141.391 187.011 141.391 189.693C141.391 192.403 142.97 194.176 145.544 194.176ZM143.089 188.875C143.158 187.636 144.055 186.562 145.436 186.562C146.754 186.562 147.618 187.54 147.624 188.875H143.089ZM155.247 185.273H153.457V183.182H151.759V185.273H150.48V186.636H151.759V191.79C151.753 193.375 152.963 194.142 154.304 194.114C154.844 194.108 155.207 194.006 155.406 193.932L155.099 192.528C154.986 192.551 154.776 192.602 154.503 192.602C153.952 192.602 153.457 192.42 153.457 191.438V186.636H155.247V185.273ZM163.526 187.403C163.173 186.045 162.111 185.159 160.224 185.159C158.253 185.159 156.855 186.199 156.855 187.744C156.855 188.983 157.605 189.807 159.241 190.17L160.719 190.494C161.56 190.682 161.952 191.057 161.952 191.602C161.952 192.278 161.23 192.807 160.116 192.807C159.099 192.807 158.446 192.369 158.241 191.511L156.599 191.761C156.884 193.307 158.168 194.176 160.128 194.176C162.236 194.176 163.696 193.057 163.696 191.477C163.696 190.244 162.912 189.483 161.31 189.114L159.923 188.795C158.963 188.568 158.548 188.244 158.554 187.653C158.548 186.983 159.276 186.506 160.241 186.506C161.298 186.506 161.787 187.091 161.986 187.676L163.526 187.403Z" fill="white"/>
<path fill-rule="evenodd" clip-rule="evenodd" d="M33.8534 230.441C33.9531 230.474 34.0453 230.527 34.1247 230.595C34.2042 230.664 34.2692 230.748 34.3163 230.842C34.3633 230.936 34.3913 231.038 34.3988 231.143C34.4063 231.248 34.393 231.353 34.3598 231.453L31.1598 241.053C31.0928 241.254 30.9485 241.421 30.7587 241.516C30.5689 241.611 30.3492 241.626 30.1478 241.559C29.9465 241.492 29.78 241.348 29.685 241.158C29.59 240.968 29.5744 240.749 29.6414 240.547L32.8414 230.947C32.8746 230.848 32.9271 230.755 32.9959 230.676C33.0647 230.597 33.1485 230.532 33.2425 230.484C33.3365 230.437 33.4388 230.409 33.5436 230.402C33.6484 230.394 33.7537 230.408 33.8534 230.441ZM28.5662 233.035C28.7162 233.185 28.8004 233.388 28.8004 233.6C28.8004 233.812 28.7162 234.016 28.5662 234.166L26.7318 236L28.5662 237.835C28.6426 237.908 28.7036 237.997 28.7455 238.094C28.7874 238.192 28.8095 238.297 28.8104 238.403C28.8113 238.509 28.7911 238.615 28.7509 238.713C28.7106 238.811 28.6512 238.901 28.5761 238.976C28.501 239.051 28.4117 239.11 28.3134 239.15C28.2151 239.191 28.1097 239.211 28.0035 239.21C27.8973 239.209 27.7923 239.187 27.6947 239.145C27.5971 239.103 27.5088 239.042 27.435 238.966L25.035 236.566C24.885 236.416 24.8008 236.212 24.8008 236C24.8008 235.788 24.885 235.585 25.035 235.435L27.435 233.035C27.585 232.885 27.7885 232.8 28.0006 232.8C28.2127 232.8 28.4162 232.885 28.5662 233.035ZM35.435 233.035C35.585 232.885 35.7885 232.8 36.0006 232.8C36.2127 232.8 36.4162 232.885 36.5662 233.035L38.9662 235.435C39.1162 235.585 39.2004 235.788 39.2004 236C39.2004 236.212 39.1162 236.416 38.9662 236.566L36.5662 238.966C36.4924 239.042 36.4041 239.103 36.3065 239.145C36.2089 239.187 36.104 239.209 35.9977 239.21C35.8915 239.211 35.7862 239.191 35.6878 239.15C35.5895 239.11 35.5002 239.051 35.4251 238.976C35.35 238.901 35.2906 238.811 35.2504 238.713C35.2101 238.615 35.1899 238.509 35.1908 238.403C35.1917 238.297 35.2138 238.192 35.2557 238.094C35.2977 237.997 35.3586 237.908 35.435 237.835L37.2694 236L35.435 234.166C35.285 234.016 35.2008 233.812 35.2008 233.6C35.2008 233.388 35.285 233.185 35.435 233.035Z" fill="#959DA5"/>
<path d="M62.9432 234.148C62.5455 231.659 60.5966 230.205 58.1364 230.205C55.125 230.205 52.9034 232.46 52.9034 236.182C52.9034 239.903 55.1136 242.159 58.1364 242.159C60.6932 242.159 62.5625 240.557 62.9432 238.256L61.1705 238.25C60.8693 239.739 59.6193 240.557 58.1477 240.557C56.1534 240.557 54.6477 239.028 54.6477 236.182C54.6477 233.358 56.1477 231.807 58.1534 231.807C59.6364 231.807 60.8807 232.642 61.1705 234.148H62.9432ZM68.5838 242.176C71.044 242.176 72.652 240.375 72.652 237.676C72.652 234.96 71.044 233.159 68.5838 233.159C66.1236 233.159 64.5156 234.96 64.5156 237.676C64.5156 240.375 66.1236 242.176 68.5838 242.176ZM68.5895 240.75C66.9815 240.75 66.2315 239.347 66.2315 237.67C66.2315 236 66.9815 234.58 68.5895 234.58C70.1861 234.58 70.9361 236 70.9361 237.67C70.9361 239.347 70.1861 240.75 68.5895 240.75ZM77.8153 242.17C79.4062 242.17 80.0312 241.199 80.3381 240.642H80.4801V242H82.1392V230.364H80.4403V234.688H80.3381C80.0312 234.148 79.4517 233.159 77.8267 233.159C75.7188 233.159 74.1676 234.824 74.1676 237.653C74.1676 240.477 75.696 242.17 77.8153 242.17ZM78.1903 240.722C76.6733 240.722 75.8835 239.386 75.8835 237.636C75.8835 235.903 76.6562 234.602 78.1903 234.602C79.6733 234.602 80.4688 235.812 80.4688 237.636C80.4688 239.472 79.6562 240.722 78.1903 240.722ZM88.3253 242.176C90.2287 242.176 91.5753 241.239 91.9616 239.818L90.3537 239.528C90.0469 240.352 89.3082 240.773 88.3423 240.773C86.8878 240.773 85.9105 239.83 85.8651 238.148H92.0696V237.545C92.0696 234.392 90.1832 233.159 88.206 233.159C85.7741 233.159 84.1719 235.011 84.1719 237.693C84.1719 240.403 85.7514 242.176 88.3253 242.176ZM85.8707 236.875C85.9389 235.636 86.8366 234.562 88.2173 234.562C89.5355 234.562 90.3991 235.54 90.4048 236.875H85.8707ZM104.672 233.42H106.365C106.314 231.557 104.666 230.205 102.303 230.205C99.9673 230.205 98.1776 231.54 98.1776 233.545C98.1776 235.165 99.3366 236.114 101.206 236.619L102.581 236.994C103.825 237.324 104.786 237.733 104.786 238.767C104.786 239.903 103.7 240.653 102.206 240.653C100.854 240.653 99.7287 240.051 99.6264 238.784H97.8651C97.9787 240.892 99.6094 242.193 102.217 242.193C104.95 242.193 106.524 240.756 106.524 238.784C106.524 236.688 104.655 235.875 103.178 235.511L102.041 235.216C101.132 234.983 99.9219 234.557 99.9276 233.443C99.9276 232.455 100.831 231.722 102.263 231.722C103.598 231.722 104.547 232.347 104.672 233.42ZM110.185 236.818C110.185 235.426 111.037 234.631 112.219 234.631C113.372 234.631 114.071 235.386 114.071 236.653V242H115.77V236.449C115.77 234.29 114.582 233.159 112.798 233.159C111.486 233.159 110.628 233.767 110.224 234.693H110.116V233.273H108.486V242H110.185V236.818ZM118.048 242H119.747V233.273H118.048V242ZM118.906 231.926C119.491 231.926 119.98 231.472 119.98 230.915C119.98 230.358 119.491 229.898 118.906 229.898C118.315 229.898 117.832 230.358 117.832 230.915C117.832 231.472 118.315 231.926 118.906 231.926ZM122.033 245.273H123.732V240.642H123.834C124.141 241.199 124.766 242.17 126.357 242.17C128.47 242.17 130.004 240.477 130.004 237.653C130.004 234.824 128.447 233.159 126.339 233.159C124.72 233.159 124.135 234.148 123.834 234.688H123.692V233.273H122.033V245.273ZM123.697 237.636C123.697 235.812 124.493 234.602 125.976 234.602C127.516 234.602 128.288 235.903 128.288 237.636C128.288 239.386 127.493 240.722 125.976 240.722C124.516 240.722 123.697 239.472 123.697 237.636ZM131.908 245.273H133.607V240.642H133.709C134.016 241.199 134.641 242.17 136.232 242.17C138.345 242.17 139.879 240.477 139.879 237.653C139.879 234.824 138.322 233.159 136.214 233.159C134.595 233.159 134.01 234.148 133.709 234.688H133.567V233.273H131.908V245.273ZM133.572 237.636C133.572 235.812 134.368 234.602 135.851 234.602C137.391 234.602 138.163 235.903 138.163 237.636C138.163 239.386 137.368 240.722 135.851 240.722C134.391 240.722 133.572 239.472 133.572 237.636ZM145.544 242.176C147.447 242.176 148.794 241.239 149.18 239.818L147.572 239.528C147.266 240.352 146.527 240.773 145.561 240.773C144.107 240.773 143.129 239.83 143.084 238.148H149.288V237.545C149.288 234.392 147.402 233.159 145.425 233.159C142.993 233.159 141.391 235.011 141.391 237.693C141.391 240.403 142.97 242.176 145.544 242.176ZM143.089 236.875C143.158 235.636 144.055 234.562 145.436 234.562C146.754 234.562 147.618 235.54 147.624 236.875H143.089ZM155.247 233.273H153.457V231.182H151.759V233.273H150.48V234.636H151.759V239.79C151.753 241.375 152.963 242.142 154.304 242.114C154.844 242.108 155.207 242.006 155.406 241.932L155.099 240.528C154.986 240.551 154.776 240.602 154.503 240.602C153.952 240.602 153.457 240.42 153.457 239.438V234.636H155.247V233.273ZM163.526 235.403C163.173 234.045 162.111 233.159 160.224 233.159C158.253 233.159 156.855 234.199 156.855 235.744C156.855 236.983 157.605 237.807 159.241 238.17L160.719 238.494C161.56 238.682 161.952 239.057 161.952 239.602C161.952 240.278 161.23 240.807 160.116 240.807C159.099 240.807 158.446 240.369 158.241 239.511L156.599 239.761C156.884 241.307 158.168 242.176 160.128 242.176C162.236 242.176 163.696 241.057 163.696 239.477C163.696 238.244 162.912 237.483 161.31 237.114L159.923 236.795C158.963 236.568 158.548 236.244 158.554 235.653C158.548 234.983 159.276 234.506 160.241 234.506C161.298 234.506 161.787 235.091 161.986 235.676L163.526 235.403Z" fill="white"/>
</svg>
