<svg width="266" height="292" viewBox="0 0 266 292" fill="none" xmlns="http://www.w3.org/2000/svg">
<g filter="url(#filter0_dd)">
<rect x="12" y="2" width="576" height="268" rx="8" fill="#1B1F23"/>
<path d="M43.625 29.4205H45.3182C45.267 27.5568 43.6193 26.2045 41.2557 26.2045C38.9205 26.2045 37.1307 27.5398 37.1307 29.5455C37.1307 31.1648 38.2898 32.1136 40.1591 32.6193L41.5341 32.9943C42.7784 33.3239 43.7386 33.733 43.7386 34.767C43.7386 35.9034 42.6534 36.6534 41.1591 36.6534C39.8068 36.6534 38.6818 36.0511 38.5795 34.7841H36.8182C36.9318 36.892 38.5625 38.1932 41.1705 38.1932C43.9034 38.1932 45.4773 36.7557 45.4773 34.7841C45.4773 32.6875 43.608 31.875 42.1307 31.5114L40.9943 31.2159C40.0852 30.983 38.875 30.5568 38.8807 29.4432C38.8807 28.4545 39.7841 27.7216 41.2159 27.7216C42.5511 27.7216 43.5 28.3466 43.625 29.4205ZM51.2003 38.1761C53.1037 38.1761 54.4503 37.2386 54.8366 35.8182L53.2287 35.5284C52.9219 36.3523 52.1832 36.7727 51.2173 36.7727C49.7628 36.7727 48.7855 35.8295 48.7401 34.1477H54.9446V33.5455C54.9446 30.392 53.0582 29.1591 51.081 29.1591C48.6491 29.1591 47.0469 31.0114 47.0469 33.6932C47.0469 36.4034 48.6264 38.1761 51.2003 38.1761ZM48.7457 32.875C48.8139 31.6364 49.7116 30.5625 51.0923 30.5625C52.4105 30.5625 53.2741 31.5398 53.2798 32.875H48.7457ZM59.3693 38.1932C60.8125 38.1932 61.625 37.4602 61.9489 36.8068H62.017V38H63.6761V32.2045C63.6761 29.6648 61.6761 29.1591 60.2898 29.1591C58.7102 29.1591 57.2557 29.7955 56.6875 31.3864L58.2841 31.75C58.5341 31.1307 59.1705 30.5341 60.3125 30.5341C61.4091 30.5341 61.9716 31.108 61.9716 32.0966V32.1364C61.9716 32.7557 61.3352 32.7443 59.767 32.9261C58.1136 33.1193 56.4205 33.5511 56.4205 35.5341C56.4205 37.25 57.7102 38.1932 59.3693 38.1932ZM59.7386 36.8295C58.7784 36.8295 58.0852 36.3977 58.0852 35.5568C58.0852 34.6477 58.892 34.3239 59.875 34.1932C60.4261 34.1193 61.733 33.9716 61.9773 33.7273V34.8523C61.9773 35.8864 61.1534 36.8295 59.7386 36.8295ZM65.9389 38H67.6378V32.6705C67.6378 31.5284 68.5185 30.7045 69.723 30.7045C70.0753 30.7045 70.473 30.767 70.6094 30.8068V29.1818C70.4389 29.1591 70.1037 29.142 69.8878 29.142C68.8651 29.142 67.9901 29.7216 67.6719 30.6591H67.581V29.2727H65.9389V38ZM75.4432 38.1761C77.5057 38.1761 78.8409 36.9375 79.0284 35.2386H77.375C77.1591 36.1818 76.4261 36.7386 75.4545 36.7386C74.017 36.7386 73.0909 35.5398 73.0909 33.6364C73.0909 31.767 74.0341 30.5909 75.4545 30.5909C76.5341 30.5909 77.1932 31.2727 77.375 32.0909H79.0284C78.8466 30.3295 77.4091 29.1591 75.4261 29.1591C72.9659 29.1591 71.375 31.0114 71.375 33.6761C71.375 36.3068 72.9091 38.1761 75.4432 38.1761ZM82.544 32.8182C82.544 31.4261 83.4247 30.6307 84.6349 30.6307C85.8054 30.6307 86.5043 31.375 86.5043 32.6534V38H88.2031V32.4489C88.2031 30.2727 87.0099 29.1591 85.2145 29.1591C83.8565 29.1591 83.0384 29.75 82.6293 30.6932H82.5213V26.3636H80.8452V38H82.544V32.8182ZM98.858 29.2727H96.9773V28.4886C96.9773 27.7159 97.2955 27.2955 98.125 27.2955C98.4773 27.2955 98.7273 27.375 98.8864 27.4261L99.2841 26.0511C99.0455 25.9602 98.5511 25.8182 97.8636 25.8182C96.483 25.8182 95.2727 26.625 95.2727 28.2614V29.2727H93.9261V30.6364H95.2727V38H96.9773V30.6364H98.858V29.2727ZM103.943 38.1761C106.403 38.1761 108.011 36.375 108.011 33.6761C108.011 30.9602 106.403 29.1591 103.943 29.1591C101.483 29.1591 99.875 30.9602 99.875 33.6761C99.875 36.375 101.483 38.1761 103.943 38.1761ZM103.949 36.75C102.341 36.75 101.591 35.3466 101.591 33.6705C101.591 32 102.341 30.5795 103.949 30.5795C105.545 30.5795 106.295 32 106.295 33.6705C106.295 35.3466 105.545 36.75 103.949 36.75ZM109.908 38H111.607V32.6705C111.607 31.5284 112.487 30.7045 113.692 30.7045C114.044 30.7045 114.442 30.767 114.578 30.8068V29.1818C114.408 29.1591 114.072 29.142 113.857 29.142C112.834 29.142 111.959 29.7216 111.641 30.6591H111.55V29.2727H109.908V38ZM122.822 38.1932C124.266 38.1932 125.078 37.4602 125.402 36.8068H125.47V38H127.129V32.2045C127.129 29.6648 125.129 29.1591 123.743 29.1591C122.163 29.1591 120.709 29.7955 120.141 31.3864L121.737 31.75C121.987 31.1307 122.624 30.5341 123.766 30.5341C124.862 30.5341 125.425 31.108 125.425 32.0966V32.1364C125.425 32.7557 124.788 32.7443 123.22 32.9261C121.567 33.1193 119.874 33.5511 119.874 35.5341C119.874 37.25 121.163 38.1932 122.822 38.1932ZM123.192 36.8295C122.232 36.8295 121.538 36.3977 121.538 35.5568C121.538 34.6477 122.345 34.3239 123.328 34.1932C123.879 34.1193 125.186 33.9716 125.43 33.7273V34.8523C125.43 35.8864 124.607 36.8295 123.192 36.8295ZM143.428 30.1477C143.03 27.6591 141.081 26.2045 138.621 26.2045C135.609 26.2045 133.388 28.4602 133.388 32.1818C133.388 35.9034 135.598 38.1591 138.621 38.1591C141.178 38.1591 143.047 36.5568 143.428 34.2557L141.655 34.25C141.354 35.7386 140.104 36.5568 138.632 36.5568C136.638 36.5568 135.132 35.0284 135.132 32.1818C135.132 29.358 136.632 27.8068 138.638 27.8068C140.121 27.8068 141.365 28.642 141.655 30.1477H143.428ZM149.068 38.1761C151.528 38.1761 153.136 36.375 153.136 33.6761C153.136 30.9602 151.528 29.1591 149.068 29.1591C146.608 29.1591 145 30.9602 145 33.6761C145 36.375 146.608 38.1761 149.068 38.1761ZM149.074 36.75C147.466 36.75 146.716 35.3466 146.716 33.6705C146.716 32 147.466 30.5795 149.074 30.5795C150.67 30.5795 151.42 32 151.42 33.6705C151.42 35.3466 150.67 36.75 149.074 36.75ZM155.033 38H156.732V32.6193C156.732 31.4432 157.555 30.625 158.521 30.625C159.464 30.625 160.118 31.25 160.118 32.1989V38H161.811V32.4375C161.811 31.3864 162.453 30.625 163.561 30.625C164.459 30.625 165.197 31.125 165.197 32.3068V38H166.896V32.1477C166.896 30.1534 165.783 29.1591 164.203 29.1591C162.947 29.1591 162.004 29.7614 161.584 30.6932H161.493C161.112 29.7386 160.311 29.1591 159.146 29.1591C157.993 29.1591 157.135 29.733 156.771 30.6932H156.663V29.2727H155.033V38ZM169.173 38H170.872V32.6193C170.872 31.4432 171.696 30.625 172.662 30.625C173.605 30.625 174.259 31.25 174.259 32.1989V38H175.952V32.4375C175.952 31.3864 176.594 30.625 177.702 30.625C178.599 30.625 179.338 31.125 179.338 32.3068V38H181.037V32.1477C181.037 30.1534 179.923 29.1591 178.344 29.1591C177.088 29.1591 176.145 29.7614 175.724 30.6932H175.634C175.253 29.7386 174.452 29.1591 173.287 29.1591C172.134 29.1591 171.276 29.733 170.912 30.6932H170.804V29.2727H169.173V38ZM185.854 38.1932C187.297 38.1932 188.109 37.4602 188.433 36.8068H188.501V38H190.161V32.2045C190.161 29.6648 188.161 29.1591 186.774 29.1591C185.195 29.1591 183.74 29.7955 183.172 31.3864L184.768 31.75C185.018 31.1307 185.655 30.5341 186.797 30.5341C187.893 30.5341 188.456 31.108 188.456 32.0966V32.1364C188.456 32.7557 187.82 32.7443 186.251 32.9261C184.598 33.1193 182.905 33.5511 182.905 35.5341C182.905 37.25 184.195 38.1932 185.854 38.1932ZM186.223 36.8295C185.263 36.8295 184.57 36.3977 184.57 35.5568C184.57 34.6477 185.376 34.3239 186.359 34.1932C186.911 34.1193 188.217 33.9716 188.462 33.7273V34.8523C188.462 35.8864 187.638 36.8295 186.223 36.8295ZM194.122 32.8182C194.122 31.4261 194.974 30.6307 196.156 30.6307C197.31 30.6307 198.009 31.3864 198.009 32.6534V38H199.707V32.4489C199.707 30.2898 198.52 29.1591 196.736 29.1591C195.423 29.1591 194.565 29.767 194.162 30.6932H194.054V29.2727H192.423V38H194.122V32.8182ZM205.253 38.1705C206.844 38.1705 207.469 37.1989 207.776 36.642H207.918V38H209.577V26.3636H207.878V30.6875H207.776C207.469 30.1477 206.889 29.1591 205.264 29.1591C203.156 29.1591 201.605 30.8239 201.605 33.6534C201.605 36.4773 203.134 38.1705 205.253 38.1705ZM205.628 36.7216C204.111 36.7216 203.321 35.3864 203.321 33.6364C203.321 31.9034 204.094 30.6023 205.628 30.6023C207.111 30.6023 207.906 31.8125 207.906 33.6364C207.906 35.4716 207.094 36.7216 205.628 36.7216ZM217.355 38.108C217.974 38.108 218.491 37.6023 218.491 36.9716C218.491 36.3523 217.974 35.8409 217.355 35.8409C216.73 35.8409 216.219 36.3523 216.219 36.9716C216.219 37.6023 216.73 38.108 217.355 38.108ZM221.886 38.108C222.506 38.108 223.023 37.6023 223.023 36.9716C223.023 36.3523 222.506 35.8409 221.886 35.8409C221.261 35.8409 220.75 36.3523 220.75 36.9716C220.75 37.6023 221.261 38.108 221.886 38.108ZM226.418 38.108C227.037 38.108 227.554 37.6023 227.554 36.9716C227.554 36.3523 227.037 35.8409 226.418 35.8409C225.793 35.8409 225.281 36.3523 225.281 36.9716C225.281 37.6023 225.793 38.108 226.418 38.108Z" fill="#959DA5"/>
<line opacity="0.65" x1="588" y1="62.5" x2="12" y2="62.5" stroke="#2F363D"/>
<rect x="20" y="70" width="560" height="48" rx="6" fill="#24292E"/>
<path fill-rule="evenodd" clip-rule="evenodd" d="M44.0016 87.6001C43.7894 87.6001 43.5859 87.6844 43.4359 87.8344C43.2858 87.9844 43.2016 88.1879 43.2016 88.4001V89.2001C43.2016 89.4123 43.2858 89.6158 43.4359 89.7658C43.5859 89.9158 43.7894 90.0001 44.0016 90.0001C44.2137 90.0001 44.4172 89.9158 44.5672 89.7658C44.7173 89.6158 44.8016 89.4123 44.8016 89.2001V88.4001C44.8016 88.1879 44.7173 87.9844 44.5672 87.8344C44.4172 87.6844 44.2137 87.6001 44.0016 87.6001V87.6001ZM39.2016 89.2001H41.6016C41.6016 89.8366 41.8544 90.4471 42.3045 90.8972C42.7546 91.3472 43.365 91.6001 44.0016 91.6001C44.6381 91.6001 45.2485 91.3472 45.6986 90.8972C46.1487 90.4471 46.4016 89.8366 46.4016 89.2001H48.8016C49.2259 89.2001 49.6329 89.3687 49.9329 89.6687C50.233 89.9688 50.4016 90.3758 50.4016 90.8001V98.0001C50.4016 98.4244 50.233 98.8314 49.9329 99.1315C49.6329 99.4315 49.2259 99.6001 48.8016 99.6001H39.2016C38.7772 99.6001 38.3702 99.4315 38.0702 99.1315C37.7701 98.8314 37.6016 98.4244 37.6016 98.0001V90.8001C37.6016 90.3758 37.7701 89.9688 38.0702 89.6687C38.3702 89.3687 38.7772 89.2001 39.2016 89.2001V89.2001ZM41.2016 94.8001C41.5198 94.8001 41.825 94.6737 42.0501 94.4486C42.2751 94.2236 42.4016 93.9184 42.4016 93.6001C42.4016 93.2818 42.2751 92.9766 42.0501 92.7516C41.825 92.5265 41.5198 92.4001 41.2016 92.4001C40.8833 92.4001 40.5781 92.5265 40.353 92.7516C40.128 92.9766 40.0016 93.2818 40.0016 93.6001C40.0016 93.9184 40.128 94.2236 40.353 94.4486C40.5781 94.6737 40.8833 94.8001 41.2016 94.8001V94.8001ZM43.1616 98.0001C43.2205 97.7096 43.2142 97.4097 43.1431 97.1219C43.0719 96.8342 42.9377 96.5659 42.7501 96.3364C42.5625 96.1069 42.3263 95.922 42.0585 95.795C41.7907 95.668 41.498 95.6021 41.2016 95.6021C40.9052 95.6021 40.6125 95.668 40.3447 95.795C40.0768 95.922 39.8406 96.1069 39.653 96.3364C39.4654 96.5659 39.3312 96.8342 39.2601 97.1219C39.1889 97.4097 39.1826 97.7096 39.2416 98.0001H43.1616ZM45.6016 93.2001C45.3894 93.2001 45.1859 93.2844 45.0359 93.4344C44.8858 93.5844 44.8016 93.7879 44.8016 94.0001C44.8016 94.2123 44.8858 94.4158 45.0359 94.5658C45.1859 94.7158 45.3894 94.8001 45.6016 94.8001H48.0016C48.2137 94.8001 48.4172 94.7158 48.5672 94.5658C48.7173 94.4158 48.8016 94.2123 48.8016 94.0001C48.8016 93.7879 48.7173 93.5844 48.5672 93.4344C48.4172 93.2844 48.2137 93.2001 48.0016 93.2001H45.6016ZM44.8016 96.4001C44.8016 96.1879 44.8858 95.9844 45.0359 95.8344C45.1859 95.6844 45.3894 95.6001 45.6016 95.6001H47.2016C47.4137 95.6001 47.6172 95.6844 47.7672 95.8344C47.9173 95.9844 48.0016 96.1879 48.0016 96.4001C48.0016 96.6123 47.9173 96.8158 47.7672 96.9658C47.6172 97.1158 47.4137 97.2001 47.2016 97.2001H45.6016C45.3894 97.2001 45.1859 97.1158 45.0359 96.9658C44.8858 96.8158 44.8016 96.6123 44.8016 96.4001Z" fill="#959DA5"/>
<path d="M66.2614 100L67.3295 96.9205H71.875L72.9375 100H74.8011L70.6136 88.3636H68.5852L64.3977 100H66.2614ZM67.8409 95.4432L69.5568 90.4773H69.6477L71.3636 95.4432H67.8409ZM76.4815 100H78.1406V98.642H78.2827C78.5895 99.1989 79.2145 100.17 80.8054 100.17C82.919 100.17 84.4531 98.4773 84.4531 95.6534C84.4531 92.8239 82.8963 91.1591 80.7884 91.1591C79.169 91.1591 78.5838 92.1477 78.2827 92.6875H78.1804V88.3636H76.4815V100ZM78.1463 95.6364C78.1463 93.8125 78.9418 92.6023 80.4247 92.6023C81.9645 92.6023 82.7372 93.9034 82.7372 95.6364C82.7372 97.3864 81.9418 98.7216 80.4247 98.7216C78.9645 98.7216 78.1463 97.4716 78.1463 95.6364ZM90.0369 100.176C92.4972 100.176 94.1051 98.375 94.1051 95.6761C94.1051 92.9602 92.4972 91.1591 90.0369 91.1591C87.5767 91.1591 85.9688 92.9602 85.9688 95.6761C85.9688 98.375 87.5767 100.176 90.0369 100.176ZM90.0426 98.75C88.4347 98.75 87.6847 97.3466 87.6847 95.6705C87.6847 94 88.4347 92.5795 90.0426 92.5795C91.6392 92.5795 92.3892 94 92.3892 95.6705C92.3892 97.3466 91.6392 98.75 90.0426 98.75ZM101.53 96.3807C101.536 97.8636 100.433 98.5682 99.4787 98.5682C98.4276 98.5682 97.7003 97.8068 97.7003 96.6193V91.2727H96.0014V96.8239C96.0014 98.9886 97.1889 100.114 98.8651 100.114C100.178 100.114 101.07 99.4205 101.473 98.4886H101.564V100H103.234V91.2727H101.53V96.3807ZM109.591 91.2727H107.801V89.1818H106.102V91.2727H104.824V92.6364H106.102V97.7898C106.097 99.375 107.307 100.142 108.648 100.114C109.188 100.108 109.551 100.006 109.75 99.9318L109.443 98.5284C109.33 98.5511 109.119 98.6023 108.847 98.6023C108.295 98.6023 107.801 98.4205 107.801 97.4375V92.6364H109.591V91.2727Z" fill="white"/>
<path fill-rule="evenodd" clip-rule="evenodd" d="M39.2016 136.4C38.7772 136.4 38.3702 136.568 38.0702 136.869C37.7701 137.169 37.6016 137.576 37.6016 138V146C37.6016 146.424 37.7701 146.831 38.0702 147.131C38.3702 147.431 38.7772 147.6 39.2016 147.6H48.8016C49.2259 147.6 49.6329 147.431 49.9329 147.131C50.233 146.831 50.4016 146.424 50.4016 146V138C50.4016 137.576 50.233 137.169 49.9329 136.869C49.6329 136.568 49.2259 136.4 48.8016 136.4H39.2016ZM48.8016 146H39.2016L42.4016 139.6L44.8016 144.4L46.4016 141.2L48.8016 146Z" fill="#959DA5"/>
<path d="M73.1534 140.04H74.9545C74.5625 137.773 72.625 136.205 70.1136 136.205C67.1023 136.205 64.9034 138.472 64.9034 142.188C64.9034 145.869 67.0398 148.159 70.1932 148.159C73.017 148.159 75.0341 146.307 75.0341 143.369V142.045H70.4602V143.494H73.3352C73.2955 145.369 72.0568 146.557 70.1932 146.557C68.142 146.557 66.6477 145.006 66.6477 142.176C66.6477 139.358 68.1534 137.807 70.125 137.807C71.6705 137.807 72.7159 138.659 73.1534 140.04ZM79.6662 148.193C81.1094 148.193 81.9219 147.46 82.2457 146.807H82.3139V148H83.973V142.205C83.973 139.665 81.973 139.159 80.5866 139.159C79.0071 139.159 77.5526 139.795 76.9844 141.386L78.581 141.75C78.831 141.131 79.4673 140.534 80.6094 140.534C81.706 140.534 82.2685 141.108 82.2685 142.097V142.136C82.2685 142.756 81.6321 142.744 80.0639 142.926C78.4105 143.119 76.7173 143.551 76.7173 145.534C76.7173 147.25 78.0071 148.193 79.6662 148.193ZM80.0355 146.83C79.0753 146.83 78.3821 146.398 78.3821 145.557C78.3821 144.648 79.1889 144.324 80.1719 144.193C80.723 144.119 82.0298 143.972 82.2741 143.727V144.852C82.2741 145.886 81.4503 146.83 80.0355 146.83ZM87.9347 136.364H86.2358V148H87.9347V136.364ZM91.919 136.364H90.2202V148H91.919V136.364ZM97.9659 148.176C99.8693 148.176 101.216 147.239 101.602 145.818L99.9943 145.528C99.6875 146.352 98.9489 146.773 97.983 146.773C96.5284 146.773 95.5511 145.83 95.5057 144.148H101.71V143.545C101.71 140.392 99.8239 139.159 97.8466 139.159C95.4148 139.159 93.8125 141.011 93.8125 143.693C93.8125 146.403 95.392 148.176 97.9659 148.176ZM95.5114 142.875C95.5795 141.636 96.4773 140.562 97.858 140.562C99.1761 140.562 100.04 141.54 100.045 142.875H95.5114ZM103.595 148H105.294V142.67C105.294 141.528 106.175 140.705 107.379 140.705C107.732 140.705 108.129 140.767 108.266 140.807V139.182C108.095 139.159 107.76 139.142 107.544 139.142C106.521 139.142 105.646 139.722 105.328 140.659H105.237V139.273H103.595V148ZM111.075 151.273C112.479 151.273 113.365 150.54 113.871 149.165L117.479 139.29L115.643 139.273L113.433 146.045H113.342L111.132 139.273H109.314L112.507 148.114L112.297 148.693C111.865 149.852 111.257 149.949 110.325 149.693L109.916 151.085C110.121 151.176 110.564 151.273 111.075 151.273Z" fill="white"/>
<path fill-rule="evenodd" clip-rule="evenodd" d="M45.8534 184.441C45.9531 184.474 46.0453 184.527 46.1247 184.595C46.2042 184.664 46.2692 184.748 46.3163 184.842C46.3633 184.936 46.3913 185.038 46.3988 185.143C46.4063 185.248 46.393 185.353 46.3598 185.453L43.1598 195.053C43.0928 195.254 42.9485 195.421 42.7587 195.516C42.5689 195.611 42.3492 195.626 42.1478 195.559C41.9465 195.492 41.78 195.348 41.685 195.158C41.59 194.968 41.5744 194.749 41.6414 194.547L44.8414 184.947C44.8746 184.848 44.9271 184.755 44.9959 184.676C45.0647 184.597 45.1485 184.532 45.2425 184.484C45.3365 184.437 45.4388 184.409 45.5436 184.402C45.6484 184.394 45.7537 184.408 45.8534 184.441V184.441ZM40.5662 187.035C40.7162 187.185 40.8004 187.388 40.8004 187.6C40.8004 187.812 40.7162 188.016 40.5662 188.166L38.7318 190L40.5662 191.835C40.6426 191.908 40.7036 191.997 40.7455 192.094C40.7874 192.192 40.8095 192.297 40.8104 192.403C40.8113 192.509 40.7911 192.615 40.7509 192.713C40.7106 192.811 40.6512 192.901 40.5761 192.976C40.501 193.051 40.4117 193.11 40.3134 193.15C40.2151 193.191 40.1097 193.211 40.0035 193.21C39.8973 193.209 39.7923 193.187 39.6947 193.145C39.5971 193.103 39.5088 193.042 39.435 192.966L37.035 190.566C36.885 190.416 36.8008 190.212 36.8008 190C36.8008 189.788 36.885 189.585 37.035 189.435L39.435 187.035C39.585 186.885 39.7885 186.8 40.0006 186.8C40.2127 186.8 40.4162 186.885 40.5662 187.035V187.035ZM47.435 187.035C47.585 186.885 47.7885 186.8 48.0006 186.8C48.2127 186.8 48.4162 186.885 48.5662 187.035L50.9662 189.435C51.1162 189.585 51.2004 189.788 51.2004 190C51.2004 190.212 51.1162 190.416 50.9662 190.566L48.5662 192.966C48.4924 193.042 48.4041 193.103 48.3065 193.145C48.2089 193.187 48.104 193.209 47.9977 193.21C47.8915 193.211 47.7862 193.191 47.6878 193.15C47.5895 193.11 47.5002 193.051 47.4251 192.976C47.35 192.901 47.2906 192.811 47.2504 192.713C47.2101 192.615 47.1899 192.509 47.1908 192.403C47.1917 192.297 47.2138 192.192 47.2557 192.094C47.2977 191.997 47.3586 191.908 47.435 191.835L49.2694 190L47.435 188.166C47.285 188.016 47.2008 187.812 47.2008 187.6C47.2008 187.388 47.285 187.185 47.435 187.035V187.035Z" fill="#959DA5"/>
<path d="M74.9432 188.148C74.5455 185.659 72.5966 184.205 70.1364 184.205C67.125 184.205 64.9034 186.46 64.9034 190.182C64.9034 193.903 67.1136 196.159 70.1364 196.159C72.6932 196.159 74.5625 194.557 74.9432 192.256L73.1705 192.25C72.8693 193.739 71.6193 194.557 70.1477 194.557C68.1534 194.557 66.6477 193.028 66.6477 190.182C66.6477 187.358 68.1477 185.807 70.1534 185.807C71.6364 185.807 72.8807 186.642 73.1705 188.148H74.9432ZM80.5838 196.176C83.044 196.176 84.652 194.375 84.652 191.676C84.652 188.96 83.044 187.159 80.5838 187.159C78.1236 187.159 76.5156 188.96 76.5156 191.676C76.5156 194.375 78.1236 196.176 80.5838 196.176ZM80.5895 194.75C78.9815 194.75 78.2315 193.347 78.2315 191.67C78.2315 190 78.9815 188.58 80.5895 188.58C82.1861 188.58 82.9361 190 82.9361 191.67C82.9361 193.347 82.1861 194.75 80.5895 194.75ZM89.8153 196.17C91.4062 196.17 92.0312 195.199 92.3381 194.642H92.4801V196H94.1392V184.364H92.4403V188.688H92.3381C92.0312 188.148 91.4517 187.159 89.8267 187.159C87.7188 187.159 86.1676 188.824 86.1676 191.653C86.1676 194.477 87.696 196.17 89.8153 196.17ZM90.1903 194.722C88.6733 194.722 87.8835 193.386 87.8835 191.636C87.8835 189.903 88.6562 188.602 90.1903 188.602C91.6733 188.602 92.4688 189.812 92.4688 191.636C92.4688 193.472 91.6562 194.722 90.1903 194.722ZM100.325 196.176C102.229 196.176 103.575 195.239 103.962 193.818L102.354 193.528C102.047 194.352 101.308 194.773 100.342 194.773C98.8878 194.773 97.9105 193.83 97.8651 192.148H104.07V191.545C104.07 188.392 102.183 187.159 100.206 187.159C97.7741 187.159 96.1719 189.011 96.1719 191.693C96.1719 194.403 97.7514 196.176 100.325 196.176ZM97.8707 190.875C97.9389 189.636 98.8366 188.562 100.217 188.562C101.536 188.562 102.399 189.54 102.405 190.875H97.8707ZM116.672 187.42H118.365C118.314 185.557 116.666 184.205 114.303 184.205C111.967 184.205 110.178 185.54 110.178 187.545C110.178 189.165 111.337 190.114 113.206 190.619L114.581 190.994C115.825 191.324 116.786 191.733 116.786 192.767C116.786 193.903 115.7 194.653 114.206 194.653C112.854 194.653 111.729 194.051 111.626 192.784H109.865C109.979 194.892 111.609 196.193 114.217 196.193C116.95 196.193 118.524 194.756 118.524 192.784C118.524 190.688 116.655 189.875 115.178 189.511L114.041 189.216C113.132 188.983 111.922 188.557 111.928 187.443C111.928 186.455 112.831 185.722 114.263 185.722C115.598 185.722 116.547 186.347 116.672 187.42ZM122.185 190.818C122.185 189.426 123.037 188.631 124.219 188.631C125.372 188.631 126.071 189.386 126.071 190.653V196H127.77V190.449C127.77 188.29 126.582 187.159 124.798 187.159C123.486 187.159 122.628 187.767 122.224 188.693H122.116V187.273H120.486V196H122.185V190.818ZM130.048 196H131.747V187.273H130.048V196ZM130.906 185.926C131.491 185.926 131.98 185.472 131.98 184.915C131.98 184.358 131.491 183.898 130.906 183.898C130.315 183.898 129.832 184.358 129.832 184.915C129.832 185.472 130.315 185.926 130.906 185.926ZM134.033 199.273H135.732V194.642H135.834C136.141 195.199 136.766 196.17 138.357 196.17C140.47 196.17 142.004 194.477 142.004 191.653C142.004 188.824 140.447 187.159 138.339 187.159C136.72 187.159 136.135 188.148 135.834 188.688H135.692V187.273H134.033V199.273ZM135.697 191.636C135.697 189.812 136.493 188.602 137.976 188.602C139.516 188.602 140.288 189.903 140.288 191.636C140.288 193.386 139.493 194.722 137.976 194.722C136.516 194.722 135.697 193.472 135.697 191.636ZM143.908 199.273H145.607V194.642H145.709C146.016 195.199 146.641 196.17 148.232 196.17C150.345 196.17 151.879 194.477 151.879 191.653C151.879 188.824 150.322 187.159 148.214 187.159C146.595 187.159 146.01 188.148 145.709 188.688H145.567V187.273H143.908V199.273ZM145.572 191.636C145.572 189.812 146.368 188.602 147.851 188.602C149.391 188.602 150.163 189.903 150.163 191.636C150.163 193.386 149.368 194.722 147.851 194.722C146.391 194.722 145.572 193.472 145.572 191.636ZM157.544 196.176C159.447 196.176 160.794 195.239 161.18 193.818L159.572 193.528C159.266 194.352 158.527 194.773 157.561 194.773C156.107 194.773 155.129 193.83 155.084 192.148H161.288V191.545C161.288 188.392 159.402 187.159 157.425 187.159C154.993 187.159 153.391 189.011 153.391 191.693C153.391 194.403 154.97 196.176 157.544 196.176ZM155.089 190.875C155.158 189.636 156.055 188.562 157.436 188.562C158.754 188.562 159.618 189.54 159.624 190.875H155.089ZM167.247 187.273H165.457V185.182H163.759V187.273H162.48V188.636H163.759V193.79C163.753 195.375 164.963 196.142 166.304 196.114C166.844 196.108 167.207 196.006 167.406 195.932L167.099 194.528C166.986 194.551 166.776 194.602 166.503 194.602C165.952 194.602 165.457 194.42 165.457 193.438V188.636H167.247V187.273ZM175.526 189.403C175.173 188.045 174.111 187.159 172.224 187.159C170.253 187.159 168.855 188.199 168.855 189.744C168.855 190.983 169.605 191.807 171.241 192.17L172.719 192.494C173.56 192.682 173.952 193.057 173.952 193.602C173.952 194.278 173.23 194.807 172.116 194.807C171.099 194.807 170.446 194.369 170.241 193.511L168.599 193.761C168.884 195.307 170.168 196.176 172.128 196.176C174.236 196.176 175.696 195.057 175.696 193.477C175.696 192.244 174.912 191.483 173.31 191.114L171.923 190.795C170.963 190.568 170.548 190.244 170.554 189.653C170.548 188.983 171.276 188.506 172.241 188.506C173.298 188.506 173.787 189.091 173.986 189.676L175.526 189.403Z" fill="white"/>
<path fill-rule="evenodd" clip-rule="evenodd" d="M45.8534 232.441C45.9531 232.474 46.0453 232.527 46.1247 232.595C46.2042 232.664 46.2692 232.748 46.3163 232.842C46.3633 232.936 46.3913 233.038 46.3988 233.143C46.4063 233.248 46.393 233.353 46.3598 233.453L43.1598 243.053C43.0928 243.254 42.9485 243.421 42.7587 243.516C42.5689 243.611 42.3492 243.626 42.1478 243.559C41.9465 243.492 41.78 243.348 41.685 243.158C41.59 242.968 41.5744 242.749 41.6414 242.547L44.8414 232.947C44.8746 232.848 44.9271 232.755 44.9959 232.676C45.0647 232.597 45.1485 232.532 45.2425 232.484C45.3365 232.437 45.4388 232.409 45.5436 232.402C45.6484 232.394 45.7537 232.408 45.8534 232.441V232.441ZM40.5662 235.035C40.7162 235.185 40.8004 235.388 40.8004 235.6C40.8004 235.812 40.7162 236.016 40.5662 236.166L38.7318 238L40.5662 239.835C40.6426 239.908 40.7036 239.997 40.7455 240.094C40.7874 240.192 40.8095 240.297 40.8104 240.403C40.8113 240.509 40.7911 240.615 40.7509 240.713C40.7106 240.811 40.6512 240.901 40.5761 240.976C40.501 241.051 40.4117 241.11 40.3134 241.15C40.2151 241.191 40.1097 241.211 40.0035 241.21C39.8973 241.209 39.7923 241.187 39.6947 241.145C39.5971 241.103 39.5088 241.042 39.435 240.966L37.035 238.566C36.885 238.416 36.8008 238.212 36.8008 238C36.8008 237.788 36.885 237.585 37.035 237.435L39.435 235.035C39.585 234.885 39.7885 234.8 40.0006 234.8C40.2127 234.8 40.4162 234.885 40.5662 235.035V235.035ZM47.435 235.035C47.585 234.885 47.7885 234.8 48.0006 234.8C48.2127 234.8 48.4162 234.885 48.5662 235.035L50.9662 237.435C51.1162 237.585 51.2004 237.788 51.2004 238C51.2004 238.212 51.1162 238.416 50.9662 238.566L48.5662 240.966C48.4924 241.042 48.4041 241.103 48.3065 241.145C48.2089 241.187 48.104 241.209 47.9977 241.21C47.8915 241.211 47.7862 241.191 47.6878 241.15C47.5895 241.11 47.5002 241.051 47.4251 240.976C47.35 240.901 47.2906 240.811 47.2504 240.713C47.2101 240.615 47.1899 240.509 47.1908 240.403C47.1917 240.297 47.2138 240.192 47.2557 240.094C47.2977 239.997 47.3586 239.908 47.435 239.835L49.2694 238L47.435 236.166C47.285 236.016 47.2008 235.812 47.2008 235.6C47.2008 235.388 47.285 235.185 47.435 235.035V235.035Z" fill="#959DA5"/>
<path d="M74.9432 236.148C74.5455 233.659 72.5966 232.205 70.1364 232.205C67.125 232.205 64.9034 234.46 64.9034 238.182C64.9034 241.903 67.1136 244.159 70.1364 244.159C72.6932 244.159 74.5625 242.557 74.9432 240.256L73.1705 240.25C72.8693 241.739 71.6193 242.557 70.1477 242.557C68.1534 242.557 66.6477 241.028 66.6477 238.182C66.6477 235.358 68.1477 233.807 70.1534 233.807C71.6364 233.807 72.8807 234.642 73.1705 236.148H74.9432ZM80.5838 244.176C83.044 244.176 84.652 242.375 84.652 239.676C84.652 236.96 83.044 235.159 80.5838 235.159C78.1236 235.159 76.5156 236.96 76.5156 239.676C76.5156 242.375 78.1236 244.176 80.5838 244.176ZM80.5895 242.75C78.9815 242.75 78.2315 241.347 78.2315 239.67C78.2315 238 78.9815 236.58 80.5895 236.58C82.1861 236.58 82.9361 238 82.9361 239.67C82.9361 241.347 82.1861 242.75 80.5895 242.75ZM89.8153 244.17C91.4062 244.17 92.0312 243.199 92.3381 242.642H92.4801V244H94.1392V232.364H92.4403V236.688H92.3381C92.0312 236.148 91.4517 235.159 89.8267 235.159C87.7188 235.159 86.1676 236.824 86.1676 239.653C86.1676 242.477 87.696 244.17 89.8153 244.17ZM90.1903 242.722C88.6733 242.722 87.8835 241.386 87.8835 239.636C87.8835 237.903 88.6562 236.602 90.1903 236.602C91.6733 236.602 92.4688 237.812 92.4688 239.636C92.4688 241.472 91.6562 242.722 90.1903 242.722ZM100.325 244.176C102.229 244.176 103.575 243.239 103.962 241.818L102.354 241.528C102.047 242.352 101.308 242.773 100.342 242.773C98.8878 242.773 97.9105 241.83 97.8651 240.148H104.07V239.545C104.07 236.392 102.183 235.159 100.206 235.159C97.7741 235.159 96.1719 237.011 96.1719 239.693C96.1719 242.403 97.7514 244.176 100.325 244.176ZM97.8707 238.875C97.9389 237.636 98.8366 236.562 100.217 236.562C101.536 236.562 102.399 237.54 102.405 238.875H97.8707ZM116.672 235.42H118.365C118.314 233.557 116.666 232.205 114.303 232.205C111.967 232.205 110.178 233.54 110.178 235.545C110.178 237.165 111.337 238.114 113.206 238.619L114.581 238.994C115.825 239.324 116.786 239.733 116.786 240.767C116.786 241.903 115.7 242.653 114.206 242.653C112.854 242.653 111.729 242.051 111.626 240.784H109.865C109.979 242.892 111.609 244.193 114.217 244.193C116.95 244.193 118.524 242.756 118.524 240.784C118.524 238.688 116.655 237.875 115.178 237.511L114.041 237.216C113.132 236.983 111.922 236.557 111.928 235.443C111.928 234.455 112.831 233.722 114.263 233.722C115.598 233.722 116.547 234.347 116.672 235.42ZM122.185 238.818C122.185 237.426 123.037 236.631 124.219 236.631C125.372 236.631 126.071 237.386 126.071 238.653V244H127.77V238.449C127.77 236.29 126.582 235.159 124.798 235.159C123.486 235.159 122.628 235.767 122.224 236.693H122.116V235.273H120.486V244H122.185V238.818ZM130.048 244H131.747V235.273H130.048V244ZM130.906 233.926C131.491 233.926 131.98 233.472 131.98 232.915C131.98 232.358 131.491 231.898 130.906 231.898C130.315 231.898 129.832 232.358 129.832 232.915C129.832 233.472 130.315 233.926 130.906 233.926ZM134.033 247.273H135.732V242.642H135.834C136.141 243.199 136.766 244.17 138.357 244.17C140.47 244.17 142.004 242.477 142.004 239.653C142.004 236.824 140.447 235.159 138.339 235.159C136.72 235.159 136.135 236.148 135.834 236.688H135.692V235.273H134.033V247.273ZM135.697 239.636C135.697 237.812 136.493 236.602 137.976 236.602C139.516 236.602 140.288 237.903 140.288 239.636C140.288 241.386 139.493 242.722 137.976 242.722C136.516 242.722 135.697 241.472 135.697 239.636ZM143.908 247.273H145.607V242.642H145.709C146.016 243.199 146.641 244.17 148.232 244.17C150.345 244.17 151.879 242.477 151.879 239.653C151.879 236.824 150.322 235.159 148.214 235.159C146.595 235.159 146.01 236.148 145.709 236.688H145.567V235.273H143.908V247.273ZM145.572 239.636C145.572 237.812 146.368 236.602 147.851 236.602C149.391 236.602 150.163 237.903 150.163 239.636C150.163 241.386 149.368 242.722 147.851 242.722C146.391 242.722 145.572 241.472 145.572 239.636ZM157.544 244.176C159.447 244.176 160.794 243.239 161.18 241.818L159.572 241.528C159.266 242.352 158.527 242.773 157.561 242.773C156.107 242.773 155.129 241.83 155.084 240.148H161.288V239.545C161.288 236.392 159.402 235.159 157.425 235.159C154.993 235.159 153.391 237.011 153.391 239.693C153.391 242.403 154.97 244.176 157.544 244.176ZM155.089 238.875C155.158 237.636 156.055 236.562 157.436 236.562C158.754 236.562 159.618 237.54 159.624 238.875H155.089ZM167.247 235.273H165.457V233.182H163.759V235.273H162.48V236.636H163.759V241.79C163.753 243.375 164.963 244.142 166.304 244.114C166.844 244.108 167.207 244.006 167.406 243.932L167.099 242.528C166.986 242.551 166.776 242.602 166.503 242.602C165.952 242.602 165.457 242.42 165.457 241.438V236.636H167.247V235.273ZM175.526 237.403C175.173 236.045 174.111 235.159 172.224 235.159C170.253 235.159 168.855 236.199 168.855 237.744C168.855 238.983 169.605 239.807 171.241 240.17L172.719 240.494C173.56 240.682 173.952 241.057 173.952 241.602C173.952 242.278 173.23 242.807 172.116 242.807C171.099 242.807 170.446 242.369 170.241 241.511L168.599 241.761C168.884 243.307 170.168 244.176 172.128 244.176C174.236 244.176 175.696 243.057 175.696 241.477C175.696 240.244 174.912 239.483 173.31 239.114L171.923 238.795C170.963 238.568 170.548 238.244 170.554 237.653C170.548 236.983 171.276 236.506 172.241 236.506C173.298 236.506 173.787 237.091 173.986 237.676L175.526 237.403Z" fill="white"/>
</g>
<defs>
<filter id="filter0_dd" x="0" y="0" width="600" height="292" filterUnits="userSpaceOnUse" color-interpolation-filters="sRGB">
<feFlood flood-opacity="0" result="BackgroundImageFix"/>
<feColorMatrix in="SourceAlpha" type="matrix" values="0 0 0 0 0 0 0 0 0 0 0 0 0 0 0 0 0 0 127 0" result="hardAlpha"/>
<feMorphology radius="2" operator="erode" in="SourceAlpha" result="effect1_dropShadow"/>
<feOffset dy="4"/>
<feGaussianBlur stdDeviation="3"/>
<feColorMatrix type="matrix" values="0 0 0 0 0 0 0 0 0 0 0 0 0 0 0 0 0 0 0.05 0"/>
<feBlend mode="normal" in2="BackgroundImageFix" result="effect1_dropShadow"/>
<feColorMatrix in="SourceAlpha" type="matrix" values="0 0 0 0 0 0 0 0 0 0 0 0 0 0 0 0 0 0 127 0" result="hardAlpha"/>
<feMorphology radius="3" operator="erode" in="SourceAlpha" result="effect2_dropShadow"/>
<feOffset dy="10"/>
<feGaussianBlur stdDeviation="7.5"/>
<feColorMatrix type="matrix" values="0 0 0 0 0 0 0 0 0 0 0 0 0 0 0 0 0 0 0.1 0"/>
<feBlend mode="normal" in2="effect1_dropShadow" result="effect2_dropShadow"/>
<feBlend mode="normal" in="SourceGraphic" in2="effect2_dropShadow" result="shape"/>
</filter>
</defs>
</svg>
