<svg width="368" height="268" viewBox="0 0 368 268" fill="none" xmlns="http://www.w3.org/2000/svg">
<g clip-path="url(#clip0)">
<rect x="77" width="480" height="960" rx="6" fill="#1B1C1E"/>
<path d="M99.4164 30L95.2916 34.1248L94.4668 33.2999L97.7667 30L94.4668 26.7001L95.2916 25.8759L99.4164 30ZM99.4164 34.0834H105.25V35.25H99.4164V34.0834Z" fill="white"/>
<path d="M125.672 27.4929H127.153C127.109 25.8622 125.667 24.679 123.599 24.679C121.555 24.679 119.989 25.8473 119.989 27.6023C119.989 29.0192 121.004 29.8494 122.639 30.2919L123.842 30.62C124.931 30.9084 125.771 31.2663 125.771 32.1712C125.771 33.1655 124.822 33.8217 123.514 33.8217C122.331 33.8217 121.347 33.2947 121.257 32.1861H119.716C119.815 34.0305 121.242 35.169 123.524 35.169C125.915 35.169 127.293 33.9112 127.293 32.1861C127.293 30.3516 125.657 29.6406 124.364 29.3224L123.37 29.0639C122.575 28.8601 121.516 28.4872 121.521 27.5128C121.521 26.6477 122.311 26.0064 123.564 26.0064C124.732 26.0064 125.562 26.5533 125.672 27.4929ZM132.3 35.1541C133.966 35.1541 135.144 34.3338 135.482 33.0909L134.075 32.8374C133.807 33.5582 133.16 33.9261 132.315 33.9261C131.042 33.9261 130.187 33.1009 130.148 31.6293H135.577V31.1023C135.577 28.343 133.926 27.2642 132.196 27.2642C130.068 27.2642 128.666 28.8849 128.666 31.2315C128.666 33.603 130.048 35.1541 132.3 35.1541ZM130.153 30.5156C130.212 29.4318 130.998 28.4922 132.206 28.4922C133.359 28.4922 134.115 29.3473 134.12 30.5156H130.153ZM139.448 35.169C140.711 35.169 141.422 34.5277 141.705 33.956H141.765V35H143.217V29.929C143.217 27.7067 141.467 27.2642 140.254 27.2642C138.871 27.2642 137.599 27.821 137.102 29.2131L138.499 29.5312C138.717 28.9893 139.274 28.4673 140.273 28.4673C141.233 28.4673 141.725 28.9695 141.725 29.8345V29.8693C141.725 30.4112 141.168 30.4013 139.796 30.5604C138.349 30.7294 136.868 31.1072 136.868 32.8423C136.868 34.3438 137.996 35.169 139.448 35.169ZM139.771 33.9759C138.931 33.9759 138.325 33.598 138.325 32.8622C138.325 32.0668 139.031 31.7834 139.891 31.669C140.373 31.6044 141.516 31.4751 141.73 31.2614V32.2457C141.73 33.1506 141.009 33.9759 139.771 33.9759ZM145.197 35H146.683V30.3366C146.683 29.3374 147.454 28.6165 148.508 28.6165C148.816 28.6165 149.164 28.6712 149.283 28.706V27.2841C149.134 27.2642 148.841 27.2493 148.652 27.2493C147.757 27.2493 146.991 27.7564 146.713 28.5767H146.633V27.3636H145.197V35ZM153.513 35.1541C155.317 35.1541 156.486 34.0703 156.65 32.5838H155.203C155.014 33.4091 154.373 33.8963 153.523 33.8963C152.265 33.8963 151.455 32.8473 151.455 31.1818C151.455 29.5462 152.28 28.517 153.523 28.517C154.467 28.517 155.044 29.1136 155.203 29.8295H156.65C156.491 28.2884 155.233 27.2642 153.498 27.2642C151.345 27.2642 149.953 28.8849 149.953 31.2166C149.953 33.5185 151.295 35.1541 153.513 35.1541ZM159.726 30.4659C159.726 29.2479 160.497 28.5518 161.556 28.5518C162.58 28.5518 163.191 29.2031 163.191 30.3217V35H164.678V30.1428C164.678 28.2386 163.634 27.2642 162.063 27.2642C160.874 27.2642 160.159 27.7812 159.801 28.6065H159.706V24.8182H158.24V35H159.726V30.4659ZM174.001 27.3636H172.355V26.6776C172.355 26.0014 172.634 25.6335 173.359 25.6335C173.668 25.6335 173.886 25.7031 174.026 25.7479L174.374 24.5447C174.165 24.4652 173.732 24.3409 173.131 24.3409C171.923 24.3409 170.864 25.0469 170.864 26.4787V27.3636H169.685V28.5568H170.864V35H172.355V28.5568H174.001V27.3636ZM178.45 35.1541C180.603 35.1541 182.01 33.5781 182.01 31.2166C182.01 28.8402 180.603 27.2642 178.45 27.2642C176.298 27.2642 174.891 28.8402 174.891 31.2166C174.891 33.5781 176.298 35.1541 178.45 35.1541ZM178.455 33.9062C177.048 33.9062 176.392 32.6783 176.392 31.2116C176.392 29.75 177.048 28.5071 178.455 28.5071C179.852 28.5071 180.509 29.75 180.509 31.2116C180.509 32.6783 179.852 33.9062 178.455 33.9062ZM183.669 35H185.156V30.3366C185.156 29.3374 185.926 28.6165 186.98 28.6165C187.289 28.6165 187.637 28.6712 187.756 28.706V27.2841C187.607 27.2642 187.313 27.2493 187.124 27.2493C186.23 27.2493 185.464 27.7564 185.186 28.5767H185.106V27.3636H183.669V35ZM194.97 35.169C196.232 35.169 196.943 34.5277 197.227 33.956H197.286V35H198.738V29.929C198.738 27.7067 196.988 27.2642 195.775 27.2642C194.393 27.2642 193.12 27.821 192.623 29.2131L194.02 29.5312C194.239 28.9893 194.796 28.4673 195.795 28.4673C196.754 28.4673 197.247 28.9695 197.247 29.8345V29.8693C197.247 30.4112 196.69 30.4013 195.318 30.5604C193.871 30.7294 192.389 31.1072 192.389 32.8423C192.389 34.3438 193.518 35.169 194.97 35.169ZM195.293 33.9759C194.453 33.9759 193.846 33.598 193.846 32.8622C193.846 32.0668 194.552 31.7834 195.412 31.669C195.894 31.6044 197.038 31.4751 197.252 31.2614V32.2457C197.252 33.1506 196.531 33.9759 195.293 33.9759ZM207.64 35.1541C209.444 35.1541 210.613 34.0703 210.777 32.5838H209.33C209.141 33.4091 208.5 33.8963 207.65 33.8963C206.392 33.8963 205.581 32.8473 205.581 31.1818C205.581 29.5462 206.407 28.517 207.65 28.517C208.594 28.517 209.171 29.1136 209.33 29.8295H210.777C210.618 28.2884 209.36 27.2642 207.625 27.2642C205.472 27.2642 204.08 28.8849 204.08 31.2166C204.08 33.5185 205.422 35.1541 207.64 35.1541ZM215.583 35.1541C217.736 35.1541 219.143 33.5781 219.143 31.2166C219.143 28.8402 217.736 27.2642 215.583 27.2642C213.43 27.2642 212.023 28.8402 212.023 31.2166C212.023 33.5781 213.43 35.1541 215.583 35.1541ZM215.588 33.9062C214.181 33.9062 213.525 32.6783 213.525 31.2116C213.525 29.75 214.181 28.5071 215.588 28.5071C216.985 28.5071 217.641 29.75 217.641 31.2116C217.641 32.6783 216.985 33.9062 215.588 33.9062ZM220.802 35H222.289V30.2919C222.289 29.2628 223.009 28.5469 223.855 28.5469C224.68 28.5469 225.252 29.0938 225.252 29.924V35H226.733V30.1328C226.733 29.2131 227.295 28.5469 228.264 28.5469C229.05 28.5469 229.696 28.9844 229.696 30.0185V35H231.183V29.8793C231.183 28.1342 230.208 27.2642 228.826 27.2642C227.727 27.2642 226.902 27.7912 226.534 28.6065H226.455C226.122 27.7713 225.421 27.2642 224.401 27.2642C223.392 27.2642 222.642 27.7663 222.323 28.6065H222.229V27.3636H220.802V35ZM233.175 35H234.662V30.2919C234.662 29.2628 235.382 28.5469 236.228 28.5469C237.053 28.5469 237.625 29.0938 237.625 29.924V35H239.106V30.1328C239.106 29.2131 239.668 28.5469 240.637 28.5469C241.423 28.5469 242.069 28.9844 242.069 30.0185V35H243.556V29.8793C243.556 28.1342 242.581 27.2642 241.199 27.2642C240.1 27.2642 239.275 27.7912 238.907 28.6065H238.828C238.495 27.7713 237.794 27.2642 236.775 27.2642C235.765 27.2642 235.015 27.7663 234.696 28.6065H234.602V27.3636H233.175V35ZM247.77 35.169C249.033 35.169 249.744 34.5277 250.028 33.956H250.087V35H251.539V29.929C251.539 27.7067 249.789 27.2642 248.576 27.2642C247.194 27.2642 245.921 27.821 245.424 29.2131L246.821 29.5312C247.04 28.9893 247.596 28.4673 248.596 28.4673C249.555 28.4673 250.047 28.9695 250.047 29.8345V29.8693C250.047 30.4112 249.491 30.4013 248.118 30.5604C246.672 30.7294 245.19 31.1072 245.19 32.8423C245.19 34.3438 246.319 35.169 247.77 35.169ZM248.094 33.9759C247.253 33.9759 246.647 33.598 246.647 32.8622C246.647 32.0668 247.353 31.7834 248.213 31.669C248.695 31.6044 249.839 31.4751 250.052 31.2614V32.2457C250.052 33.1506 249.331 33.9759 248.094 33.9759ZM255.005 30.4659C255.005 29.2479 255.751 28.5518 256.785 28.5518C257.794 28.5518 258.406 29.2131 258.406 30.3217V35H259.892V30.1428C259.892 28.2536 258.853 27.2642 257.292 27.2642C256.144 27.2642 255.393 27.7962 255.04 28.6065H254.946V27.3636H253.519V35H255.005V30.4659ZM264.745 35.1491C266.137 35.1491 266.684 34.299 266.952 33.8118H267.076V35H268.528V24.8182H267.042V28.6016H266.952C266.684 28.1293 266.176 27.2642 264.755 27.2642C262.91 27.2642 261.553 28.7209 261.553 31.1967C261.553 33.6676 262.89 35.1491 264.745 35.1491ZM265.073 33.8814C263.745 33.8814 263.054 32.7131 263.054 31.1818C263.054 29.6655 263.73 28.527 265.073 28.527C266.37 28.527 267.066 29.5859 267.066 31.1818C267.066 32.7876 266.355 33.8814 265.073 33.8814Z" fill="#87888B"/>
<line x1="77" y1="59.5" x2="557" y2="59.5" stroke="#262729"/>
<rect x="77" y="68.0001" width="480" height="44" fill="#262729"/>
<path d="M120.119 95.0001H121.655V91.4205H123.743C126.104 91.4205 127.273 89.9937 127.273 88.1144C127.273 86.2401 126.114 84.8182 123.748 84.8182H120.119V95.0001ZM121.655 90.118V86.1357H123.584C125.105 86.1357 125.727 86.961 125.727 88.1144C125.727 89.2678 125.105 90.118 123.604 90.118H121.655ZM128.954 95.0001H130.441V87.3637H128.954V95.0001ZM129.705 86.1854C130.217 86.1854 130.645 85.7877 130.645 85.3005C130.645 84.8133 130.217 84.4106 129.705 84.4106C129.188 84.4106 128.765 84.8133 128.765 85.3005C128.765 85.7877 129.188 86.1854 129.705 86.1854ZM133.927 90.466C133.927 89.2479 134.673 88.5519 135.707 88.5519C136.716 88.5519 137.328 89.2131 137.328 90.3218V95.0001H138.814V90.1428C138.814 88.2536 137.775 87.2643 136.214 87.2643C135.066 87.2643 134.315 87.7962 133.962 88.6066H133.868V87.3637H132.441V95.0001H133.927V90.466ZM150.186 87.493H151.667C151.622 85.8623 150.181 84.679 148.112 84.679C146.069 84.679 144.503 85.8474 144.503 87.6023C144.503 89.0192 145.517 89.8495 147.153 90.292L148.356 90.6201C149.445 90.9084 150.285 91.2664 150.285 92.1712C150.285 93.1655 149.335 93.8218 148.028 93.8218C146.845 93.8218 145.86 93.2948 145.771 92.1861H144.23C144.329 94.0306 145.756 95.1691 148.038 95.1691C150.429 95.1691 151.806 93.9113 151.806 92.1861C151.806 90.3516 150.171 89.6407 148.878 89.3225L147.884 89.064C147.088 88.8601 146.029 88.4873 146.034 87.5128C146.034 86.6478 146.825 86.0065 148.078 86.0065C149.246 86.0065 150.076 86.5533 150.186 87.493ZM155.009 90.466C155.009 89.2479 155.755 88.5519 156.789 88.5519C157.798 88.5519 158.41 89.2131 158.41 90.3218V95.0001H159.896V90.1428C159.896 88.2536 158.857 87.2643 157.296 87.2643C156.148 87.2643 155.397 87.7962 155.044 88.6066H154.95V87.3637H153.523V95.0001H155.009V90.466ZM161.89 95.0001H163.376V87.3637H161.89V95.0001ZM162.641 86.1854C163.153 86.1854 163.58 85.7877 163.58 85.3005C163.58 84.8133 163.153 84.4106 162.641 84.4106C162.124 84.4106 161.701 84.8133 161.701 85.3005C161.701 85.7877 162.124 86.1854 162.641 86.1854ZM165.376 97.8637H166.863V93.8119H166.952C167.221 94.2991 167.768 95.1492 169.16 95.1492C171.009 95.1492 172.351 93.6677 172.351 91.1968C172.351 88.7209 170.989 87.2643 169.145 87.2643C167.728 87.2643 167.216 88.1293 166.952 88.6016H166.828V87.3637H165.376V97.8637ZM166.833 91.1819C166.833 89.586 167.529 88.527 168.827 88.527C170.174 88.527 170.85 89.6655 170.85 91.1819C170.85 92.7131 170.154 93.8815 168.827 93.8815C167.549 93.8815 166.833 92.7877 166.833 91.1819ZM174.017 97.8637H175.503V93.8119H175.593C175.861 94.2991 176.408 95.1492 177.8 95.1492C179.65 95.1492 180.992 93.6677 180.992 91.1968C180.992 88.7209 179.63 87.2643 177.785 87.2643C176.368 87.2643 175.856 88.1293 175.593 88.6016H175.469V87.3637H174.017V97.8637ZM175.474 91.1819C175.474 89.586 176.17 88.527 177.467 88.527C178.814 88.527 179.491 89.6655 179.491 91.1819C179.491 92.7131 178.795 93.8815 177.467 93.8815C176.189 93.8815 175.474 92.7877 175.474 91.1819ZM185.949 95.1542C187.614 95.1542 188.792 94.3339 189.131 93.091L187.724 92.8374C187.455 93.5583 186.809 93.9262 185.964 93.9262C184.691 93.9262 183.836 93.1009 183.796 91.6293H189.225V91.1023C189.225 88.3431 187.574 87.2643 185.844 87.2643C183.716 87.2643 182.314 88.885 182.314 91.2316C182.314 93.603 183.697 95.1542 185.949 95.1542ZM183.801 90.5157C183.861 89.4319 184.646 88.4922 185.854 88.4922C187.008 88.4922 187.763 89.3474 187.768 90.5157H183.801ZM194.439 87.3637H192.873V85.5342H191.386V87.3637H190.268V88.5569H191.386V93.0661C191.381 94.4532 192.44 95.1244 193.614 95.0995C194.086 95.0945 194.404 95.005 194.578 94.9404L194.31 93.7124C194.21 93.7323 194.026 93.777 193.788 93.777C193.305 93.777 192.873 93.618 192.873 92.7579V88.5569H194.439V87.3637Z" fill="white"/>
<g clip-path="url(#clip1)">
<path d="M106.016 88.9337L105.19 89.7586L104.778 89.3462L102.304 91.8207L101.891 93.8833L101.066 94.7082L98.5912 92.2331L95.7037 95.1206L94.8789 94.2957L97.7664 91.4082L95.2913 88.9337L96.1162 88.1083L98.1794 87.6959L100.654 85.2214L100.241 84.809L101.066 83.9836L106.016 88.9337Z" fill="#87888B"/>
</g>
<path d="M120.979 139L121.913 136.305H125.891L126.82 139H128.451L124.787 128.818H123.012L119.348 139H120.979ZM122.361 135.013L123.862 130.668H123.942L125.443 135.013H122.361ZM132.538 139.149C133.93 139.149 134.477 138.299 134.745 137.812H134.869V139H136.321V128.818H134.835V132.602H134.745C134.477 132.129 133.969 131.264 132.548 131.264C130.703 131.264 129.346 132.721 129.346 135.197C129.346 137.668 130.683 139.149 132.538 139.149ZM132.866 137.881C131.538 137.881 130.847 136.713 130.847 135.182C130.847 133.666 131.523 132.527 132.866 132.527C134.163 132.527 134.859 133.586 134.859 135.182C134.859 136.788 134.148 137.881 132.866 137.881ZM141.301 139.149C142.693 139.149 143.24 138.299 143.509 137.812H143.633V139H145.085V128.818H143.598V132.602H143.509C143.24 132.129 142.733 131.264 141.311 131.264C139.467 131.264 138.11 132.721 138.11 135.197C138.11 137.668 139.447 139.149 141.301 139.149ZM141.629 137.881C140.302 137.881 139.611 136.713 139.611 135.182C139.611 133.666 140.287 132.527 141.629 132.527C142.927 132.527 143.623 133.586 143.623 135.182C143.623 136.788 142.912 137.881 141.629 137.881ZM156.584 131.493H158.066C158.021 129.862 156.579 128.679 154.511 128.679C152.468 128.679 150.901 129.847 150.901 131.602C150.901 133.019 151.916 133.849 153.551 134.292L154.754 134.62C155.843 134.908 156.683 135.266 156.683 136.171C156.683 137.166 155.734 137.822 154.426 137.822C153.243 137.822 152.259 137.295 152.169 136.186H150.628C150.727 138.031 152.154 139.169 154.436 139.169C156.828 139.169 158.205 137.911 158.205 136.186C158.205 134.352 156.569 133.641 155.276 133.323L154.282 133.064C153.487 132.86 152.428 132.487 152.433 131.513C152.433 130.648 153.223 130.006 154.476 130.006C155.644 130.006 156.475 130.553 156.584 131.493ZM161.408 134.466C161.408 133.248 162.153 132.552 163.188 132.552C164.197 132.552 164.808 133.213 164.808 134.322V139H166.295V134.143C166.295 132.254 165.256 131.264 163.695 131.264C162.546 131.264 161.795 131.796 161.442 132.607H161.348V131.364H159.921V139H161.408V134.466ZM168.288 139H169.775V131.364H168.288V139ZM169.039 130.185C169.551 130.185 169.979 129.788 169.979 129.3C169.979 128.813 169.551 128.411 169.039 128.411C168.522 128.411 168.099 128.813 168.099 129.3C168.099 129.788 168.522 130.185 169.039 130.185ZM171.775 141.864H173.261V137.812H173.351C173.619 138.299 174.166 139.149 175.558 139.149C177.407 139.149 178.75 137.668 178.75 135.197C178.75 132.721 177.388 131.264 175.543 131.264C174.126 131.264 173.614 132.129 173.351 132.602H173.226V131.364H171.775V141.864ZM173.231 135.182C173.231 133.586 173.927 132.527 175.225 132.527C176.572 132.527 177.248 133.666 177.248 135.182C177.248 136.713 176.552 137.881 175.225 137.881C173.947 137.881 173.231 136.788 173.231 135.182ZM180.415 141.864H181.902V137.812H181.991C182.26 138.299 182.807 139.149 184.199 139.149C186.048 139.149 187.39 137.668 187.39 135.197C187.39 132.721 186.028 131.264 184.184 131.264C182.767 131.264 182.255 132.129 181.991 132.602H181.867V131.364H180.415V141.864ZM181.872 135.182C181.872 133.586 182.568 132.527 183.866 132.527C185.213 132.527 185.889 133.666 185.889 135.182C185.889 136.713 185.193 137.881 183.866 137.881C182.588 137.881 181.872 136.788 181.872 135.182ZM192.347 139.154C194.013 139.154 195.191 138.334 195.529 137.091L194.122 136.837C193.854 137.558 193.207 137.926 192.362 137.926C191.089 137.926 190.234 137.101 190.194 135.629H195.623V135.102C195.623 132.343 193.973 131.264 192.243 131.264C190.115 131.264 188.713 132.885 188.713 135.232C188.713 137.603 190.095 139.154 192.347 139.154ZM190.199 134.516C190.259 133.432 191.045 132.492 192.253 132.492C193.406 132.492 194.162 133.347 194.167 134.516H190.199ZM200.837 131.364H199.271V129.534H197.785V131.364H196.666V132.557H197.785V137.066C197.78 138.453 198.839 139.124 200.012 139.099C200.484 139.095 200.803 139.005 200.977 138.94L200.708 137.712C200.609 137.732 200.425 137.777 200.186 137.777C199.704 137.777 199.271 137.618 199.271 136.758V132.557H200.837V131.364ZM209.602 139C212.705 139 214.499 137.076 214.499 133.894C214.499 130.727 212.705 128.818 209.707 128.818H206.306V139H209.602ZM207.842 137.658V130.161H209.612C211.839 130.161 212.988 131.493 212.988 133.894C212.988 136.305 211.839 137.658 209.518 137.658H207.842ZM219.581 139.154C221.247 139.154 222.425 138.334 222.763 137.091L221.356 136.837C221.088 137.558 220.442 137.926 219.596 137.926C218.324 137.926 217.469 137.101 217.429 135.629H222.858V135.102C222.858 132.343 221.207 131.264 219.477 131.264C217.349 131.264 215.947 132.885 215.947 135.232C215.947 137.603 217.329 139.154 219.581 139.154ZM217.434 134.516C217.493 133.432 218.279 132.492 219.487 132.492C220.64 132.492 221.396 133.347 221.401 134.516H217.434ZM230.229 133.228C229.921 132.04 228.991 131.264 227.341 131.264C225.616 131.264 224.393 132.174 224.393 133.526C224.393 134.61 225.049 135.331 226.481 135.649L227.773 135.933C228.509 136.097 228.852 136.425 228.852 136.902C228.852 137.494 228.221 137.956 227.246 137.956C226.357 137.956 225.785 137.573 225.606 136.823L224.169 137.041C224.418 138.394 225.541 139.154 227.256 139.154C229.101 139.154 230.379 138.175 230.379 136.793C230.379 135.714 229.692 135.048 228.29 134.724L227.077 134.446C226.237 134.247 225.874 133.964 225.879 133.447C225.874 132.86 226.511 132.443 227.356 132.443C228.281 132.443 228.708 132.955 228.882 133.467L230.229 133.228ZM235.23 139.154C237.034 139.154 238.203 138.07 238.367 136.584H236.92C236.731 137.409 236.09 137.896 235.24 137.896C233.982 137.896 233.171 136.847 233.171 135.182C233.171 133.546 233.997 132.517 235.24 132.517C236.184 132.517 236.761 133.114 236.92 133.83H238.367C238.208 132.288 236.95 131.264 235.215 131.264C233.062 131.264 231.67 132.885 231.67 135.217C231.67 137.519 233.012 139.154 235.23 139.154ZM239.956 139H241.443V134.337C241.443 133.337 242.213 132.617 243.267 132.617C243.576 132.617 243.924 132.671 244.043 132.706V131.284C243.894 131.264 243.6 131.249 243.412 131.249C242.517 131.249 241.751 131.756 241.473 132.577H241.393V131.364H239.956V139ZM245.329 139H246.816V131.364H245.329V139ZM246.08 130.185C246.592 130.185 247.02 129.788 247.02 129.3C247.02 128.813 246.592 128.411 246.08 128.411C245.563 128.411 245.14 128.813 245.14 129.3C245.14 129.788 245.563 130.185 246.08 130.185ZM248.816 141.864H250.302V137.812H250.392C250.66 138.299 251.207 139.149 252.599 139.149C254.449 139.149 255.791 137.668 255.791 135.197C255.791 132.721 254.429 131.264 252.584 131.264C251.167 131.264 250.655 132.129 250.392 132.602H250.267V131.364H248.816V141.864ZM250.272 135.182C250.272 133.586 250.968 132.527 252.266 132.527C253.613 132.527 254.289 133.666 254.289 135.182C254.289 136.713 253.593 137.881 252.266 137.881C250.988 137.881 250.272 136.788 250.272 135.182ZM261.021 131.364H259.455V129.534H257.968V131.364H256.85V132.557H257.968V137.066C257.963 138.453 259.022 139.124 260.196 139.099C260.668 139.095 260.986 139.005 261.16 138.94L260.892 137.712C260.792 137.732 260.608 137.777 260.37 137.777C259.887 137.777 259.455 137.618 259.455 136.758V132.557H261.021V131.364ZM262.665 139H264.152V131.364H262.665V139ZM263.416 130.185C263.928 130.185 264.356 129.788 264.356 129.3C264.356 128.813 263.928 128.411 263.416 128.411C262.899 128.411 262.476 128.813 262.476 129.3C262.476 129.788 262.899 130.185 263.416 130.185ZM269.368 139.154C271.521 139.154 272.928 137.578 272.928 135.217C272.928 132.84 271.521 131.264 269.368 131.264C267.216 131.264 265.809 132.84 265.809 135.217C265.809 137.578 267.216 139.154 269.368 139.154ZM269.373 137.906C267.966 137.906 267.31 136.678 267.31 135.212C267.31 133.75 267.966 132.507 269.373 132.507C270.77 132.507 271.426 133.75 271.426 135.212C271.426 136.678 270.77 137.906 269.373 137.906ZM276.074 134.466C276.074 133.248 276.819 132.552 277.854 132.552C278.863 132.552 279.474 133.213 279.474 134.322V139H280.961V134.143C280.961 132.254 279.922 131.264 278.361 131.264C277.212 131.264 276.461 131.796 276.108 132.607H276.014V131.364H274.587V139H276.074V134.466Z" fill="white"/>
<path d="M94.75 129.333H105.25V130.5H94.75V129.333ZM94.75 138.083H102.917V139.25H94.75V138.083ZM94.75 135.167H105.25V136.333H94.75V135.167ZM94.75 132.25H102.917V133.417H94.75V132.25Z" fill="#87888B"/>
<path d="M128.575 176.129C128.227 173.952 126.522 172.679 124.369 172.679C121.734 172.679 119.79 174.653 119.79 177.909C119.79 181.166 121.724 183.139 124.369 183.139C126.607 183.139 128.242 181.737 128.575 179.724L127.024 179.719C126.761 181.021 125.667 181.737 124.379 181.737C122.634 181.737 121.317 180.4 121.317 177.909C121.317 175.438 122.629 174.081 124.384 174.081C125.682 174.081 126.771 174.812 127.024 176.129H128.575ZM133.511 183.154C135.664 183.154 137.07 181.578 137.07 179.217C137.07 176.84 135.664 175.264 133.511 175.264C131.358 175.264 129.951 176.84 129.951 179.217C129.951 181.578 131.358 183.154 133.511 183.154ZM133.516 181.906C132.109 181.906 131.453 180.678 131.453 179.212C131.453 177.75 132.109 176.507 133.516 176.507C134.913 176.507 135.569 177.75 135.569 179.212C135.569 180.678 134.913 181.906 133.516 181.906ZM138.73 185.864H140.216V181.812H140.306C140.574 182.299 141.121 183.149 142.513 183.149C144.363 183.149 145.705 181.668 145.705 179.197C145.705 176.721 144.343 175.264 142.498 175.264C141.081 175.264 140.569 176.129 140.306 176.602H140.181V175.364H138.73V185.864ZM140.186 179.182C140.186 177.586 140.882 176.527 142.18 176.527C143.527 176.527 144.203 177.666 144.203 179.182C144.203 180.713 143.507 181.881 142.18 181.881C140.902 181.881 140.186 180.788 140.186 179.182ZM148.037 185.844C149.265 185.844 150.045 185.202 150.483 184.019L153.64 175.379L152.034 175.364L150.1 181.29H150.02L148.086 175.364H146.495L149.289 183.099L149.105 183.607C148.728 184.596 148.196 184.685 147.38 184.462L147.022 185.68C147.201 185.764 147.589 185.844 148.037 185.844ZM167.321 176.129C166.973 173.952 165.268 172.679 163.115 172.679C160.48 172.679 158.537 174.653 158.537 177.909C158.537 181.166 160.471 183.139 163.115 183.139C165.353 183.139 166.988 181.737 167.321 179.724L165.77 179.719C165.507 181.021 164.413 181.737 163.125 181.737C161.38 181.737 160.063 180.4 160.063 177.909C160.063 175.438 161.375 174.081 163.13 174.081C164.428 174.081 165.517 174.812 165.77 176.129H167.321ZM172.257 183.154C174.41 183.154 175.817 181.578 175.817 179.217C175.817 176.84 174.41 175.264 172.257 175.264C170.104 175.264 168.697 176.84 168.697 179.217C168.697 181.578 170.104 183.154 172.257 183.154ZM172.262 181.906C170.855 181.906 170.199 180.678 170.199 179.212C170.199 177.75 170.855 176.507 172.262 176.507C173.659 176.507 174.315 177.75 174.315 179.212C174.315 180.678 173.659 181.906 172.262 181.906ZM180.335 183.149C181.727 183.149 182.273 182.299 182.542 181.812H182.666V183H184.118V172.818H182.631V176.602H182.542C182.273 176.129 181.766 175.264 180.344 175.264C178.5 175.264 177.143 176.721 177.143 179.197C177.143 181.668 178.48 183.149 180.335 183.149ZM180.663 181.881C179.335 181.881 178.644 180.713 178.644 179.182C178.644 177.666 179.32 176.527 180.663 176.527C181.96 176.527 182.656 177.586 182.656 179.182C182.656 180.788 181.945 181.881 180.663 181.881ZM189.531 183.154C191.196 183.154 192.374 182.334 192.713 181.091L191.306 180.837C191.037 181.558 190.391 181.926 189.546 181.926C188.273 181.926 187.418 181.101 187.378 179.629H192.807V179.102C192.807 176.343 191.156 175.264 189.426 175.264C187.298 175.264 185.896 176.885 185.896 179.232C185.896 181.603 187.279 183.154 189.531 183.154ZM187.383 178.516C187.443 177.432 188.228 176.492 189.436 176.492C190.59 176.492 191.345 177.347 191.35 178.516H187.383Z" fill="white"/>
<path d="M96.5 173.333V175.667H103.5V173.333H104.671C104.99 173.333 105.25 173.593 105.25 173.913V183.254C105.25 183.408 105.189 183.555 105.08 183.664C104.972 183.772 104.824 183.833 104.671 183.833H95.3292C95.1757 183.833 95.0284 183.772 94.9198 183.664C94.8112 183.555 94.7502 183.408 94.75 183.254V173.913C94.75 173.593 95.0096 173.333 95.3292 173.333H96.5ZM97.6667 172.167H102.333V174.5H97.6667V172.167Z" fill="#87888B"/>
<path d="M128.575 220.129C128.227 217.952 126.522 216.679 124.369 216.679C121.734 216.679 119.79 218.653 119.79 221.909C119.79 225.166 121.724 227.139 124.369 227.139C126.607 227.139 128.242 225.737 128.575 223.724L127.024 223.719C126.761 225.021 125.667 225.737 124.379 225.737C122.634 225.737 121.317 224.4 121.317 221.909C121.317 219.438 122.629 218.081 124.384 218.081C125.682 218.081 126.771 218.812 127.024 220.129H128.575ZM133.511 227.154C135.664 227.154 137.07 225.578 137.07 223.217C137.07 220.84 135.664 219.264 133.511 219.264C131.358 219.264 129.951 220.84 129.951 223.217C129.951 225.578 131.358 227.154 133.511 227.154ZM133.516 225.906C132.109 225.906 131.453 224.678 131.453 223.212C131.453 221.75 132.109 220.507 133.516 220.507C134.913 220.507 135.569 221.75 135.569 223.212C135.569 224.678 134.913 225.906 133.516 225.906ZM138.73 229.864H140.216V225.812H140.306C140.574 226.299 141.121 227.149 142.513 227.149C144.363 227.149 145.705 225.668 145.705 223.197C145.705 220.721 144.343 219.264 142.498 219.264C141.081 219.264 140.569 220.129 140.306 220.602H140.181V219.364H138.73V229.864ZM140.186 223.182C140.186 221.586 140.882 220.527 142.18 220.527C143.527 220.527 144.203 221.666 144.203 223.182C144.203 224.713 143.507 225.881 142.18 225.881C140.902 225.881 140.186 224.788 140.186 223.182ZM148.037 229.844C149.265 229.844 150.045 229.202 150.483 228.019L153.64 219.379L152.034 219.364L150.1 225.29H150.02L148.086 219.364H146.495L149.289 227.099L149.105 227.607C148.728 228.596 148.196 228.685 147.38 228.462L147.022 229.68C147.201 229.764 147.589 229.844 148.037 229.844ZM158.865 227H165.015V225.678H160.401V216.818H158.865V227ZM166.648 227H168.134V219.364H166.648V227ZM167.398 218.185C167.911 218.185 168.338 217.788 168.338 217.3C168.338 216.813 167.911 216.411 167.398 216.411C166.881 216.411 166.459 216.813 166.459 217.3C166.459 217.788 166.881 218.185 167.398 218.185ZM171.621 222.466C171.621 221.248 172.366 220.552 173.4 220.552C174.41 220.552 175.021 221.213 175.021 222.322V227H176.508V222.143C176.508 220.254 175.469 219.264 173.907 219.264C172.759 219.264 172.008 219.796 171.655 220.607H171.561V219.364H170.134V227H171.621V222.466ZM178.501 227H179.988V224.291L180.729 223.55L183.324 227H185.148L181.847 222.64L184.939 219.364H183.16L180.117 222.595H179.988V216.818H178.501V227Z" fill="white"/>
<path d="M100.583 223.167H99.4167C98.4598 223.166 97.521 223.428 96.7018 223.922C95.8826 224.417 95.2141 225.126 94.7687 225.973C94.7561 225.815 94.7499 225.658 94.75 225.5C94.75 222.278 97.3616 219.667 100.583 219.667V216.75L106.417 221.417L100.583 226.083V223.167Z" fill="#87888B"/>
<path d="M120.119 260.818V271H121.58V263.627H121.675L124.678 270.985H125.891L128.893 263.632H128.988V271H130.45V260.818H128.585L125.344 268.733H125.224L121.983 260.818H120.119ZM135.78 271.154C137.933 271.154 139.34 269.578 139.34 267.217C139.34 264.84 137.933 263.264 135.78 263.264C133.628 263.264 132.221 264.84 132.221 267.217C132.221 269.578 133.628 271.154 135.78 271.154ZM135.785 269.906C134.378 269.906 133.722 268.678 133.722 267.212C133.722 265.75 134.378 264.507 135.785 264.507C137.182 264.507 137.839 265.75 137.839 267.212C137.839 268.678 137.182 269.906 135.785 269.906ZM147.259 263.364H145.663L143.734 269.24H143.654L141.72 263.364H140.124L142.898 271H144.489L147.259 263.364ZM151.673 271.154C153.339 271.154 154.517 270.334 154.855 269.091L153.448 268.837C153.18 269.558 152.533 269.926 151.688 269.926C150.415 269.926 149.56 269.101 149.521 267.629H154.95V267.102C154.95 264.343 153.299 263.264 151.569 263.264C149.441 263.264 148.039 264.885 148.039 267.232C148.039 269.603 149.421 271.154 151.673 271.154ZM149.526 266.516C149.585 265.432 150.371 264.492 151.579 264.492C152.732 264.492 153.488 265.347 153.493 266.516H149.526ZM165.977 263.493H167.458C167.413 261.862 165.972 260.679 163.903 260.679C161.86 260.679 160.294 261.847 160.294 263.602C160.294 265.019 161.308 265.849 162.944 266.292L164.147 266.62C165.236 266.908 166.076 267.266 166.076 268.171C166.076 269.166 165.126 269.822 163.819 269.822C162.636 269.822 161.651 269.295 161.562 268.186H160.021C160.12 270.031 161.547 271.169 163.829 271.169C166.22 271.169 167.597 269.911 167.597 268.186C167.597 266.352 165.962 265.641 164.669 265.323L163.675 265.064C162.879 264.86 161.82 264.487 161.825 263.513C161.825 262.648 162.616 262.006 163.869 262.006C165.037 262.006 165.867 262.553 165.977 263.493ZM170.8 266.466C170.8 265.248 171.546 264.552 172.58 264.552C173.589 264.552 174.201 265.213 174.201 266.322V271H175.687V266.143C175.687 264.254 174.648 263.264 173.087 263.264C171.939 263.264 171.188 263.796 170.835 264.607H170.741V263.364H169.314V271H170.8V266.466ZM177.681 271H179.167V263.364H177.681V271ZM178.432 262.185C178.944 262.185 179.371 261.788 179.371 261.3C179.371 260.813 178.944 260.411 178.432 260.411C177.915 260.411 177.492 260.813 177.492 261.3C177.492 261.788 177.915 262.185 178.432 262.185ZM181.167 273.864H182.654V269.812H182.743C183.012 270.299 183.559 271.149 184.951 271.149C186.8 271.149 188.142 269.668 188.142 267.197C188.142 264.721 186.78 263.264 184.936 263.264C183.519 263.264 183.007 264.129 182.743 264.602H182.619V263.364H181.167V273.864ZM182.624 267.182C182.624 265.586 183.32 264.527 184.618 264.527C185.965 264.527 186.641 265.666 186.641 267.182C186.641 268.713 185.945 269.881 184.618 269.881C183.34 269.881 182.624 268.788 182.624 267.182ZM189.808 273.864H191.294V269.812H191.384C191.652 270.299 192.199 271.149 193.591 271.149C195.441 271.149 196.783 269.668 196.783 267.197C196.783 264.721 195.421 263.264 193.576 263.264C192.159 263.264 191.647 264.129 191.384 264.602H191.26V263.364H189.808V273.864ZM191.265 267.182C191.265 265.586 191.961 264.527 193.258 264.527C194.605 264.527 195.282 265.666 195.282 267.182C195.282 268.713 194.586 269.881 193.258 269.881C191.98 269.881 191.265 268.788 191.265 267.182ZM201.74 271.154C203.405 271.154 204.583 270.334 204.922 269.091L203.515 268.837C203.246 269.558 202.6 269.926 201.755 269.926C200.482 269.926 199.627 269.101 199.587 267.629H205.016V267.102C205.016 264.343 203.365 263.264 201.635 263.264C199.507 263.264 198.105 264.885 198.105 267.232C198.105 269.603 199.488 271.154 201.74 271.154ZM199.592 266.516C199.652 265.432 200.437 264.492 201.645 264.492C202.799 264.492 203.554 265.347 203.559 266.516H199.592ZM210.23 263.364H208.664V261.534H207.177V263.364H206.059V264.557H207.177V269.066C207.172 270.453 208.231 271.124 209.405 271.099C209.877 271.095 210.195 271.005 210.369 270.94L210.101 269.712C210.001 269.732 209.817 269.777 209.579 269.777C209.096 269.777 208.664 269.618 208.664 268.758V264.557H210.23V263.364ZM216.559 271.095C217.101 271.095 217.553 270.652 217.553 270.1C217.553 269.558 217.101 269.111 216.559 269.111C216.012 269.111 215.564 269.558 215.564 270.1C215.564 270.652 216.012 271.095 216.559 271.095ZM220.524 271.095C221.066 271.095 221.518 270.652 221.518 270.1C221.518 269.558 221.066 269.111 220.524 269.111C219.977 269.111 219.529 269.558 219.529 270.1C219.529 270.652 219.977 271.095 220.524 271.095ZM224.488 271.095C225.03 271.095 225.483 270.652 225.483 270.1C225.483 269.558 225.03 269.111 224.488 269.111C223.942 269.111 223.494 269.558 223.494 270.1C223.494 270.652 223.942 271.095 224.488 271.095Z" fill="white"/>
<path d="M99.416 265.417V262.4L98.3497 263.467L97.5243 262.642L99.9993 260.167L102.474 262.642L101.649 263.467L100.583 262.4V265.417H103.6L102.533 264.35L103.358 263.525L105.833 266L103.358 268.475L102.533 267.65L103.6 266.583H100.583V269.6L101.649 268.533L102.474 269.358L99.9993 271.833L97.5243 269.358L98.3497 268.533L99.416 269.6V266.583H96.399L97.4659 267.65L96.6411 268.475L94.166 266L96.6411 263.525L97.4659 264.35L96.399 265.417H99.416Z" fill="#87888B"/>
<rect x="77.5" y="0.5" width="479" height="959" rx="5.5" stroke="#262729" stroke-opacity="0.7"/>
</g>
<defs>
<clipPath id="clip0">
<path d="M0 0H368V264C368 266.209 366.209 268 364 268H0V0Z" fill="white"/>
</clipPath>
<clipPath id="clip1">
<rect width="14" height="14" fill="white" transform="translate(93 83.0001)"/>
</clipPath>
</defs>
</svg>
