<svg width="400" height="376" viewBox="0 0 400 376" fill="none" xmlns="http://www.w3.org/2000/svg">
<g clip-path="url(#clip0)">
<g filter="url(#filter0_d)">
<rect width="480" height="960" rx="6" fill="#1B1C1E"/>
<path d="M22.4164 30L18.2916 34.1248L17.4668 33.2999L20.7667 30L17.4668 26.7001L18.2916 25.8759L22.4164 30ZM22.4164 34.0834H28.2497V35.25H22.4164V34.0834Z" fill="white"/>
<path d="M48.6719 27.4929H50.1534C50.1087 25.8622 48.6669 24.679 46.5987 24.679C44.5554 24.679 42.9893 25.8473 42.9893 27.6023C42.9893 29.0192 44.0036 29.8494 45.6392 30.2919L46.8423 30.62C47.9311 30.9084 48.7713 31.2663 48.7713 32.1712C48.7713 33.1655 47.8217 33.8217 46.5142 33.8217C45.331 33.8217 44.3466 33.2947 44.2571 32.1861H42.7159C42.8153 34.0305 44.2422 35.169 46.5241 35.169C48.9155 35.169 50.2926 33.9112 50.2926 32.1861C50.2926 30.3516 48.657 29.6406 47.3643 29.3224L46.37 29.0639C45.5746 28.8601 44.5156 28.4872 44.5206 27.5128C44.5206 26.6477 45.3111 26.0064 46.5639 26.0064C47.7322 26.0064 48.5625 26.5533 48.6719 27.4929ZM55.3002 35.1541C56.9657 35.1541 58.144 34.3338 58.4821 33.0909L57.0751 32.8374C56.8066 33.5582 56.1603 33.9261 55.3152 33.9261C54.0424 33.9261 53.1873 33.1009 53.1475 31.6293H58.5765V31.1023C58.5765 28.343 56.926 27.2642 55.1958 27.2642C53.068 27.2642 51.666 28.8849 51.666 31.2315C51.666 33.603 53.0481 35.1541 55.3002 35.1541ZM53.1525 30.5156C53.2122 29.4318 53.9977 28.4922 55.2058 28.4922C56.3592 28.4922 57.1149 29.3473 57.1199 30.5156H53.1525ZM62.4482 35.169C63.7109 35.169 64.4219 34.5277 64.7053 33.956H64.7649V35H66.2166V29.929C66.2166 27.7067 64.4666 27.2642 63.2536 27.2642C61.8714 27.2642 60.5987 27.821 60.1016 29.2131L61.4986 29.5312C61.7173 28.9893 62.2741 28.4673 63.2734 28.4673C64.233 28.4673 64.7251 28.9695 64.7251 29.8345V29.8693C64.7251 30.4112 64.1683 30.4013 62.7962 30.5604C61.3494 30.7294 59.8679 31.1072 59.8679 32.8423C59.8679 34.3438 60.9964 35.169 62.4482 35.169ZM62.7713 33.9759C61.9311 33.9759 61.3246 33.598 61.3246 32.8622C61.3246 32.0668 62.0305 31.7834 62.8906 31.669C63.3729 31.6044 64.5163 31.4751 64.7301 31.2614V32.2457C64.7301 33.1506 64.0092 33.9759 62.7713 33.9759ZM68.1966 35H69.6831V30.3366C69.6831 29.3374 70.4537 28.6165 71.5076 28.6165C71.8159 28.6165 72.1639 28.6712 72.2832 28.706V27.2841C72.1341 27.2642 71.8407 27.2493 71.6518 27.2493C70.7569 27.2493 69.9913 27.7564 69.7129 28.5767H69.6333V27.3636H68.1966V35ZM76.5128 35.1541C78.3175 35.1541 79.4858 34.0703 79.6499 32.5838H78.2031C78.0142 33.4091 77.3729 33.8963 76.5227 33.8963C75.2649 33.8963 74.4545 32.8473 74.4545 31.1818C74.4545 29.5462 75.2798 28.517 76.5227 28.517C77.4673 28.517 78.044 29.1136 78.2031 29.8295H79.6499C79.4908 28.2884 78.233 27.2642 76.4979 27.2642C74.3452 27.2642 72.9531 28.8849 72.9531 31.2166C72.9531 33.5185 74.2955 35.1541 76.5128 35.1541ZM82.726 30.4659C82.726 29.2479 83.4966 28.5518 84.5556 28.5518C85.5797 28.5518 86.1912 29.2031 86.1912 30.3217V35H87.6777V30.1428C87.6777 28.2386 86.6337 27.2642 85.0627 27.2642C83.8745 27.2642 83.1586 27.7812 82.8006 28.6065H82.7061V24.8182H81.2395V35H82.726V30.4659ZM97.0007 27.3636H95.3551V26.6776C95.3551 26.0014 95.6335 25.6335 96.3594 25.6335C96.6676 25.6335 96.8864 25.7031 97.0256 25.7479L97.3736 24.5447C97.1648 24.4652 96.7322 24.3409 96.1307 24.3409C94.9226 24.3409 93.8636 25.0469 93.8636 26.4787V27.3636H92.6854V28.5568H93.8636V35H95.3551V28.5568H97.0007V27.3636ZM101.45 35.1541C103.603 35.1541 105.01 33.5781 105.01 31.2166C105.01 28.8402 103.603 27.2642 101.45 27.2642C99.2976 27.2642 97.8906 28.8402 97.8906 31.2166C97.8906 33.5781 99.2976 35.1541 101.45 35.1541ZM101.455 33.9062C100.048 33.9062 99.392 32.6783 99.392 31.2116C99.392 29.75 100.048 28.5071 101.455 28.5071C102.852 28.5071 103.509 29.75 103.509 31.2116C103.509 32.6783 102.852 33.9062 101.455 33.9062ZM106.669 35H108.156V30.3366C108.156 29.3374 108.926 28.6165 109.98 28.6165C110.289 28.6165 110.637 28.6712 110.756 28.706V27.2841C110.607 27.2642 110.313 27.2493 110.124 27.2493C109.23 27.2493 108.464 27.7564 108.186 28.5767H108.106V27.3636H106.669V35ZM117.97 35.169C119.232 35.169 119.943 34.5277 120.227 33.956H120.286V35H121.738V29.929C121.738 27.7067 119.988 27.2642 118.775 27.2642C117.393 27.2642 116.12 27.821 115.623 29.2131L117.02 29.5312C117.239 28.9893 117.796 28.4673 118.795 28.4673C119.754 28.4673 120.247 28.9695 120.247 29.8345V29.8693C120.247 30.4112 119.69 30.4013 118.318 30.5604C116.871 30.7294 115.389 31.1072 115.389 32.8423C115.389 34.3438 116.518 35.169 117.97 35.169ZM118.293 33.9759C117.453 33.9759 116.846 33.598 116.846 32.8622C116.846 32.0668 117.552 31.7834 118.412 31.669C118.894 31.6044 120.038 31.4751 120.252 31.2614V32.2457C120.252 33.1506 119.531 33.9759 118.293 33.9759ZM130.64 35.1541C132.444 35.1541 133.613 34.0703 133.777 32.5838H132.33C132.141 33.4091 131.5 33.8963 130.65 33.8963C129.392 33.8963 128.581 32.8473 128.581 31.1818C128.581 29.5462 129.407 28.517 130.65 28.517C131.594 28.517 132.171 29.1136 132.33 29.8295H133.777C133.618 28.2884 132.36 27.2642 130.625 27.2642C128.472 27.2642 127.08 28.8849 127.08 31.2166C127.08 33.5185 128.422 35.1541 130.64 35.1541ZM138.583 35.1541C140.736 35.1541 142.143 33.5781 142.143 31.2166C142.143 28.8402 140.736 27.2642 138.583 27.2642C136.43 27.2642 135.023 28.8402 135.023 31.2166C135.023 33.5781 136.43 35.1541 138.583 35.1541ZM138.588 33.9062C137.181 33.9062 136.525 32.6783 136.525 31.2116C136.525 29.75 137.181 28.5071 138.588 28.5071C139.985 28.5071 140.641 29.75 140.641 31.2116C140.641 32.6783 139.985 33.9062 138.588 33.9062ZM143.802 35H145.289V30.2919C145.289 29.2628 146.009 28.5469 146.855 28.5469C147.68 28.5469 148.252 29.0938 148.252 29.924V35H149.733V30.1328C149.733 29.2131 150.295 28.5469 151.264 28.5469C152.05 28.5469 152.696 28.9844 152.696 30.0185V35H154.183V29.8793C154.183 28.1342 153.208 27.2642 151.826 27.2642C150.727 27.2642 149.902 27.7912 149.534 28.6065H149.455C149.122 27.7713 148.421 27.2642 147.401 27.2642C146.392 27.2642 145.642 27.7663 145.323 28.6065H145.229V27.3636H143.802V35ZM156.175 35H157.662V30.2919C157.662 29.2628 158.382 28.5469 159.228 28.5469C160.053 28.5469 160.625 29.0938 160.625 29.924V35H162.106V30.1328C162.106 29.2131 162.668 28.5469 163.637 28.5469C164.423 28.5469 165.069 28.9844 165.069 30.0185V35H166.556V29.8793C166.556 28.1342 165.581 27.2642 164.199 27.2642C163.1 27.2642 162.275 27.7912 161.907 28.6065H161.828C161.495 27.7713 160.794 27.2642 159.775 27.2642C158.765 27.2642 158.015 27.7663 157.696 28.6065H157.602V27.3636H156.175V35ZM170.77 35.169C172.033 35.169 172.744 34.5277 173.028 33.956H173.087V35H174.539V29.929C174.539 27.7067 172.789 27.2642 171.576 27.2642C170.194 27.2642 168.921 27.821 168.424 29.2131L169.821 29.5312C170.04 28.9893 170.596 28.4673 171.596 28.4673C172.555 28.4673 173.047 28.9695 173.047 29.8345V29.8693C173.047 30.4112 172.491 30.4013 171.118 30.5604C169.672 30.7294 168.19 31.1072 168.19 32.8423C168.19 34.3438 169.319 35.169 170.77 35.169ZM171.094 33.9759C170.253 33.9759 169.647 33.598 169.647 32.8622C169.647 32.0668 170.353 31.7834 171.213 31.669C171.695 31.6044 172.839 31.4751 173.052 31.2614V32.2457C173.052 33.1506 172.331 33.9759 171.094 33.9759ZM178.005 30.4659C178.005 29.2479 178.751 28.5518 179.785 28.5518C180.794 28.5518 181.406 29.2131 181.406 30.3217V35H182.892V30.1428C182.892 28.2536 181.853 27.2642 180.292 27.2642C179.144 27.2642 178.393 27.7962 178.04 28.6065H177.946V27.3636H176.519V35H178.005V30.4659ZM187.745 35.1491C189.137 35.1491 189.684 34.299 189.952 33.8118H190.076V35H191.528V24.8182H190.042V28.6016H189.952C189.684 28.1293 189.176 27.2642 187.755 27.2642C185.91 27.2642 184.553 28.7209 184.553 31.1967C184.553 33.6676 185.89 35.1491 187.745 35.1491ZM188.073 33.8814C186.745 33.8814 186.054 32.7131 186.054 31.1818C186.054 29.6655 186.73 28.527 188.073 28.527C189.37 28.527 190.066 29.5859 190.066 31.1818C190.066 32.7876 189.355 33.8814 188.073 33.8814Z" fill="#87888B"/>
<line x1="4.37114e-08" y1="59.5" x2="480" y2="59.5" stroke="#262729"/>
<rect y="68" width="480" height="44" fill="#262729"/>
<path d="M43.1186 95H44.6548V91.4205H46.7429C49.1044 91.4205 50.2727 89.9936 50.2727 88.1143C50.2727 86.2401 49.1143 84.8182 46.7479 84.8182H43.1186V95ZM44.6548 90.1179V86.1357H46.5838C48.1051 86.1357 48.7266 86.9609 48.7266 88.1143C48.7266 89.2678 48.1051 90.1179 46.6037 90.1179H44.6548ZM51.9544 95H53.4409V87.3636H51.9544V95ZM52.7051 86.1854C53.2172 86.1854 53.6447 85.7876 53.6447 85.3004C53.6447 84.8132 53.2172 84.4105 52.7051 84.4105C52.188 84.4105 51.7654 84.8132 51.7654 85.3004C51.7654 85.7876 52.188 86.1854 52.7051 86.1854ZM56.9272 90.4659C56.9272 89.2479 57.6729 88.5518 58.707 88.5518C59.7163 88.5518 60.3278 89.2131 60.3278 90.3217V95H61.8143V90.1428C61.8143 88.2536 60.7752 87.2642 59.2141 87.2642C58.0657 87.2642 57.315 87.7962 56.962 88.6065H56.8675V87.3636H55.4407V95H56.9272V90.4659ZM73.1855 87.4929H74.6671C74.6223 85.8622 73.1806 84.679 71.1124 84.679C69.0691 84.679 67.503 85.8473 67.503 87.6023C67.503 89.0192 68.5172 89.8494 70.1529 90.2919L71.356 90.62C72.4448 90.9084 73.285 91.2663 73.285 92.1712C73.285 93.1655 72.3354 93.8217 71.0279 93.8217C69.8446 93.8217 68.8603 93.2947 68.7708 92.1861H67.2296C67.329 94.0305 68.7559 95.169 71.0378 95.169C73.4292 95.169 74.8063 93.9112 74.8063 92.1861C74.8063 90.3516 73.1706 89.6406 71.878 89.3224L70.8837 89.0639C70.0882 88.8601 69.0293 88.4872 69.0343 87.5128C69.0343 86.6477 69.8248 86.0064 71.0776 86.0064C72.2459 86.0064 73.0762 86.5533 73.1855 87.4929ZM78.0092 90.4659C78.0092 89.2479 78.755 88.5518 79.7891 88.5518C80.7983 88.5518 81.4098 89.2131 81.4098 90.3217V95H82.8963V90.1428C82.8963 88.2536 81.8572 87.2642 80.2962 87.2642C79.1477 87.2642 78.397 87.7962 78.044 88.6065H77.9496V87.3636H76.5227V95H78.0092V90.4659ZM84.8899 95H86.3764V87.3636H84.8899V95ZM85.6406 86.1854C86.1527 86.1854 86.5803 85.7876 86.5803 85.3004C86.5803 84.8132 86.1527 84.4105 85.6406 84.4105C85.1236 84.4105 84.701 84.8132 84.701 85.3004C84.701 85.7876 85.1236 86.1854 85.6406 86.1854ZM88.3762 97.8636H89.8627V93.8118H89.9522C90.2207 94.299 90.7676 95.1491 92.1596 95.1491C94.0091 95.1491 95.3514 93.6676 95.3514 91.1967C95.3514 88.7209 93.9892 87.2642 92.1447 87.2642C90.7278 87.2642 90.2157 88.1293 89.9522 88.6016H89.8279V87.3636H88.3762V97.8636ZM89.8329 91.1818C89.8329 89.5859 90.5289 88.527 91.8265 88.527C93.1738 88.527 93.85 89.6655 93.85 91.1818C93.85 92.7131 93.1539 93.8814 91.8265 93.8814C90.5488 93.8814 89.8329 92.7876 89.8329 91.1818ZM97.0169 97.8636H98.5034V93.8118H98.5929C98.8613 94.299 99.4082 95.1491 100.8 95.1491C102.65 95.1491 103.992 93.6676 103.992 91.1967C103.992 88.7209 102.63 87.2642 100.785 87.2642C99.3684 87.2642 98.8564 88.1293 98.5929 88.6016H98.4686V87.3636H97.0169V97.8636ZM98.4735 91.1818C98.4735 89.5859 99.1696 88.527 100.467 88.527C101.814 88.527 102.491 89.6655 102.491 91.1818C102.491 92.7131 101.795 93.8814 100.467 93.8814C99.1895 93.8814 98.4735 92.7876 98.4735 91.1818ZM108.949 95.1541C110.614 95.1541 111.792 94.3338 112.131 93.0909L110.724 92.8374C110.455 93.5582 109.809 93.9261 108.964 93.9261C107.691 93.9261 106.836 93.1009 106.796 91.6293H112.225V91.1023C112.225 88.343 110.574 87.2642 108.844 87.2642C106.716 87.2642 105.314 88.8849 105.314 91.2315C105.314 93.603 106.697 95.1541 108.949 95.1541ZM106.801 90.5156C106.861 89.4318 107.646 88.4922 108.854 88.4922C110.008 88.4922 110.763 89.3473 110.768 90.5156H106.801ZM117.439 87.3636H115.873V85.5341H114.386V87.3636H113.268V88.5568H114.386V93.0661C114.381 94.4531 115.44 95.1243 116.614 95.0994C117.086 95.0945 117.404 95.005 117.578 94.9403L117.31 93.7124C117.21 93.7322 117.026 93.777 116.788 93.777C116.305 93.777 115.873 93.6179 115.873 92.7578V88.5568H117.439V87.3636Z" fill="white"/>
<path d="M29.0159 88.9337L28.1905 89.7585L27.7781 89.3461L25.3036 91.8206L24.8912 93.8833L24.0657 94.7081L21.5912 92.233L18.7037 95.1205L17.8789 94.2957L20.7664 91.4082L18.2913 88.9337L19.1162 88.1083L21.1794 87.6959L23.6539 85.2214L23.2415 84.8089L24.0663 83.9835L29.0159 88.9337Z" fill="#87888B"/>
<path d="M43.9787 139L44.9134 136.305H48.8906L49.8203 139H51.451L47.7869 128.818H46.0121L42.348 139H43.9787ZM45.3608 135.013L46.8622 130.668H46.9418L48.4432 135.013H45.3608ZM55.5376 139.149C56.9297 139.149 57.4766 138.299 57.745 137.812H57.8693V139H59.321V128.818H57.8345V132.602H57.745C57.4766 132.129 56.9695 131.264 55.5476 131.264C53.7031 131.264 52.3459 132.721 52.3459 135.197C52.3459 137.668 53.6832 139.149 55.5376 139.149ZM55.8658 137.881C54.5384 137.881 53.8473 136.713 53.8473 135.182C53.8473 133.665 54.5234 132.527 55.8658 132.527C57.1634 132.527 57.8594 133.586 57.8594 135.182C57.8594 136.788 57.1484 137.881 55.8658 137.881ZM64.3013 139.149C65.6934 139.149 66.2402 138.299 66.5087 137.812H66.633V139H68.0847V128.818H66.5982V132.602H66.5087C66.2402 132.129 65.7331 131.264 64.3113 131.264C62.4668 131.264 61.1096 132.721 61.1096 135.197C61.1096 137.668 62.4469 139.149 64.3013 139.149ZM64.6294 137.881C63.302 137.881 62.611 136.713 62.611 135.182C62.611 133.665 63.2871 132.527 64.6294 132.527C65.927 132.527 66.623 133.586 66.623 135.182C66.623 136.788 65.9121 137.881 64.6294 137.881ZM79.584 131.493H81.0655C81.0208 129.862 79.579 128.679 77.5108 128.679C75.4675 128.679 73.9015 129.847 73.9015 131.602C73.9015 133.019 74.9157 133.849 76.5513 134.292L77.7544 134.62C78.8432 134.908 79.6834 135.266 79.6834 136.171C79.6834 137.165 78.7338 137.822 77.4263 137.822C76.2431 137.822 75.2587 137.295 75.1692 136.186H73.628C73.7275 138.031 75.1543 139.169 77.4363 139.169C79.8276 139.169 81.2047 137.911 81.2047 136.186C81.2047 134.352 79.5691 133.641 78.2765 133.322L77.2821 133.064C76.4867 132.86 75.4277 132.487 75.4327 131.513C75.4327 130.648 76.2232 130.006 77.476 130.006C78.6444 130.006 79.4746 130.553 79.584 131.493ZM84.4077 134.466C84.4077 133.248 85.1534 132.552 86.1875 132.552C87.1967 132.552 87.8082 133.213 87.8082 134.322V139H89.2947V134.143C89.2947 132.254 88.2557 131.264 86.6946 131.264C85.5462 131.264 84.7955 131.796 84.4425 132.607H84.348V131.364H82.9212V139H84.4077V134.466ZM91.2884 139H92.7749V131.364H91.2884V139ZM92.0391 130.185C92.5511 130.185 92.9787 129.788 92.9787 129.3C92.9787 128.813 92.5511 128.411 92.0391 128.411C91.522 128.411 91.0994 128.813 91.0994 129.3C91.0994 129.788 91.522 130.185 92.0391 130.185ZM94.7747 141.864H96.2612V137.812H96.3507C96.6191 138.299 97.166 139.149 98.5581 139.149C100.407 139.149 101.75 137.668 101.75 135.197C101.75 132.721 100.388 131.264 98.5431 131.264C97.1262 131.264 96.6142 132.129 96.3507 132.602H96.2264V131.364H94.7747V141.864ZM96.2314 135.182C96.2314 133.586 96.9274 132.527 98.225 132.527C99.5723 132.527 100.248 133.665 100.248 135.182C100.248 136.713 99.5524 137.881 98.225 137.881C96.9473 137.881 96.2314 136.788 96.2314 135.182ZM103.415 141.864H104.902V137.812H104.991C105.26 138.299 105.807 139.149 107.199 139.149C109.048 139.149 110.39 137.668 110.39 135.197C110.39 132.721 109.028 131.264 107.184 131.264C105.767 131.264 105.255 132.129 104.991 132.602H104.867V131.364H103.415V141.864ZM104.872 135.182C104.872 133.586 105.568 132.527 106.866 132.527C108.213 132.527 108.889 133.665 108.889 135.182C108.889 136.713 108.193 137.881 106.866 137.881C105.588 137.881 104.872 136.788 104.872 135.182ZM115.347 139.154C117.013 139.154 118.191 138.334 118.529 137.091L117.122 136.837C116.854 137.558 116.207 137.926 115.362 137.926C114.089 137.926 113.234 137.101 113.194 135.629H118.623V135.102C118.623 132.343 116.973 131.264 115.243 131.264C113.115 131.264 111.713 132.885 111.713 135.232C111.713 137.603 113.095 139.154 115.347 139.154ZM113.199 134.516C113.259 133.432 114.045 132.492 115.253 132.492C116.406 132.492 117.162 133.347 117.167 134.516H113.199ZM123.837 131.364H122.271V129.534H120.785V131.364H119.666V132.557H120.785V137.066C120.78 138.453 121.839 139.124 123.012 139.099C123.484 139.094 123.803 139.005 123.977 138.94L123.708 137.712C123.609 137.732 123.425 137.777 123.186 137.777C122.704 137.777 122.271 137.618 122.271 136.758V132.557H123.837V131.364ZM132.602 139C135.705 139 137.499 137.076 137.499 133.894C137.499 130.727 135.705 128.818 132.707 128.818H129.306V139H132.602ZM130.842 137.658V130.161H132.612C134.839 130.161 135.988 131.493 135.988 133.894C135.988 136.305 134.839 137.658 132.518 137.658H130.842ZM142.581 139.154C144.247 139.154 145.425 138.334 145.763 137.091L144.356 136.837C144.088 137.558 143.442 137.926 142.596 137.926C141.324 137.926 140.469 137.101 140.429 135.629H145.858V135.102C145.858 132.343 144.207 131.264 142.477 131.264C140.349 131.264 138.947 132.885 138.947 135.232C138.947 137.603 140.329 139.154 142.581 139.154ZM140.434 134.516C140.493 133.432 141.279 132.492 142.487 132.492C143.64 132.492 144.396 133.347 144.401 134.516H140.434ZM153.229 133.228C152.921 132.04 151.991 131.264 150.341 131.264C148.616 131.264 147.393 132.174 147.393 133.526C147.393 134.61 148.049 135.331 149.481 135.649L150.773 135.933C151.509 136.097 151.852 136.425 151.852 136.902C151.852 137.494 151.221 137.956 150.246 137.956C149.357 137.956 148.785 137.573 148.606 136.822L147.169 137.041C147.418 138.393 148.541 139.154 150.256 139.154C152.101 139.154 153.379 138.175 153.379 136.793C153.379 135.714 152.692 135.048 151.29 134.724L150.077 134.446C149.237 134.247 148.874 133.964 148.879 133.447C148.874 132.86 149.511 132.442 150.356 132.442C151.281 132.442 151.708 132.955 151.882 133.467L153.229 133.228ZM158.23 139.154C160.034 139.154 161.203 138.07 161.367 136.584H159.92C159.731 137.409 159.09 137.896 158.24 137.896C156.982 137.896 156.171 136.847 156.171 135.182C156.171 133.546 156.997 132.517 158.24 132.517C159.184 132.517 159.761 133.114 159.92 133.83H161.367C161.208 132.288 159.95 131.264 158.215 131.264C156.062 131.264 154.67 132.885 154.67 135.217C154.67 137.518 156.012 139.154 158.23 139.154ZM162.956 139H164.443V134.337C164.443 133.337 165.213 132.616 166.267 132.616C166.576 132.616 166.924 132.671 167.043 132.706V131.284C166.894 131.264 166.6 131.249 166.412 131.249C165.517 131.249 164.751 131.756 164.473 132.577H164.393V131.364H162.956V139ZM168.329 139H169.816V131.364H168.329V139ZM169.08 130.185C169.592 130.185 170.02 129.788 170.02 129.3C170.02 128.813 169.592 128.411 169.08 128.411C168.563 128.411 168.14 128.813 168.14 129.3C168.14 129.788 168.563 130.185 169.08 130.185ZM171.816 141.864H173.302V137.812H173.392C173.66 138.299 174.207 139.149 175.599 139.149C177.449 139.149 178.791 137.668 178.791 135.197C178.791 132.721 177.429 131.264 175.584 131.264C174.167 131.264 173.655 132.129 173.392 132.602H173.267V131.364H171.816V141.864ZM173.272 135.182C173.272 133.586 173.968 132.527 175.266 132.527C176.613 132.527 177.289 133.665 177.289 135.182C177.289 136.713 176.593 137.881 175.266 137.881C173.988 137.881 173.272 136.788 173.272 135.182ZM184.021 131.364H182.455V129.534H180.968V131.364H179.85V132.557H180.968V137.066C180.963 138.453 182.022 139.124 183.196 139.099C183.668 139.094 183.986 139.005 184.16 138.94L183.892 137.712C183.792 137.732 183.608 137.777 183.37 137.777C182.887 137.777 182.455 137.618 182.455 136.758V132.557H184.021V131.364ZM185.665 139H187.152V131.364H185.665V139ZM186.416 130.185C186.928 130.185 187.356 129.788 187.356 129.3C187.356 128.813 186.928 128.411 186.416 128.411C185.899 128.411 185.476 128.813 185.476 129.3C185.476 129.788 185.899 130.185 186.416 130.185ZM192.368 139.154C194.521 139.154 195.928 137.578 195.928 135.217C195.928 132.84 194.521 131.264 192.368 131.264C190.216 131.264 188.809 132.84 188.809 135.217C188.809 137.578 190.216 139.154 192.368 139.154ZM192.373 137.906C190.966 137.906 190.31 136.678 190.31 135.212C190.31 133.75 190.966 132.507 192.373 132.507C193.77 132.507 194.426 133.75 194.426 135.212C194.426 136.678 193.77 137.906 192.373 137.906ZM199.074 134.466C199.074 133.248 199.819 132.552 200.854 132.552C201.863 132.552 202.474 133.213 202.474 134.322V139H203.961V134.143C203.961 132.254 202.922 131.264 201.361 131.264C200.212 131.264 199.461 131.796 199.108 132.607H199.014V131.364H197.587V139H199.074V134.466Z" fill="white"/>
<path d="M17.75 129.333H28.25V130.5H17.75V129.333ZM17.75 138.083H25.9167V139.25H17.75V138.083ZM17.75 135.167H28.25V136.333H17.75V135.167ZM17.75 132.25H25.9167V133.417H17.75V132.25Z" fill="#87888B"/>
<path d="M51.5753 176.129C51.2273 173.952 49.522 172.679 47.3693 172.679C44.7344 172.679 42.7905 174.653 42.7905 177.909C42.7905 181.165 44.7244 183.139 47.3693 183.139C49.6065 183.139 51.2422 181.737 51.5753 179.724L50.0241 179.719C49.7607 181.021 48.6669 181.737 47.3793 181.737C45.6342 181.737 44.3168 180.4 44.3168 177.909C44.3168 175.438 45.6293 174.081 47.3842 174.081C48.6818 174.081 49.7706 174.812 50.0241 176.129H51.5753ZM56.5108 183.154C58.6635 183.154 60.0705 181.578 60.0705 179.217C60.0705 176.84 58.6635 175.264 56.5108 175.264C54.3581 175.264 52.9512 176.84 52.9512 179.217C52.9512 181.578 54.3581 183.154 56.5108 183.154ZM56.5158 181.906C55.1088 181.906 54.4526 180.678 54.4526 179.212C54.4526 177.75 55.1088 176.507 56.5158 176.507C57.9128 176.507 58.5691 177.75 58.5691 179.212C58.5691 180.678 57.9128 181.906 56.5158 181.906ZM61.7298 185.864H63.2163V181.812H63.3058C63.5742 182.299 64.1211 183.149 65.5131 183.149C67.3626 183.149 68.7049 181.668 68.7049 179.197C68.7049 176.721 67.3427 175.264 65.4982 175.264C64.0813 175.264 63.5692 176.129 63.3058 176.602H63.1815V175.364H61.7298V185.864ZM63.1864 179.182C63.1864 177.586 63.8825 176.527 65.18 176.527C66.5273 176.527 67.2035 177.665 67.2035 179.182C67.2035 180.713 66.5075 181.881 65.18 181.881C63.9023 181.881 63.1864 180.788 63.1864 179.182ZM71.0366 185.844C72.2646 185.844 73.0451 185.202 73.4826 184.019L76.6396 175.379L75.0337 175.364L73.0998 181.29H73.0202L71.0863 175.364H69.4954L72.2894 183.099L72.1055 183.607C71.7276 184.596 71.1957 184.685 70.3803 184.462L70.0224 185.68C70.2013 185.764 70.5891 185.844 71.0366 185.844ZM90.3214 176.129C89.9734 173.952 88.2681 172.679 86.1154 172.679C83.4805 172.679 81.5366 174.653 81.5366 177.909C81.5366 181.165 83.4705 183.139 86.1154 183.139C88.3526 183.139 89.9883 181.737 90.3214 179.724L88.7702 179.719C88.5067 181.021 87.413 181.737 86.1254 181.737C84.3803 181.737 83.0629 180.4 83.0629 177.909C83.0629 175.438 84.3754 174.081 86.1303 174.081C87.4279 174.081 88.5167 174.812 88.7702 176.129H90.3214ZM95.2569 183.154C97.4096 183.154 98.8166 181.578 98.8166 179.217C98.8166 176.84 97.4096 175.264 95.2569 175.264C93.1042 175.264 91.6973 176.84 91.6973 179.217C91.6973 181.578 93.1042 183.154 95.2569 183.154ZM95.2619 181.906C93.8549 181.906 93.1987 180.678 93.1987 179.212C93.1987 177.75 93.8549 176.507 95.2619 176.507C96.6589 176.507 97.3152 177.75 97.3152 179.212C97.3152 180.678 96.6589 181.906 95.2619 181.906ZM103.335 183.149C104.727 183.149 105.273 182.299 105.542 181.812H105.666V183H107.118V172.818H105.631V176.602H105.542C105.273 176.129 104.766 175.264 103.344 175.264C101.5 175.264 100.143 176.721 100.143 179.197C100.143 181.668 101.48 183.149 103.335 183.149ZM103.663 181.881C102.335 181.881 101.644 180.713 101.644 179.182C101.644 177.665 102.32 176.527 103.663 176.527C104.96 176.527 105.656 177.586 105.656 179.182C105.656 180.788 104.945 181.881 103.663 181.881ZM112.531 183.154C114.196 183.154 115.374 182.334 115.713 181.091L114.306 180.837C114.037 181.558 113.391 181.926 112.546 181.926C111.273 181.926 110.418 181.101 110.378 179.629H115.807V179.102C115.807 176.343 114.156 175.264 112.426 175.264C110.298 175.264 108.896 176.885 108.896 179.232C108.896 181.603 110.279 183.154 112.531 183.154ZM110.383 178.516C110.443 177.432 111.228 176.492 112.436 176.492C113.59 176.492 114.345 177.347 114.35 178.516H110.383Z" fill="white"/>
<path d="M19.5 173.333V175.667H26.5V173.333H27.6707C27.9904 173.333 28.25 173.593 28.25 173.913V183.254C28.2498 183.408 28.1888 183.555 28.0802 183.663C27.9716 183.772 27.8243 183.833 27.6707 183.833H18.3292C18.1757 183.833 18.0284 183.772 17.9198 183.663C17.8112 183.555 17.7502 183.408 17.75 183.254V173.913C17.75 173.593 18.0096 173.333 18.3292 173.333H19.5ZM20.6667 172.167H25.3333V174.5H20.6667V172.167Z" fill="#87888B"/>
<path d="M51.5753 220.129C51.2273 217.952 49.522 216.679 47.3693 216.679C44.7344 216.679 42.7905 218.653 42.7905 221.909C42.7905 225.165 44.7244 227.139 47.3693 227.139C49.6065 227.139 51.2422 225.737 51.5753 223.724L50.0241 223.719C49.7607 225.021 48.6669 225.737 47.3793 225.737C45.6342 225.737 44.3168 224.4 44.3168 221.909C44.3168 219.438 45.6293 218.081 47.3842 218.081C48.6818 218.081 49.7706 218.812 50.0241 220.129H51.5753ZM56.5108 227.154C58.6635 227.154 60.0705 225.578 60.0705 223.217C60.0705 220.84 58.6635 219.264 56.5108 219.264C54.3581 219.264 52.9512 220.84 52.9512 223.217C52.9512 225.578 54.3581 227.154 56.5108 227.154ZM56.5158 225.906C55.1088 225.906 54.4526 224.678 54.4526 223.212C54.4526 221.75 55.1088 220.507 56.5158 220.507C57.9128 220.507 58.5691 221.75 58.5691 223.212C58.5691 224.678 57.9128 225.906 56.5158 225.906ZM61.7298 229.864H63.2163V225.812H63.3058C63.5742 226.299 64.1211 227.149 65.5131 227.149C67.3626 227.149 68.7049 225.668 68.7049 223.197C68.7049 220.721 67.3427 219.264 65.4982 219.264C64.0813 219.264 63.5692 220.129 63.3058 220.602H63.1815V219.364H61.7298V229.864ZM63.1864 223.182C63.1864 221.586 63.8825 220.527 65.18 220.527C66.5273 220.527 67.2035 221.665 67.2035 223.182C67.2035 224.713 66.5075 225.881 65.18 225.881C63.9023 225.881 63.1864 224.788 63.1864 223.182ZM71.0366 229.844C72.2646 229.844 73.0451 229.202 73.4826 228.019L76.6396 219.379L75.0337 219.364L73.0998 225.29H73.0202L71.0863 219.364H69.4954L72.2894 227.099L72.1055 227.607C71.7276 228.596 71.1957 228.685 70.3803 228.462L70.0224 229.68C70.2013 229.764 70.5891 229.844 71.0366 229.844ZM81.8647 227H88.0146V225.678H83.4009V216.818H81.8647V227ZM89.6477 227H91.1342V219.364H89.6477V227ZM90.3984 218.185C90.9105 218.185 91.3381 217.788 91.3381 217.3C91.3381 216.813 90.9105 216.411 90.3984 216.411C89.8814 216.411 89.4588 216.813 89.4588 217.3C89.4588 217.788 89.8814 218.185 90.3984 218.185ZM94.6206 222.466C94.6206 221.248 95.3663 220.552 96.4004 220.552C97.4096 220.552 98.0211 221.213 98.0211 222.322V227H99.5076V222.143C99.5076 220.254 98.4686 219.264 96.9075 219.264C95.7591 219.264 95.0083 219.796 94.6554 220.607H94.5609V219.364H93.1341V227H94.6206V222.466ZM101.501 227H102.988V224.29L103.729 223.55L106.324 227H108.148L104.847 222.64L107.939 219.364H106.16L103.117 222.595H102.988V216.818H101.501V227Z" fill="white"/>
<path d="M23.5833 223.167H22.4167C21.4598 223.166 20.521 223.428 19.7018 223.922C18.8826 224.417 18.2141 225.126 17.7687 225.972C17.7561 225.815 17.7499 225.658 17.75 225.5C17.75 222.278 20.3616 219.667 23.5833 219.667V216.75L29.4167 221.417L23.5833 226.083V223.167Z" fill="#87888B"/>
<path d="M43.1186 260.818V271H44.5803V263.627H44.6747L47.6776 270.985H48.8906L51.8935 263.632H51.9879V271H53.4496V260.818H51.5852L48.3438 268.733H48.2244L44.983 260.818H43.1186ZM58.7804 271.154C60.9331 271.154 62.34 269.578 62.34 267.217C62.34 264.84 60.9331 263.264 58.7804 263.264C56.6277 263.264 55.2207 264.84 55.2207 267.217C55.2207 269.578 56.6277 271.154 58.7804 271.154ZM58.7853 269.906C57.3784 269.906 56.7221 268.678 56.7221 267.212C56.7221 265.75 57.3784 264.507 58.7853 264.507C60.1824 264.507 60.8386 265.75 60.8386 267.212C60.8386 268.678 60.1824 269.906 58.7853 269.906ZM70.2585 263.364H68.6626L66.7337 269.24H66.6541L64.7202 263.364H63.1243L65.8984 271H67.4893L70.2585 263.364ZM74.6733 271.154C76.3388 271.154 77.517 270.334 77.8551 269.091L76.4482 268.837C76.1797 269.558 75.5334 269.926 74.6882 269.926C73.4155 269.926 72.5604 269.101 72.5206 267.629H77.9496V267.102C77.9496 264.343 76.299 263.264 74.5689 263.264C72.4411 263.264 71.0391 264.885 71.0391 267.232C71.0391 269.603 72.4212 271.154 74.6733 271.154ZM72.5256 266.516C72.5852 265.432 73.3707 264.492 74.5788 264.492C75.7322 264.492 76.4879 265.347 76.4929 266.516H72.5256ZM88.9766 263.493H90.4581C90.4134 261.862 88.9716 260.679 86.9034 260.679C84.8601 260.679 83.294 261.847 83.294 263.602C83.294 265.019 84.3082 265.849 85.9439 266.292L87.147 266.62C88.2358 266.908 89.076 267.266 89.076 268.171C89.076 269.165 88.1264 269.822 86.8189 269.822C85.6357 269.822 84.6513 269.295 84.5618 268.186H83.0206C83.12 270.031 84.5469 271.169 86.8288 271.169C89.2202 271.169 90.5973 269.911 90.5973 268.186C90.5973 266.352 88.9616 265.641 87.669 265.322L86.6747 265.064C85.8793 264.86 84.8203 264.487 84.8253 263.513C84.8253 262.648 85.6158 262.006 86.8686 262.006C88.0369 262.006 88.8672 262.553 88.9766 263.493ZM93.8002 266.466C93.8002 265.248 94.546 264.552 95.5801 264.552C96.5893 264.552 97.2008 265.213 97.2008 266.322V271H98.6873V266.143C98.6873 264.254 97.6483 263.264 96.0872 263.264C94.9387 263.264 94.188 263.796 93.835 264.607H93.7406V263.364H92.3137V271H93.8002V266.466ZM100.681 271H102.167V263.364H100.681V271ZM101.432 262.185C101.944 262.185 102.371 261.788 102.371 261.3C102.371 260.813 101.944 260.411 101.432 260.411C100.915 260.411 100.492 260.813 100.492 261.3C100.492 261.788 100.915 262.185 101.432 262.185ZM104.167 273.864H105.654V269.812H105.743C106.012 270.299 106.559 271.149 107.951 271.149C109.8 271.149 111.142 269.668 111.142 267.197C111.142 264.721 109.78 263.264 107.936 263.264C106.519 263.264 106.007 264.129 105.743 264.602H105.619V263.364H104.167V273.864ZM105.624 267.182C105.624 265.586 106.32 264.527 107.618 264.527C108.965 264.527 109.641 265.665 109.641 267.182C109.641 268.713 108.945 269.881 107.618 269.881C106.34 269.881 105.624 268.788 105.624 267.182ZM112.808 273.864H114.294V269.812H114.384C114.652 270.299 115.199 271.149 116.591 271.149C118.441 271.149 119.783 269.668 119.783 267.197C119.783 264.721 118.421 263.264 116.576 263.264C115.159 263.264 114.647 264.129 114.384 264.602H114.26V263.364H112.808V273.864ZM114.265 267.182C114.265 265.586 114.961 264.527 116.258 264.527C117.605 264.527 118.282 265.665 118.282 267.182C118.282 268.713 117.586 269.881 116.258 269.881C114.98 269.881 114.265 268.788 114.265 267.182ZM124.74 271.154C126.405 271.154 127.583 270.334 127.922 269.091L126.515 268.837C126.246 269.558 125.6 269.926 124.755 269.926C123.482 269.926 122.627 269.101 122.587 267.629H128.016V267.102C128.016 264.343 126.365 263.264 124.635 263.264C122.507 263.264 121.105 264.885 121.105 267.232C121.105 269.603 122.488 271.154 124.74 271.154ZM122.592 266.516C122.652 265.432 123.437 264.492 124.645 264.492C125.799 264.492 126.554 265.347 126.559 266.516H122.592ZM133.23 263.364H131.664V261.534H130.177V263.364H129.059V264.557H130.177V269.066C130.172 270.453 131.231 271.124 132.405 271.099C132.877 271.094 133.195 271.005 133.369 270.94L133.101 269.712C133.001 269.732 132.817 269.777 132.579 269.777C132.096 269.777 131.664 269.618 131.664 268.758V264.557H133.23V263.364ZM139.559 271.094C140.101 271.094 140.553 270.652 140.553 270.1C140.553 269.558 140.101 269.111 139.559 269.111C139.012 269.111 138.564 269.558 138.564 270.1C138.564 270.652 139.012 271.094 139.559 271.094ZM143.524 271.094C144.066 271.094 144.518 270.652 144.518 270.1C144.518 269.558 144.066 269.111 143.524 269.111C142.977 269.111 142.529 269.558 142.529 270.1C142.529 270.652 142.977 271.094 143.524 271.094ZM147.488 271.094C148.03 271.094 148.483 270.652 148.483 270.1C148.483 269.558 148.03 269.111 147.488 269.111C146.942 269.111 146.494 269.558 146.494 270.1C146.494 270.652 146.942 271.094 147.488 271.094Z" fill="white"/>
<path d="M22.416 265.417V262.4L21.3497 263.467L20.5243 262.642L22.9993 260.167L25.4744 262.642L24.649 263.467L23.5827 262.4V265.417H26.5997L25.5328 264.35L26.3576 263.525L28.8327 266L26.3576 268.475L25.5328 267.65L26.5997 266.583H23.5827V269.6L24.649 268.533L25.4744 269.358L22.9993 271.833L20.5243 269.358L21.3497 268.533L22.416 269.6V266.583H19.399L20.4659 267.65L19.6411 268.475L17.166 266L19.6411 263.525L20.4659 264.35L19.399 265.417H22.416Z" fill="#87888B"/>
<path d="M46.4148 315C49.517 315 51.3118 313.076 51.3118 309.894C51.3118 306.727 49.517 304.818 46.5192 304.818H43.1186V315H46.4148ZM44.6548 313.658V306.161H46.4247C48.652 306.161 49.8004 307.493 49.8004 309.894C49.8004 312.305 48.652 313.658 46.3303 313.658H44.6548ZM56.394 315.154C58.0595 315.154 59.2377 314.334 59.5758 313.091L58.1689 312.837C57.9004 313.558 57.2541 313.926 56.4089 313.926C55.1362 313.926 54.2811 313.101 54.2413 311.629H59.6703V311.102C59.6703 308.343 58.0197 307.264 56.2896 307.264C54.1618 307.264 52.7598 308.885 52.7598 311.232C52.7598 313.603 54.1419 315.154 56.394 315.154ZM54.2463 310.516C54.3059 309.432 55.0914 308.492 56.2995 308.492C57.4529 308.492 58.2086 309.347 58.2136 310.516H54.2463ZM62.8061 304.818H61.3196V315H62.8061V304.818ZM68.0971 315.154C69.7626 315.154 70.9409 314.334 71.2789 313.091L69.872 312.837C69.6035 313.558 68.9572 313.926 68.112 313.926C66.8393 313.926 65.9842 313.101 65.9444 311.629H71.3734V311.102C71.3734 308.343 69.7228 307.264 67.9927 307.264C65.8649 307.264 64.4629 308.885 64.4629 311.232C64.4629 313.603 65.845 315.154 68.0971 315.154ZM65.9494 310.516C66.0091 309.432 66.7946 308.492 68.0027 308.492C69.1561 308.492 69.9118 309.347 69.9167 310.516H65.9494ZM76.5874 307.364H75.0213V305.534H73.5348V307.364H72.4162V308.557H73.5348V313.066C73.5298 314.453 74.5888 315.124 75.7621 315.099C76.2344 315.094 76.5526 315.005 76.7266 314.94L76.4581 313.712C76.3587 313.732 76.1747 313.777 75.9361 313.777C75.4538 313.777 75.0213 313.618 75.0213 312.758V308.557H76.5874V307.364ZM81.4409 315.154C83.1064 315.154 84.2846 314.334 84.6227 313.091L83.2157 312.837C82.9473 313.558 82.301 313.926 81.4558 313.926C80.1831 313.926 79.3279 313.101 79.2882 311.629H84.7172V311.102C84.7172 308.343 83.0666 307.264 81.3365 307.264C79.2086 307.264 77.8066 308.885 77.8066 311.232C77.8066 313.603 79.1887 315.154 81.4409 315.154ZM79.2931 310.516C79.3528 309.432 80.1383 308.492 81.3464 308.492C82.4998 308.492 83.2555 309.347 83.2605 310.516H79.2931ZM95.7441 307.493H97.2257C97.1809 305.862 95.7392 304.679 93.671 304.679C91.6277 304.679 90.0616 305.847 90.0616 307.602C90.0616 309.019 91.0758 309.849 92.7115 310.292L93.9146 310.62C95.0034 310.908 95.8436 311.266 95.8436 312.171C95.8436 313.165 94.894 313.822 93.5865 313.822C92.4032 313.822 91.4189 313.295 91.3294 312.186H89.7882C89.8876 314.031 91.3145 315.169 93.5964 315.169C95.9877 315.169 97.3649 313.911 97.3649 312.186C97.3649 310.352 95.7292 309.641 94.4366 309.322L93.4423 309.064C92.6468 308.86 91.5879 308.487 91.5929 307.513C91.5929 306.648 92.3833 306.006 93.6362 306.006C94.8045 306.006 95.6348 306.553 95.7441 307.493ZM100.568 310.466C100.568 309.248 101.314 308.552 102.348 308.552C103.357 308.552 103.968 309.213 103.968 310.322V315H105.455V310.143C105.455 308.254 104.416 307.264 102.855 307.264C101.706 307.264 100.956 307.796 100.603 308.607H100.508V307.364H99.0813V315H100.568V310.466ZM107.449 315H108.935V307.364H107.449V315ZM108.199 306.185C108.711 306.185 109.139 305.788 109.139 305.3C109.139 304.813 108.711 304.411 108.199 304.411C107.682 304.411 107.26 304.813 107.26 305.3C107.26 305.788 107.682 306.185 108.199 306.185ZM110.935 317.864H112.421V313.812H112.511C112.779 314.299 113.326 315.149 114.718 315.149C116.568 315.149 117.91 313.668 117.91 311.197C117.91 308.721 116.548 307.264 114.703 307.264C113.286 307.264 112.774 308.129 112.511 308.602H112.387V307.364H110.935V317.864ZM112.392 311.182C112.392 309.586 113.088 308.527 114.385 308.527C115.732 308.527 116.409 309.665 116.409 311.182C116.409 312.713 115.713 313.881 114.385 313.881C113.107 313.881 112.392 312.788 112.392 311.182ZM119.575 317.864H121.062V313.812H121.151C121.42 314.299 121.967 315.149 123.359 315.149C125.208 315.149 126.551 313.668 126.551 311.197C126.551 308.721 125.188 307.264 123.344 307.264C121.927 307.264 121.415 308.129 121.151 308.602H121.027V307.364H119.575V317.864ZM121.032 311.182C121.032 309.586 121.728 308.527 123.026 308.527C124.373 308.527 125.049 309.665 125.049 311.182C125.049 312.713 124.353 313.881 123.026 313.881C121.748 313.881 121.032 312.788 121.032 311.182ZM131.507 315.154C133.173 315.154 134.351 314.334 134.689 313.091L133.282 312.837C133.014 313.558 132.367 313.926 131.522 313.926C130.249 313.926 129.394 313.101 129.355 311.629H134.784V311.102C134.784 308.343 133.133 307.264 131.403 307.264C129.275 307.264 127.873 308.885 127.873 311.232C127.873 313.603 129.255 315.154 131.507 315.154ZM129.36 310.516C129.419 309.432 130.205 308.492 131.413 308.492C132.566 308.492 133.322 309.347 133.327 310.516H129.36ZM139.998 307.364H138.431V305.534H136.945V307.364H135.826V308.557H136.945V313.066C136.94 314.453 137.999 315.124 139.172 315.099C139.645 315.094 139.963 315.005 140.137 314.94L139.868 313.712C139.769 313.732 139.585 313.777 139.346 313.777C138.864 313.777 138.431 313.618 138.431 312.758V308.557H139.998V307.364Z" fill="white"/>
<path d="M18.3327 307.667H27.666V315.25C27.666 315.405 27.6046 315.553 27.4952 315.663C27.3858 315.772 27.2374 315.833 27.0827 315.833H18.916C18.7613 315.833 18.6129 315.772 18.5035 315.663C18.3941 315.553 18.3327 315.405 18.3327 315.25V307.667ZM20.0827 305.917V304.75C20.0827 304.595 20.1441 304.447 20.2535 304.338C20.3629 304.228 20.5113 304.167 20.666 304.167H25.3327C25.4874 304.167 25.6358 304.228 25.7452 304.338C25.8546 304.447 25.916 304.595 25.916 304.75V305.917H28.8327V307.083H17.166V305.917H20.0827ZM21.2493 305.333V305.917H24.7493V305.333H21.2493ZM21.2493 310V313.5H22.416V310H21.2493ZM23.5827 310V313.5H24.7493V310H23.5827Z" fill="#87888B"/>
<path d="M46.4148 359C49.517 359 51.3118 357.076 51.3118 353.894C51.3118 350.727 49.517 348.818 46.5192 348.818H43.1186V359H46.4148ZM44.6548 357.658V350.161H46.4247C48.652 350.161 49.8004 351.493 49.8004 353.894C49.8004 356.305 48.652 357.658 46.3303 357.658H44.6548ZM56.3194 359.154C58.4721 359.154 59.8791 357.578 59.8791 355.217C59.8791 352.84 58.4721 351.264 56.3194 351.264C54.1667 351.264 52.7598 352.84 52.7598 355.217C52.7598 357.578 54.1667 359.154 56.3194 359.154ZM56.3244 357.906C54.9174 357.906 54.2612 356.678 54.2612 355.212C54.2612 353.75 54.9174 352.507 56.3244 352.507C57.7214 352.507 58.3777 353.75 58.3777 355.212C58.3777 356.678 57.7214 357.906 56.3244 357.906ZM62.9615 359H64.4728L66.024 353.487H66.1383L67.6895 359H69.2058L71.448 351.364H69.9118L68.4252 356.947H68.3507L66.8592 351.364H65.323L63.8216 356.972H63.747L62.2505 351.364H60.7143L62.9615 359ZM74.3452 354.466C74.3452 353.248 75.0909 352.552 76.125 352.552C77.1342 352.552 77.7457 353.213 77.7457 354.322V359H79.2322V354.143C79.2322 352.254 78.1932 351.264 76.6321 351.264C75.4837 351.264 74.733 351.796 74.38 352.607H74.2855V351.364H72.8587V359H74.3452V354.466ZM82.7124 348.818H81.2259V359H82.7124V348.818ZM87.9288 359.154C90.0815 359.154 91.4885 357.578 91.4885 355.217C91.4885 352.84 90.0815 351.264 87.9288 351.264C85.7761 351.264 84.3691 352.84 84.3691 355.217C84.3691 357.578 85.7761 359.154 87.9288 359.154ZM87.9338 357.906C86.5268 357.906 85.8706 356.678 85.8706 355.212C85.8706 353.75 86.5268 352.507 87.9338 352.507C89.3308 352.507 89.987 353.75 89.987 355.212C89.987 356.678 89.3308 357.906 87.9338 357.906ZM95.37 359.169C96.6328 359.169 97.3438 358.528 97.6271 357.956H97.6868V359H99.1385V353.929C99.1385 351.707 97.3885 351.264 96.1754 351.264C94.7933 351.264 93.5206 351.821 93.0234 353.213L94.4205 353.531C94.6392 352.989 95.196 352.467 96.1953 352.467C97.1548 352.467 97.647 352.969 97.647 353.835V353.869C97.647 354.411 97.0902 354.401 95.718 354.56C94.2713 354.729 92.7898 355.107 92.7898 356.842C92.7898 358.344 93.9183 359.169 95.37 359.169ZM95.6932 357.976C94.853 357.976 94.2464 357.598 94.2464 356.862C94.2464 356.067 94.9524 355.783 95.8125 355.669C96.2947 355.604 97.4382 355.475 97.652 355.261V356.246C97.652 357.151 96.9311 357.976 95.6932 357.976ZM103.977 359.149C105.369 359.149 105.916 358.299 106.184 357.812H106.309V359H107.76V348.818H106.274V352.602H106.184C105.916 352.129 105.409 351.264 103.987 351.264C102.143 351.264 100.785 352.721 100.785 355.197C100.785 357.668 102.123 359.149 103.977 359.149ZM104.305 357.881C102.978 357.881 102.287 356.713 102.287 355.182C102.287 353.665 102.963 352.527 104.305 352.527C105.603 352.527 106.299 353.586 106.299 355.182C106.299 356.788 105.588 357.881 104.305 357.881ZM119.26 351.493H120.741C120.697 349.862 119.255 348.679 117.187 348.679C115.143 348.679 113.577 349.847 113.577 351.602C113.577 353.019 114.591 353.849 116.227 354.292L117.43 354.62C118.519 354.908 119.359 355.266 119.359 356.171C119.359 357.165 118.41 357.822 117.102 357.822C115.919 357.822 114.934 357.295 114.845 356.186H113.304C113.403 358.031 114.83 359.169 117.112 359.169C119.503 359.169 120.881 357.911 120.881 356.186C120.881 354.352 119.245 353.641 117.952 353.322L116.958 353.064C116.162 352.86 115.104 352.487 115.108 351.513C115.108 350.648 115.899 350.006 117.152 350.006C118.32 350.006 119.15 350.553 119.26 351.493ZM124.083 354.466C124.083 353.248 124.829 352.552 125.863 352.552C126.873 352.552 127.484 353.213 127.484 354.322V359H128.971V354.143C128.971 352.254 127.931 351.264 126.37 351.264C125.222 351.264 124.471 351.796 124.118 352.607H124.024V351.364H122.597V359H124.083V354.466ZM130.964 359H132.451V351.364H130.964V359ZM131.715 350.185C132.227 350.185 132.654 349.788 132.654 349.3C132.654 348.813 132.227 348.411 131.715 348.411C131.198 348.411 130.775 348.813 130.775 349.3C130.775 349.788 131.198 350.185 131.715 350.185ZM134.45 361.864H135.937V357.812H136.026C136.295 358.299 136.842 359.149 138.234 359.149C140.083 359.149 141.426 357.668 141.426 355.197C141.426 352.721 140.063 351.264 138.219 351.264C136.802 351.264 136.29 352.129 136.026 352.602H135.902V351.364H134.45V361.864ZM135.907 355.182C135.907 353.586 136.603 352.527 137.901 352.527C139.248 352.527 139.924 353.665 139.924 355.182C139.924 356.713 139.228 357.881 137.901 357.881C136.623 357.881 135.907 356.788 135.907 355.182ZM143.091 361.864H144.578V357.812H144.667C144.936 358.299 145.482 359.149 146.874 359.149C148.724 359.149 150.066 357.668 150.066 355.197C150.066 352.721 148.704 351.264 146.86 351.264C145.443 351.264 144.931 352.129 144.667 352.602H144.543V351.364H143.091V361.864ZM144.548 355.182C144.548 353.586 145.244 352.527 146.541 352.527C147.889 352.527 148.565 353.665 148.565 355.182C148.565 356.713 147.869 357.881 146.541 357.881C145.264 357.881 144.548 356.788 144.548 355.182ZM155.023 359.154C156.688 359.154 157.867 358.334 158.205 357.091L156.798 356.837C156.529 357.558 155.883 357.926 155.038 357.926C153.765 357.926 152.91 357.101 152.87 355.629H158.299V355.102C158.299 352.343 156.649 351.264 154.919 351.264C152.791 351.264 151.389 352.885 151.389 355.232C151.389 357.603 152.771 359.154 155.023 359.154ZM152.875 354.516C152.935 353.432 153.72 352.492 154.928 352.492C156.082 352.492 156.838 353.347 156.843 354.516H152.875ZM163.513 351.364H161.947V349.534H160.461V351.364H159.342V352.557H160.461V357.066C160.456 358.453 161.515 359.124 162.688 359.099C163.16 359.094 163.478 359.005 163.652 358.94L163.384 357.712C163.284 357.732 163.1 357.777 162.862 357.777C162.38 357.777 161.947 357.618 161.947 356.758V352.557H163.513V351.364Z" fill="white"/>
<path d="M17.75 358.083H28.25V359.25H17.75V358.083ZM23.5833 354.684L27.1247 351.142L27.9496 351.967L23 356.917L18.0504 351.967L18.8752 351.142L22.4167 354.683V348.167H23.5833V354.684Z" fill="#87888B"/>
<rect x="0.5" y="0.5" width="479" height="959" rx="5.5" stroke="#262729" stroke-opacity="0.7"/>
</g>
</g>
<defs>
<filter id="filter0_d" x="-24" y="-22" width="528" height="1008" filterUnits="userSpaceOnUse" color-interpolation-filters="sRGB">
<feFlood flood-opacity="0" result="BackgroundImageFix"/>
<feColorMatrix in="SourceAlpha" type="matrix" values="0 0 0 0 0 0 0 0 0 0 0 0 0 0 0 0 0 0 127 0"/>
<feOffset dy="2"/>
<feGaussianBlur stdDeviation="12"/>
<feColorMatrix type="matrix" values="0 0 0 0 0.0745098 0 0 0 0 0.0784314 0 0 0 0 0.0823529 0 0 0 0.5 0"/>
<feBlend mode="normal" in2="BackgroundImageFix" result="effect1_dropShadow"/>
<feBlend mode="normal" in="SourceGraphic" in2="effect1_dropShadow" result="shape"/>
</filter>
<clipPath id="clip0">
<rect width="400" height="376" fill="white"/>
</clipPath>
</defs>
</svg>
