<svg width="704" height="224" viewBox="0 0 704 224" fill="none" xmlns="http://www.w3.org/2000/svg">
<rect width="704" height="224" fill="#1B1F23"/>
<path d="M74.7472 146H76.5028V141.597H78.8892C78.929 141.597 78.9631 141.597 79.0028 141.597L81.3665 146H83.3665L80.7869 141.29C82.2131 140.761 82.9233 139.574 82.9233 138.011C82.9233 135.869 81.5938 134.364 78.8949 134.364H74.7472V146ZM76.5028 140.085V135.869H78.7074C80.4403 135.869 81.1562 136.693 81.1562 138.011C81.1562 139.324 80.4403 140.085 78.7301 140.085H76.5028ZM88.5753 146.176C90.4787 146.176 91.8253 145.239 92.2116 143.818L90.6037 143.528C90.2969 144.352 89.5582 144.773 88.5923 144.773C87.1378 144.773 86.1605 143.83 86.1151 142.148H92.3196V141.545C92.3196 138.392 90.4332 137.159 88.456 137.159C86.0241 137.159 84.4219 139.011 84.4219 141.693C84.4219 144.403 86.0014 146.176 88.5753 146.176ZM86.1207 140.875C86.1889 139.636 87.0866 138.562 88.4673 138.562C89.7855 138.562 90.6491 139.54 90.6548 140.875H86.1207ZM100.744 139.403C100.392 138.045 99.3295 137.159 97.4432 137.159C95.4716 137.159 94.0739 138.199 94.0739 139.744C94.0739 140.983 94.8239 141.807 96.4602 142.17L97.9375 142.494C98.7784 142.682 99.1705 143.057 99.1705 143.602C99.1705 144.278 98.4489 144.807 97.3352 144.807C96.3182 144.807 95.6648 144.369 95.4602 143.511L93.8182 143.761C94.1023 145.307 95.3864 146.176 97.3466 146.176C99.4545 146.176 100.915 145.057 100.915 143.477C100.915 142.244 100.131 141.483 98.5284 141.114L97.142 140.795C96.1818 140.568 95.767 140.244 95.7727 139.653C95.767 138.983 96.4943 138.506 97.4602 138.506C98.517 138.506 99.0057 139.091 99.2045 139.676L100.744 139.403ZM106.544 146.176C108.447 146.176 109.794 145.239 110.18 143.818L108.572 143.528C108.266 144.352 107.527 144.773 106.561 144.773C105.107 144.773 104.129 143.83 104.084 142.148H110.288V141.545C110.288 138.392 108.402 137.159 106.425 137.159C103.993 137.159 102.391 139.011 102.391 141.693C102.391 144.403 103.97 146.176 106.544 146.176ZM104.089 140.875C104.158 139.636 105.055 138.562 106.436 138.562C107.754 138.562 108.618 139.54 108.624 140.875H104.089ZM114.713 146.193C116.156 146.193 116.969 145.46 117.293 144.807H117.361V146H119.02V140.205C119.02 137.665 117.02 137.159 115.634 137.159C114.054 137.159 112.599 137.795 112.031 139.386L113.628 139.75C113.878 139.131 114.514 138.534 115.656 138.534C116.753 138.534 117.315 139.108 117.315 140.097V140.136C117.315 140.756 116.679 140.744 115.111 140.926C113.457 141.119 111.764 141.551 111.764 143.534C111.764 145.25 113.054 146.193 114.713 146.193ZM115.082 144.83C114.122 144.83 113.429 144.398 113.429 143.557C113.429 142.648 114.236 142.324 115.219 142.193C115.77 142.119 117.077 141.972 117.321 141.727V142.852C117.321 143.886 116.497 144.83 115.082 144.83ZM121.283 146H122.982V140.67C122.982 139.528 123.862 138.705 125.067 138.705C125.419 138.705 125.817 138.767 125.953 138.807V137.182C125.783 137.159 125.447 137.142 125.232 137.142C124.209 137.142 123.334 137.722 123.016 138.659H122.925V137.273H121.283V146ZM130.787 146.176C132.849 146.176 134.185 144.938 134.372 143.239H132.719C132.503 144.182 131.77 144.739 130.798 144.739C129.361 144.739 128.435 143.54 128.435 141.636C128.435 139.767 129.378 138.591 130.798 138.591C131.878 138.591 132.537 139.273 132.719 140.091H134.372C134.19 138.33 132.753 137.159 130.77 137.159C128.31 137.159 126.719 139.011 126.719 141.676C126.719 144.307 128.253 146.176 130.787 146.176ZM137.888 140.818C137.888 139.426 138.768 138.631 139.979 138.631C141.149 138.631 141.848 139.375 141.848 140.653V146H143.547V140.449C143.547 138.273 142.354 137.159 140.558 137.159C139.2 137.159 138.382 137.75 137.973 138.693H137.865V134.364H136.189V146H137.888V140.818ZM153.435 146.165C154.486 146.165 155.651 145.812 156.435 145.08L157.219 146H159.139L157.486 144.023C157.98 143.364 158.452 142.33 158.452 140.716H156.918C156.918 141.494 156.736 142.188 156.435 142.767L154.105 139.983L154.901 139.398C155.866 138.693 156.446 137.881 156.446 136.773C156.446 135.415 155.349 134.239 153.56 134.239C151.787 134.239 150.622 135.381 150.622 136.989C150.622 138.028 151.168 138.852 151.901 139.744C150.571 140.665 149.668 141.523 149.668 142.909C149.668 144.778 151.094 146.165 153.435 146.165ZM155.48 143.955C154.878 144.455 154.156 144.727 153.44 144.727C152.179 144.727 151.355 143.869 151.355 142.864C151.355 142.506 151.656 141.79 152.565 141.119L152.872 140.892L155.48 143.955ZM153.168 138.852C152.639 138.205 152.224 137.608 152.224 137.017C152.224 136.341 152.781 135.659 153.599 135.659C154.384 135.659 154.895 136.273 154.895 136.818C154.895 137.511 154.514 137.932 153.884 138.347L153.168 138.852ZM166.597 134.364H164.841V146H166.597V134.364ZM172.284 146.17C173.875 146.17 174.5 145.199 174.807 144.642H174.949V146H176.608V134.364H174.909V138.688H174.807C174.5 138.148 173.92 137.159 172.295 137.159C170.188 137.159 168.636 138.824 168.636 141.653C168.636 144.477 170.165 146.17 172.284 146.17ZM172.659 144.722C171.142 144.722 170.352 143.386 170.352 141.636C170.352 139.903 171.125 138.602 172.659 138.602C174.142 138.602 174.938 139.812 174.938 141.636C174.938 143.472 174.125 144.722 172.659 144.722ZM182.794 146.176C184.697 146.176 186.044 145.239 186.43 143.818L184.822 143.528C184.516 144.352 183.777 144.773 182.811 144.773C181.357 144.773 180.379 143.83 180.334 142.148H186.538V141.545C186.538 138.392 184.652 137.159 182.675 137.159C180.243 137.159 178.641 139.011 178.641 141.693C178.641 144.403 180.22 146.176 182.794 146.176ZM180.339 140.875C180.408 139.636 181.305 138.562 182.686 138.562C184.004 138.562 184.868 139.54 184.874 140.875H180.339ZM190.963 146.193C192.406 146.193 193.219 145.46 193.543 144.807H193.611V146H195.27V140.205C195.27 137.665 193.27 137.159 191.884 137.159C190.304 137.159 188.849 137.795 188.281 139.386L189.878 139.75C190.128 139.131 190.764 138.534 191.906 138.534C193.003 138.534 193.565 139.108 193.565 140.097V140.136C193.565 140.756 192.929 140.744 191.361 140.926C189.707 141.119 188.014 141.551 188.014 143.534C188.014 145.25 189.304 146.193 190.963 146.193ZM191.332 144.83C190.372 144.83 189.679 144.398 189.679 143.557C189.679 142.648 190.486 142.324 191.469 142.193C192.02 142.119 193.327 141.972 193.571 141.727V142.852C193.571 143.886 192.747 144.83 191.332 144.83ZM201.607 137.273H199.817V135.182H198.118V137.273H196.839V138.636H198.118V143.79C198.112 145.375 199.322 146.142 200.663 146.114C201.203 146.108 201.567 146.006 201.766 145.932L201.459 144.528C201.345 144.551 201.135 144.602 200.862 144.602C200.311 144.602 199.817 144.42 199.817 143.438V138.636H201.607V137.273ZM203.486 146H205.185V137.273H203.486V146ZM204.344 135.926C204.929 135.926 205.418 135.472 205.418 134.915C205.418 134.358 204.929 133.898 204.344 133.898C203.753 133.898 203.27 134.358 203.27 134.915C203.27 135.472 203.753 135.926 204.344 135.926ZM211.146 146.176C213.607 146.176 215.214 144.375 215.214 141.676C215.214 138.96 213.607 137.159 211.146 137.159C208.686 137.159 207.078 138.96 207.078 141.676C207.078 144.375 208.686 146.176 211.146 146.176ZM211.152 144.75C209.544 144.75 208.794 143.347 208.794 141.67C208.794 140 209.544 138.58 211.152 138.58C212.749 138.58 213.499 140 213.499 141.67C213.499 143.347 212.749 144.75 211.152 144.75ZM218.81 140.818C218.81 139.426 219.662 138.631 220.844 138.631C221.997 138.631 222.696 139.386 222.696 140.653V146H224.395V140.449C224.395 138.29 223.207 137.159 221.423 137.159C220.111 137.159 219.253 137.767 218.849 138.693H218.741V137.273H217.111V146H218.81V140.818Z" fill="white"/>
<path d="M295.077 146C298.622 146 300.673 143.801 300.673 140.165C300.673 136.545 298.622 134.364 295.196 134.364H291.31V146H295.077ZM293.065 144.466V135.898H295.088C297.634 135.898 298.946 137.42 298.946 140.165C298.946 142.92 297.634 144.466 294.98 144.466H293.065ZM306.482 146.176C308.385 146.176 309.732 145.239 310.118 143.818L308.51 143.528C308.203 144.352 307.464 144.773 306.499 144.773C305.044 144.773 304.067 143.83 304.021 142.148H310.226V141.545C310.226 138.392 308.339 137.159 306.362 137.159C303.93 137.159 302.328 139.011 302.328 141.693C302.328 144.403 303.908 146.176 306.482 146.176ZM304.027 140.875C304.095 139.636 304.993 138.562 306.374 138.562C307.692 138.562 308.555 139.54 308.561 140.875H304.027ZM318.651 139.403C318.298 138.045 317.236 137.159 315.349 137.159C313.378 137.159 311.98 138.199 311.98 139.744C311.98 140.983 312.73 141.807 314.366 142.17L315.844 142.494C316.685 142.682 317.077 143.057 317.077 143.602C317.077 144.278 316.355 144.807 315.241 144.807C314.224 144.807 313.571 144.369 313.366 143.511L311.724 143.761C312.009 145.307 313.293 146.176 315.253 146.176C317.361 146.176 318.821 145.057 318.821 143.477C318.821 142.244 318.037 141.483 316.435 141.114L315.048 140.795C314.088 140.568 313.673 140.244 313.679 139.653C313.673 138.983 314.401 138.506 315.366 138.506C316.423 138.506 316.912 139.091 317.111 139.676L318.651 139.403ZM320.689 146H322.388V137.273H320.689V146ZM321.547 135.926C322.132 135.926 322.621 135.472 322.621 134.915C322.621 134.358 322.132 133.898 321.547 133.898C320.956 133.898 320.473 134.358 320.473 134.915C320.473 135.472 320.956 135.926 321.547 135.926ZM328.332 149.438C330.554 149.438 332.27 148.42 332.27 146.193V137.273H330.605V138.688H330.48C330.179 138.148 329.577 137.159 327.952 137.159C325.844 137.159 324.293 138.824 324.293 141.602C324.293 144.386 325.878 145.869 327.94 145.869C329.543 145.869 330.162 144.966 330.469 144.409H330.577V146.125C330.577 147.472 329.639 148.068 328.349 148.068C326.935 148.068 326.384 147.358 326.082 146.875L324.622 147.477C325.082 148.528 326.247 149.438 328.332 149.438ZM328.315 144.46C326.798 144.46 326.009 143.295 326.009 141.58C326.009 139.903 326.781 138.602 328.315 138.602C329.798 138.602 330.594 139.812 330.594 141.58C330.594 143.381 329.781 144.46 328.315 144.46ZM336.247 140.818C336.247 139.426 337.099 138.631 338.281 138.631C339.435 138.631 340.134 139.386 340.134 140.653V146H341.832V140.449C341.832 138.29 340.645 137.159 338.861 137.159C337.548 137.159 336.69 137.767 336.287 138.693H336.179V137.273H334.548V146H336.247V140.818Z" fill="white"/>
<path d="M451.528 146H453.284V141.909H455.67C458.369 141.909 459.705 140.278 459.705 138.131C459.705 135.989 458.381 134.364 455.676 134.364H451.528V146ZM453.284 140.42V135.869H455.489C457.227 135.869 457.938 136.812 457.938 138.131C457.938 139.449 457.227 140.42 455.511 140.42H453.284ZM461.626 146H463.325V140.67C463.325 139.528 464.206 138.705 465.411 138.705C465.763 138.705 466.161 138.767 466.297 138.807V137.182C466.126 137.159 465.791 137.142 465.575 137.142C464.553 137.142 463.678 137.722 463.359 138.659H463.268V137.273H461.626V146ZM471.131 146.176C473.591 146.176 475.199 144.375 475.199 141.676C475.199 138.96 473.591 137.159 471.131 137.159C468.67 137.159 467.062 138.96 467.062 141.676C467.062 144.375 468.67 146.176 471.131 146.176ZM471.136 144.75C469.528 144.75 468.778 143.347 468.778 141.67C468.778 140 469.528 138.58 471.136 138.58C472.733 138.58 473.483 140 473.483 141.67C473.483 143.347 472.733 144.75 471.136 144.75ZM481.169 137.273H479.379V135.182H477.68V137.273H476.402V138.636H477.68V143.79C477.675 145.375 478.885 146.142 480.226 146.114C480.766 146.108 481.129 146.006 481.328 145.932L481.021 144.528C480.908 144.551 480.697 144.602 480.425 144.602C479.874 144.602 479.379 144.42 479.379 143.438V138.636H481.169V137.273ZM486.631 146.176C489.091 146.176 490.699 144.375 490.699 141.676C490.699 138.96 489.091 137.159 486.631 137.159C484.17 137.159 482.562 138.96 482.562 141.676C482.562 144.375 484.17 146.176 486.631 146.176ZM486.636 144.75C485.028 144.75 484.278 143.347 484.278 141.67C484.278 140 485.028 138.58 486.636 138.58C488.233 138.58 488.983 140 488.983 141.67C488.983 143.347 488.233 144.75 486.636 144.75ZM496.669 137.273H494.879V135.182H493.18V137.273H491.902V138.636H493.18V143.79C493.175 145.375 494.385 146.142 495.726 146.114C496.266 146.108 496.629 146.006 496.828 145.932L496.521 144.528C496.408 144.551 496.197 144.602 495.925 144.602C495.374 144.602 494.879 144.42 494.879 143.438V138.636H496.669V137.273ZM499.622 149.25C501.026 149.25 501.918 148.517 502.418 147.165L506.026 137.29L504.19 137.273L501.98 144.045H501.889L499.679 137.273H497.861L501.054 146.114L500.844 146.693C500.412 147.824 499.804 147.926 498.872 147.67L498.463 149.062C498.668 149.159 499.111 149.25 499.622 149.25ZM507.626 149.273H509.325V144.642H509.428C509.734 145.199 510.359 146.17 511.95 146.17C514.064 146.17 515.598 144.477 515.598 141.653C515.598 138.824 514.041 137.159 511.933 137.159C510.314 137.159 509.729 138.148 509.428 138.688H509.286V137.273H507.626V149.273ZM509.291 141.636C509.291 139.812 510.087 138.602 511.57 138.602C513.109 138.602 513.882 139.903 513.882 141.636C513.882 143.386 513.087 144.722 511.57 144.722C510.109 144.722 509.291 143.472 509.291 141.636ZM521.263 146.176C523.166 146.176 524.513 145.239 524.899 143.818L523.291 143.528C522.984 144.352 522.246 144.773 521.28 144.773C519.825 144.773 518.848 143.83 518.803 142.148H525.007V141.545C525.007 138.392 523.121 137.159 521.143 137.159C518.712 137.159 517.109 139.011 517.109 141.693C517.109 144.403 518.689 146.176 521.263 146.176ZM518.808 140.875C518.876 139.636 519.774 138.562 521.155 138.562C522.473 138.562 523.337 139.54 523.342 140.875H518.808Z" fill="white"/>
<path d="M366.458 90H368.214V84.9261H373.157V83.4205H368.214V79.875H373.674V78.3636H366.458V90ZM378.817 90.1761C380.721 90.1761 382.067 89.2386 382.454 87.8182L380.846 87.5284C380.539 88.3523 379.8 88.7727 378.835 88.7727C377.38 88.7727 376.403 87.8295 376.357 86.1477H382.562V85.5455C382.562 82.392 380.675 81.1591 378.698 81.1591C376.266 81.1591 374.664 83.0114 374.664 85.6932C374.664 88.4034 376.244 90.1761 378.817 90.1761ZM376.363 84.875C376.431 83.6364 377.329 82.5625 378.71 82.5625C380.028 82.5625 380.891 83.5398 380.897 84.875H376.363ZM388.208 90.1761C390.112 90.1761 391.458 89.2386 391.844 87.8182L390.237 87.5284C389.93 88.3523 389.191 88.7727 388.225 88.7727C386.771 88.7727 385.793 87.8295 385.748 86.1477H391.952V85.5455C391.952 82.392 390.066 81.1591 388.089 81.1591C385.657 81.1591 384.055 83.0114 384.055 85.6932C384.055 88.4034 385.634 90.1761 388.208 90.1761ZM385.754 84.875C385.822 83.6364 386.719 82.5625 388.1 82.5625C389.418 82.5625 390.282 83.5398 390.288 84.875H385.754ZM397.104 90.1705C398.695 90.1705 399.32 89.1989 399.627 88.642H399.769V90H401.428V78.3636H399.729V82.6875H399.627C399.32 82.1477 398.741 81.1591 397.116 81.1591C395.008 81.1591 393.457 82.8239 393.457 85.6534C393.457 88.4773 394.985 90.1705 397.104 90.1705ZM397.479 88.7216C395.962 88.7216 395.173 87.3864 395.173 85.6364C395.173 83.9034 395.945 82.6023 397.479 82.6023C398.962 82.6023 399.758 83.8125 399.758 85.6364C399.758 87.4716 398.945 88.7216 397.479 88.7216ZM403.989 90H405.648V88.642H405.79C406.097 89.1989 406.722 90.1705 408.313 90.1705C410.427 90.1705 411.961 88.4773 411.961 85.6534C411.961 82.8239 410.404 81.1591 408.296 81.1591C406.677 81.1591 406.092 82.1477 405.79 82.6875H405.688V78.3636H403.989V90ZM405.654 85.6364C405.654 83.8125 406.45 82.6023 407.933 82.6023C409.472 82.6023 410.245 83.9034 410.245 85.6364C410.245 87.3864 409.45 88.7216 407.933 88.7216C406.472 88.7216 405.654 87.4716 405.654 85.6364ZM416.408 90.1932C417.852 90.1932 418.664 89.4602 418.988 88.8068H419.056V90H420.715V84.2045C420.715 81.6648 418.715 81.1591 417.329 81.1591C415.749 81.1591 414.295 81.7955 413.727 83.3864L415.323 83.75C415.573 83.1307 416.21 82.5341 417.352 82.5341C418.448 82.5341 419.011 83.108 419.011 84.0966V84.1364C419.011 84.7557 418.374 84.7443 416.806 84.9261C415.153 85.1193 413.46 85.5511 413.46 87.5341C413.46 89.25 414.749 90.1932 416.408 90.1932ZM416.778 88.8295C415.817 88.8295 415.124 88.3977 415.124 87.5568C415.124 86.6477 415.931 86.3239 416.914 86.1932C417.465 86.1193 418.772 85.9716 419.016 85.7273V86.8523C419.016 87.8864 418.192 88.8295 416.778 88.8295ZM426.654 90.1761C428.717 90.1761 430.052 88.9375 430.239 87.2386H428.586C428.37 88.1818 427.637 88.7386 426.665 88.7386C425.228 88.7386 424.302 87.5398 424.302 85.6364C424.302 83.767 425.245 82.5909 426.665 82.5909C427.745 82.5909 428.404 83.2727 428.586 84.0909H430.239C430.058 82.3295 428.62 81.1591 426.637 81.1591C424.177 81.1591 422.586 83.0114 422.586 85.6761C422.586 88.3068 424.12 90.1761 426.654 90.1761ZM432.056 90H433.755V86.9034L434.602 86.0568L437.567 90H439.653L435.88 85.017L439.414 81.2727H437.38L433.903 84.9659H433.755V78.3636H432.056V90Z" fill="white"/>
<path d="M274.354 140.354C274.549 140.158 274.549 139.842 274.354 139.646L271.172 136.464C270.976 136.269 270.66 136.269 270.464 136.464C270.269 136.66 270.269 136.976 270.464 137.172L273.293 140L270.464 142.828C270.269 143.024 270.269 143.34 270.464 143.536C270.66 143.731 270.976 143.731 271.172 143.536L274.354 140.354ZM242 140.5H274V139.5H242V140.5Z" fill="#6A737D"/>
<path d="M434.354 140.354C434.549 140.158 434.549 139.842 434.354 139.646L431.172 136.464C430.976 136.269 430.66 136.269 430.464 136.464C430.269 136.66 430.269 136.976 430.464 137.172L433.293 140L430.464 142.828C430.269 143.024 430.269 143.34 430.464 143.536C430.66 143.731 430.976 143.731 431.172 143.536L434.354 140.354ZM359 140.5H434V139.5H359V140.5Z" fill="#6A737D"/>
<path d="M601.037 138.148C600.639 135.659 598.69 134.205 596.23 134.205C593.219 134.205 590.997 136.46 590.997 140.182C590.997 143.903 593.207 146.159 596.23 146.159C598.787 146.159 600.656 144.557 601.037 142.256L599.264 142.25C598.963 143.739 597.713 144.557 596.241 144.557C594.247 144.557 592.741 143.028 592.741 140.182C592.741 137.358 594.241 135.807 596.247 135.807C597.73 135.807 598.974 136.642 599.264 138.148H601.037ZM606.678 146.176C609.138 146.176 610.746 144.375 610.746 141.676C610.746 138.96 609.138 137.159 606.678 137.159C604.217 137.159 602.609 138.96 602.609 141.676C602.609 144.375 604.217 146.176 606.678 146.176ZM606.683 144.75C605.075 144.75 604.325 143.347 604.325 141.67C604.325 140 605.075 138.58 606.683 138.58C608.28 138.58 609.03 140 609.03 141.67C609.03 143.347 608.28 144.75 606.683 144.75ZM615.909 146.17C617.5 146.17 618.125 145.199 618.432 144.642H618.574V146H620.233V134.364H618.534V138.688H618.432C618.125 138.148 617.545 137.159 615.92 137.159C613.812 137.159 612.261 138.824 612.261 141.653C612.261 144.477 613.79 146.17 615.909 146.17ZM616.284 144.722C614.767 144.722 613.977 143.386 613.977 141.636C613.977 139.903 614.75 138.602 616.284 138.602C617.767 138.602 618.562 139.812 618.562 141.636C618.562 143.472 617.75 144.722 616.284 144.722ZM626.419 146.176C628.322 146.176 629.669 145.239 630.055 143.818L628.447 143.528C628.141 144.352 627.402 144.773 626.436 144.773C624.982 144.773 624.004 143.83 623.959 142.148H630.163V141.545C630.163 138.392 628.277 137.159 626.3 137.159C623.868 137.159 622.266 139.011 622.266 141.693C622.266 144.403 623.845 146.176 626.419 146.176ZM623.964 140.875C624.033 139.636 624.93 138.562 626.311 138.562C627.629 138.562 628.493 139.54 628.499 140.875H623.964Z" fill="white"/>
<path d="M574.354 140.354C574.549 140.158 574.549 139.842 574.354 139.646L571.172 136.464C570.976 136.269 570.66 136.269 570.464 136.464C570.269 136.66 570.269 136.976 570.464 137.172L573.293 140L570.464 142.828C570.269 143.024 570.269 143.34 570.464 143.536C570.66 143.731 570.976 143.731 571.172 143.536L574.354 140.354ZM542 140.5H574V139.5H542V140.5Z" fill="#6A737D"/>
<path d="M455.646 83.6464C455.451 83.8417 455.451 84.1583 455.646 84.3536L458.828 87.5355C459.024 87.7308 459.34 87.7308 459.536 87.5355C459.731 87.3403 459.731 87.0237 459.536 86.8284L456.707 84L459.536 81.1716C459.731 80.9763 459.731 80.6597 459.536 80.4645C459.34 80.2692 459.024 80.2692 458.828 80.4645L455.646 83.6464ZM487.646 116.354C487.842 116.549 488.158 116.549 488.354 116.354L491.536 113.172C491.731 112.976 491.731 112.66 491.536 112.464C491.34 112.269 491.024 112.269 490.828 112.464L488 115.293L485.172 112.464C484.976 112.269 484.66 112.269 484.464 112.464C484.269 112.66 484.269 112.976 484.464 113.172L487.646 116.354ZM478 84V84.5V84ZM478 83.5H456L456 84.5H478V83.5ZM488.5 116L488.5 94H487.5L487.5 116H488.5ZM478 84.5C483.247 84.5 487.5 88.7533 487.5 94H488.5C488.5 88.201 483.799 83.5 478 83.5V84.5Z" fill="#6A737D"/>
<path d="M349.354 83.6464C349.549 83.8417 349.549 84.1583 349.354 84.3536L346.172 87.5355C345.976 87.7308 345.66 87.7308 345.464 87.5355C345.269 87.3403 345.269 87.0237 345.464 86.8284L348.293 84L345.464 81.1716C345.269 80.9763 345.269 80.6597 345.464 80.4645C345.66 80.2692 345.976 80.2692 346.172 80.4645L349.354 83.6464ZM317.354 116.354C317.158 116.549 316.842 116.549 316.646 116.354L313.464 113.172C313.269 112.976 313.269 112.66 313.464 112.464C313.66 112.269 313.976 112.269 314.172 112.464L317 115.293L319.828 112.464C320.024 112.269 320.34 112.269 320.536 112.464C320.731 112.66 320.731 112.976 320.536 113.172L317.354 116.354ZM327 84V84.5V84ZM327 83.5H349L349 84.5H327V83.5ZM316.5 116L316.5 94H317.5L317.5 116H316.5ZM327 84.5C321.753 84.5 317.5 88.7533 317.5 94H316.5C316.5 88.201 321.201 83.5 327 83.5V84.5Z" fill="#6A737D"/>
</svg>
