<svg width="704" height="400" viewBox="0 0 704 400" fill="none" xmlns="http://www.w3.org/2000/svg">
<rect width="704" height="400" fill="#1B1F23"/>
<g clip-path="url(#clip0)">
<path d="M451.097 181.714C454.884 181.714 457.759 179.057 457.759 175.185C457.759 171.238 454.884 168.657 451.097 168.657C447.313 168.657 444.435 171.238 444.435 175.185C444.435 179.057 447.313 181.714 451.097 181.714Z" fill="white"/>
<path d="M445.875 226.196H456.473V189.077H445.875V226.196Z" fill="white"/>
<path d="M271.422 226.196H260.823V179.187L271.422 173.06V226.196Z" fill="white"/>
<path fill-rule="evenodd" clip-rule="evenodd" d="M297.223 227.335C309.184 227.335 317.435 218.681 317.435 207.522C317.435 196.44 309.184 187.862 297.223 187.862C285.262 187.862 277.086 196.44 277.086 207.522C277.086 218.681 285.262 227.335 297.223 227.335ZM297.223 217.315C292.151 217.315 288.063 213.671 288.063 207.522C288.063 201.526 292.151 197.806 297.223 197.806C302.37 197.806 306.458 201.526 306.458 207.522C306.458 213.671 302.37 217.315 297.223 217.315Z" fill="white"/>
<path d="M352.687 201.374C348.978 198.945 345.798 197.882 341.862 197.882C336.638 197.882 332.096 201.222 332.096 207.522C332.096 214.051 336.638 217.239 341.862 217.239C345.798 217.239 348.978 216.252 352.687 213.747V224.754C349.962 226.044 346.253 227.335 341.332 227.335C329.674 227.335 321.119 219.288 321.119 207.522C321.119 195.832 329.674 187.862 341.332 187.862C346.253 187.862 349.962 189.153 352.687 190.443V201.374Z" fill="white"/>
<path d="M397.815 226.196L383.053 203.196L396.983 189.077H383.356L370.033 202.512V173.06L359.434 179.187V226.196H370.033V216.328L375.407 210.938L385.173 226.196H397.815Z" fill="white"/>
<path fill-rule="evenodd" clip-rule="evenodd" d="M412.37 236.366L401.773 242.486V189.001H412.37V191.733C414.793 189.608 418.351 187.862 422.741 187.862C433.415 187.862 440.153 196.743 440.153 207.598C440.153 218.302 433.415 227.335 422.741 227.335C418.351 227.335 415.02 225.817 412.37 223.387V236.366ZM412.37 213.368C414.339 215.721 417.14 217.315 420.245 217.315C425.391 217.315 429.176 213.595 429.176 207.598C429.1 201.602 425.391 197.806 420.245 197.806C417.14 197.806 414.339 199.476 412.37 201.829V213.368Z" fill="white"/>
<path d="M488 226.5C487.015 226.803 484.291 227.335 481.641 227.335C474.903 227.335 469.15 223.919 469.15 215.265V197.882H462.867V189.077H469.529V179.187L479.749 173.06V189.077H488V197.882H479.749V212.76C479.749 216.1 481.414 217.77 484.971 217.77C486.108 217.77 487.167 217.542 488 217.315V226.5Z" fill="white"/>
<path fill-rule="evenodd" clip-rule="evenodd" d="M216 226.196H238.029C248.779 226.196 254.911 220.275 254.911 210.787C254.911 205.169 251.959 200.463 246.66 198.565C250.218 196.819 253.019 192.948 253.019 187.331C253.019 179.36 246.962 173.06 236.97 173.06H226.979V182.776H234.699C238.711 182.776 241.36 184.902 241.36 188.545C241.36 192.341 238.711 194.618 234.699 194.618H226.979V182.776H216V226.196ZM226.977 203.423V216.252H235.834C240.073 216.252 243.101 213.899 243.101 209.8C243.101 205.853 240.376 203.423 235.834 203.423H226.977Z" fill="white"/>
</g>
<defs>
<clipPath id="clip0">
<rect width="272" height="85.4857" fill="white" transform="translate(216 157)"/>
</clipPath>
</defs>
</svg>
