<svg width="33" height="33" viewBox="0 0 33 33" fill="none" xmlns="http://www.w3.org/2000/svg">
<rect x="0.832031" y="0.830688" width="32" height="32" rx="6" fill="#1B1F23"/>
<path d="M14.9669 13.0976H18.7003V11.6976C18.7003 11.0515 18.8918 10.4199 19.2508 9.88271C19.6097 9.34551 20.1199 8.92682 20.7168 8.67957C21.3137 8.43232 21.9706 8.36763 22.6042 8.49368C23.2379 8.61972 23.82 8.93084 24.2768 9.38769C24.7337 9.84455 25.0448 10.4266 25.1708 11.0603C25.2969 11.694 25.2322 12.3508 24.9849 12.9477C24.7377 13.5446 24.319 14.0548 23.7818 14.4137C23.2446 14.7727 22.613 14.9642 21.9669 14.9642H20.5669V18.6976H21.9669C22.613 18.6976 23.2446 18.8892 23.7818 19.2481C24.319 19.6071 24.7377 20.1172 24.9849 20.7141C25.2322 21.311 25.2969 21.9679 25.1708 22.6015C25.0448 23.2352 24.7337 23.8173 24.2768 24.2741C23.82 24.731 23.2379 25.0421 22.6042 25.1681C21.9706 25.2942 21.3137 25.2295 20.7168 24.9822C20.1199 24.735 19.6097 24.3163 19.2508 23.7791C18.8918 23.2419 18.7003 22.6103 18.7003 21.9642V20.5642H14.9669V21.9642C14.9669 22.6103 14.7753 23.2419 14.4164 23.7791C14.0574 24.3163 13.5473 24.735 12.9504 24.9822C12.3535 25.2295 11.6966 25.2942 11.063 25.1681C10.4293 25.0421 9.84723 24.731 9.39038 24.2741C8.93353 23.8173 8.62241 23.2352 8.49636 22.6015C8.37032 21.9679 8.43501 21.311 8.68226 20.7141C8.9295 20.1172 9.3482 19.6071 9.8854 19.2481C10.4226 18.8892 11.0542 18.6976 11.7003 18.6976H13.1003V14.9642H11.7003C11.0542 14.9642 10.4226 14.7727 9.8854 14.4137C9.3482 14.0548 8.9295 13.5446 8.68226 12.9477C8.43501 12.3508 8.37032 11.694 8.49636 11.0603C8.62241 10.4266 8.93353 9.84455 9.39038 9.38769C9.84723 8.93084 10.4293 8.61972 11.063 8.49368C11.6966 8.36763 12.3535 8.43232 12.9504 8.67957C13.5473 8.92682 14.0574 9.34551 14.4164 9.88271C14.7753 10.4199 14.9669 11.0515 14.9669 11.6976V13.0976ZM13.1003 13.0976V11.6976C13.1003 11.4207 13.0182 11.15 12.8643 10.9198C12.7105 10.6895 12.4918 10.5101 12.236 10.4041C11.9802 10.2982 11.6987 10.2705 11.4271 10.3245C11.1556 10.3785 10.9061 10.5118 10.7103 10.7076C10.5145 10.9034 10.3812 11.1529 10.3272 11.4244C10.2731 11.696 10.3009 11.9775 10.4068 12.2333C10.5128 12.4891 10.6922 12.7078 10.9225 12.8616C11.1527 13.0155 11.4234 13.0976 11.7003 13.0976H13.1003ZM13.1003 20.5642H11.7003C11.4234 20.5642 11.1527 20.6464 10.9225 20.8002C10.6922 20.954 10.5128 21.1727 10.4068 21.4285C10.3009 21.6843 10.2731 21.9658 10.3272 22.2374C10.3812 22.5089 10.5145 22.7584 10.7103 22.9542C10.9061 23.15 11.1556 23.2833 11.4271 23.3373C11.6987 23.3914 11.9802 23.3636 12.236 23.2577C12.4918 23.1517 12.7105 22.9723 12.8643 22.742C13.0182 22.5118 13.1003 22.2411 13.1003 21.9642V20.5642ZM20.5669 13.0976H21.9669C22.2438 13.0976 22.5145 13.0155 22.7447 12.8616C22.975 12.7078 23.1544 12.4891 23.2604 12.2333C23.3663 11.9775 23.394 11.696 23.34 11.4244C23.286 11.1529 23.1527 10.9034 22.9569 10.7076C22.7611 10.5118 22.5116 10.3785 22.2401 10.3245C21.9685 10.2705 21.687 10.2982 21.4312 10.4041C21.1754 10.5101 20.9567 10.6895 20.8029 10.9198C20.649 11.15 20.5669 11.4207 20.5669 11.6976V13.0976ZM20.5669 20.5642V21.9642C20.5669 22.2411 20.649 22.5118 20.8029 22.742C20.9567 22.9723 21.1754 23.1517 21.4312 23.2577C21.687 23.3636 21.9685 23.3914 22.2401 23.3373C22.5116 23.2833 22.7611 23.15 22.9569 22.9542C23.1527 22.7584 23.286 22.5089 23.34 22.2374C23.394 21.9658 23.3663 21.6843 23.2604 21.4285C23.1544 21.1727 22.975 20.954 22.7447 20.8002C22.5145 20.6464 22.2438 20.5642 21.9669 20.5642H20.5669ZM14.9669 14.9642V18.6976H18.7003V14.9642H14.9669Z" fill="white"/>
</svg>
