<svg width="45" height="45" viewBox="0 0 45 45" fill="none" xmlns="http://www.w3.org/2000/svg">
<rect y="5" width="40" height="40" rx="6" transform="rotate(-7 0 5)" fill="url(#paint0_linear)"/>
<path d="M19.4065 18.0661L24.0384 17.4973L23.8252 15.7604C23.7267 14.9588 23.8682 14.146 24.2317 13.4249C24.5952 12.7037 25.1644 12.1065 25.8673 11.7088C26.5702 11.3111 27.3753 11.1308 28.1807 11.1907C28.986 11.2505 29.7556 11.5478 30.392 12.045C31.0284 12.5423 31.5031 13.217 31.756 13.984C32.0089 14.751 32.0287 15.5757 31.8129 16.354C31.5971 17.1322 31.1553 17.829 30.5435 18.3561C29.9317 18.8833 29.1773 19.2172 28.3757 19.3157L26.6387 19.5289L27.2075 24.1608L28.9444 23.9475C29.746 23.8491 30.5588 23.9906 31.2799 24.3541C32.0011 24.7176 32.5983 25.2868 32.996 25.9897C33.3937 26.6926 33.574 27.4977 33.5141 28.303C33.4543 29.1084 33.157 29.878 32.6598 30.5144C32.1625 31.1508 31.4878 31.6255 30.7208 31.8784C29.9538 32.1313 29.1291 32.1511 28.3508 31.9353C27.5726 31.7194 26.8758 31.2777 26.3487 30.6659C25.8215 30.0541 25.4876 29.2997 25.3891 28.4981L25.1759 26.7611L20.544 27.3298L20.7573 29.0668C20.8557 29.8684 20.7142 30.6812 20.3507 31.4023C19.9872 32.1235 19.418 32.7207 18.7151 33.1184C18.0122 33.5161 17.2071 33.6964 16.4018 33.6365C15.5964 33.5767 14.8268 33.2793 14.1904 32.7821C13.554 32.2849 13.0793 31.6102 12.8264 30.8432C12.5735 30.0762 12.5537 29.2514 12.7695 28.4732C12.9854 27.695 13.4271 26.9982 14.0389 26.471C14.6507 25.9439 15.4051 25.61 16.2067 25.5115L17.9437 25.2983L17.375 20.6664L15.638 20.8796C14.8364 20.9781 14.0236 20.8366 13.3025 20.4731C12.5813 20.1096 11.9841 19.5404 11.5864 18.8375C11.1887 18.1346 11.0084 17.3295 11.0683 16.5241C11.1281 15.7188 11.4255 14.9492 11.9227 14.3128C12.4199 13.6764 13.0946 13.2017 13.8616 12.9488C14.6286 12.6959 15.4534 12.6761 16.2316 12.8919C17.0098 13.1077 17.7066 13.5495 18.2338 14.1613C18.7609 14.7731 19.0948 15.5275 19.1933 16.3291L19.4065 18.0661ZM17.0906 18.3504L16.8773 16.6135C16.8351 16.2699 16.692 15.9466 16.4661 15.6844C16.2402 15.4222 15.9416 15.2329 15.608 15.1404C15.2745 15.0479 14.921 15.0564 14.5923 15.1648C14.2636 15.2732 13.9744 15.4766 13.7614 15.7493C13.5483 16.0221 13.4208 16.3519 13.3952 16.6971C13.3695 17.0422 13.4468 17.3872 13.6173 17.6885C13.7877 17.9897 14.0436 18.2337 14.3527 18.3895C14.6618 18.5452 15.0101 18.6059 15.3536 18.5637L17.0906 18.3504ZM18.228 27.6142L16.4911 27.8275C16.1476 27.8697 15.8242 28.0128 15.562 28.2387C15.2998 28.4646 15.1105 28.7632 15.018 29.0968C14.9255 29.4303 14.934 29.7838 15.0424 30.1125C15.1508 30.4412 15.3542 30.7304 15.627 30.9434C15.8997 31.1565 16.2295 31.284 16.5747 31.3096C16.9198 31.3353 17.2649 31.258 17.5661 31.0875C17.8674 30.9171 18.1113 30.6612 18.2671 30.3521C18.4229 30.043 18.4835 29.6947 18.4413 29.3512L18.228 27.6142ZM26.3544 17.213L28.0913 16.9997C28.4349 16.9575 28.7582 16.8144 29.0204 16.5885C29.2826 16.3626 29.4719 16.064 29.5644 15.7304C29.6569 15.3969 29.6484 15.0434 29.54 14.7147C29.4316 14.386 29.2282 14.0968 28.9555 13.8837C28.6827 13.6706 28.3529 13.5432 28.0077 13.5176C27.6626 13.4919 27.3176 13.5692 27.0163 13.7396C26.7151 13.9101 26.4711 14.166 26.3153 14.4751C26.1596 14.7842 26.0989 15.1325 26.1411 15.476L26.3544 17.213ZM27.4918 26.4768L27.7051 28.2137C27.7473 28.5572 27.8904 28.8806 28.1163 29.1428C28.3422 29.405 28.6408 29.5943 28.9744 29.6868C29.3079 29.7793 29.6614 29.7708 29.9901 29.6624C30.3188 29.554 30.608 29.3506 30.8211 29.0778C31.0341 28.8051 31.1616 28.4753 31.1872 28.1301C31.2129 27.785 31.1356 27.4399 30.9652 27.1387C30.7947 26.8374 30.5388 26.5935 30.2297 26.4377C29.9206 26.2819 29.5723 26.2213 29.2288 26.2635L27.4918 26.4768ZM19.6909 20.382L20.2596 25.0139L24.8915 24.4452L24.3228 19.8133L19.6909 20.382Z" fill="url(#paint1_linear)"/>
<defs>
<linearGradient id="paint0_linear" x1="20" y1="5" x2="20" y2="45" gradientUnits="userSpaceOnUse">
<stop stop-color="white"/>
<stop offset="1" stop-color="#FAFBFC"/>
</linearGradient>
<linearGradient id="paint1_linear" x1="21.0116" y1="11.9919" x2="23.5708" y2="32.8353" gradientUnits="userSpaceOnUse">
<stop stop-color="#24292E"/>
<stop offset="1" stop-color="#1B1F23"/>
</linearGradient>
</defs>
</svg>
